<svg width="10" height="20" viewBox="0 0 10 20" fill="none" xmlns="http://www.w3.org/2000/svg">
<g opacity="0.183501">
<path fill-rule="evenodd" clip-rule="evenodd" d="M9.62343 0.749873L7.22488 0.745972C4.5302 0.745972 2.78878 2.55713 2.78878 5.36037V7.48792H0.377148C0.168754 7.48792 0 7.65918 0 7.87044V10.953C0 11.1643 0.168947 11.3353 0.377148 11.3353H2.78878V19.1136C2.78878 19.3249 2.95753 19.496 3.16593 19.496H6.31242C6.52081 19.496 6.68956 19.3247 6.68956 19.1136V11.3353H9.50932C9.71772 11.3353 9.88647 11.1643 9.88647 10.953L9.88763 7.87044C9.88763 7.769 9.84779 7.67186 9.77717 7.60008C9.70656 7.5283 9.61034 7.48792 9.51029 7.48792H6.68956V5.68437C6.68956 4.81751 6.89334 4.37745 8.00727 4.37745L9.62304 4.37687C9.83125 4.37687 10 4.2056 10 3.99454V1.1322C10 0.921333 9.83144 0.750263 9.62343 0.749873Z" fill="black"/>
</g>
</svg>
