<svg width="20" height="21" viewBox="0 0 20 21" fill="none" xmlns="http://www.w3.org/2000/svg">
<g opacity="0.173968">
<path fill-rule="evenodd" clip-rule="evenodd" d="M6.25 0.120972H13.75C17.2013 0.120972 20 2.91972 20 6.37097V13.871C20 17.3222 17.2013 20.121 13.75 20.121H6.25C2.79875 20.121 0 17.3222 0 13.871V6.37097C0 2.91972 2.79875 0.120972 6.25 0.120972ZM13.75 18.246C16.1625 18.246 18.125 16.2835 18.125 13.871V6.37097C18.125 3.95847 16.1625 1.99597 13.75 1.99597H6.25C3.8375 1.99597 1.875 3.95847 1.875 6.37097V13.871C1.875 16.2835 3.8375 18.246 6.25 18.246H13.75Z" fill="black"/>
<path fill-rule="evenodd" clip-rule="evenodd" d="M5.05762 10.2359C5.05762 7.44295 7.3221 5.17847 10.1151 5.17847C12.9081 5.17847 15.1726 7.44295 15.1726 10.2359C15.1726 13.0289 12.9081 15.2934 10.1151 15.2934C7.3221 15.2934 5.05762 13.0289 5.05762 10.2359ZM6.95417 10.2359C6.95417 11.9782 8.37279 13.3969 10.1151 13.3969C11.8574 13.3969 13.276 11.9782 13.276 10.2359C13.276 8.49237 11.8574 7.07502 10.1151 7.07502C8.37279 7.07502 6.95417 8.49237 6.95417 10.2359Z" fill="black"/>
<circle cx="15.4021" cy="4.71871" r="0.689655" fill="black"/>
</g>
</svg>
