<svg width="21" height="18" viewBox="0 0 21 18" fill="none" xmlns="http://www.w3.org/2000/svg">
<g opacity="0.173968">
<path fill-rule="evenodd" clip-rule="evenodd" d="M21 2.58611C20.2271 2.92986 19.3978 3.16299 18.5264 3.26707C19.4161 2.73231 20.0972 1.88411 20.42 0.87652C19.5854 1.37174 18.6642 1.73133 17.6826 1.92627C16.8966 1.08464 15.7785 0.560425 14.5384 0.560425C12.1593 0.560425 10.2303 2.49657 10.2303 4.88315C10.2303 5.22163 10.2683 5.55223 10.3418 5.86836C6.76201 5.68789 3.58768 3.96645 1.46314 1.35066C1.09176 1.98816 0.880492 2.73097 0.880492 3.52389C0.880492 5.02408 1.64161 6.34777 2.7964 7.1222C2.0904 7.0985 1.42639 6.90357 0.84508 6.57955V6.63356C0.84508 8.72774 2.33056 10.4755 4.30024 10.8733C3.93936 10.9708 3.55882 11.0248 3.16514 11.0248C2.88696 11.0248 2.61794 10.9971 2.35417 10.9444C2.90267 12.6633 4.49315 13.9132 6.37756 13.9474C4.90389 15.1065 3.04573 15.7953 1.02749 15.7953C0.679756 15.7953 0.337236 15.7743 0 15.7361C1.90671 16.9649 4.17036 17.6814 6.60328 17.6814C14.528 17.6814 18.8597 11.0933 18.8597 5.37972L18.8453 4.81995C19.6917 4.21404 20.4239 3.45277 21 2.58611Z" fill="#010002"/>
</g>
</svg>
