<svg width="1463" height="592" viewBox="0 0 1463 592" fill="none" xmlns="http://www.w3.org/2000/svg">
<path fill-rule="evenodd" clip-rule="evenodd" d="M472.582 490.936C472.956 490.936 473.322 491.047 473.634 491.255C473.945 491.463 474.188 491.759 474.331 492.105C474.474 492.451 474.512 492.831 474.439 493.199C474.366 493.566 474.185 493.903 473.921 494.168C473.656 494.433 473.319 494.613 472.951 494.686C472.584 494.759 472.203 494.722 471.857 494.579C471.511 494.435 471.216 494.193 471.008 493.881C470.8 493.57 470.688 493.204 470.688 492.829C470.689 492.327 470.889 491.846 471.244 491.491C471.599 491.136 472.08 490.937 472.582 490.936V490.936Z" fill="white"/>
<path fill-rule="evenodd" clip-rule="evenodd" d="M576.315 406.471C572.849 407.324 569.325 407.919 565.771 408.25C546.693 410.084 532.29 394.638 515.98 387.206C507.018 383.124 497.513 381.346 488.068 381.431L514.591 308H576.315V406.471Z" fill="#0084FF"/>
<path fill-rule="evenodd" clip-rule="evenodd" d="M488.075 381.431C497.52 381.343 507.025 383.124 515.987 387.206C532.297 394.644 546.7 410.084 565.778 408.249C569.332 407.918 572.856 407.324 576.322 406.471V459.7H601.11V522.866H576.316V586.695H513.158V522.866H437.004L488.075 381.431Z" fill="#0028C7"/>
<path fill-rule="evenodd" clip-rule="evenodd" d="M548.366 522.839C548.366 522.839 548.442 523.256 548.553 523.885C548.839 525.463 549.601 526.915 550.736 528.048C551.871 529.18 553.324 529.939 554.902 530.224L555.946 530.413L554.902 530.6C553.326 530.889 551.875 531.651 550.742 532.785C549.609 533.918 548.849 535.37 548.562 536.947C548.451 537.572 548.375 537.993 548.375 537.993L548.185 536.947C547.897 535.371 547.136 533.92 546.003 532.787C544.87 531.654 543.419 530.892 541.842 530.604L540.799 530.417L541.842 530.228C543.419 529.943 544.872 529.184 546.005 528.051C547.139 526.918 547.899 525.467 548.185 523.89C548.298 523.261 548.375 522.844 548.375 522.844L548.366 522.839Z" fill="#FFCE00"/>
<path fill-rule="evenodd" clip-rule="evenodd" d="M498.708 422.626C498.708 422.626 498.785 423.047 498.9 423.672C499.185 425.248 499.945 426.7 501.077 427.834C502.21 428.967 503.661 429.728 505.238 430.014L506.284 430.201L505.238 430.391C503.661 430.677 502.209 431.437 501.076 432.571C499.944 433.704 499.184 435.157 498.9 436.734L498.708 437.777C498.708 437.777 498.634 437.358 498.519 436.734C498.234 435.157 497.475 433.704 496.342 432.57C495.209 431.437 493.757 430.676 492.18 430.391L491.137 430.201L492.18 430.014C493.757 429.728 495.209 428.968 496.341 427.834C497.474 426.701 498.234 425.248 498.519 423.672C498.634 423.047 498.708 422.626 498.708 422.626Z" fill="#67C0FF"/>
<path fill-rule="evenodd" clip-rule="evenodd" d="M557.844 460.123C558.218 460.123 558.584 460.234 558.896 460.443C559.207 460.651 559.45 460.947 559.593 461.293C559.736 461.639 559.774 462.02 559.7 462.387C559.627 462.754 559.447 463.092 559.182 463.356C558.917 463.621 558.579 463.801 558.212 463.874C557.844 463.947 557.463 463.909 557.117 463.765C556.772 463.622 556.476 463.379 556.268 463.067C556.06 462.755 555.95 462.389 555.95 462.015C555.951 461.513 556.151 461.032 556.506 460.677C556.861 460.323 557.342 460.123 557.844 460.123Z" fill="white"/>
<path fill-rule="evenodd" clip-rule="evenodd" d="M548.796 368.845C549.17 368.845 549.536 368.956 549.848 369.164C550.159 369.372 550.402 369.668 550.545 370.014C550.688 370.36 550.726 370.741 550.653 371.108C550.58 371.475 550.399 371.812 550.135 372.077C549.87 372.342 549.532 372.522 549.165 372.595C548.798 372.668 548.417 372.631 548.071 372.488C547.725 372.344 547.429 372.102 547.221 371.79C547.013 371.479 546.902 371.113 546.902 370.738C546.903 370.236 547.103 369.755 547.458 369.4C547.812 369.045 548.294 368.846 548.796 368.845V368.845Z" fill="white"/>
<path fill-rule="evenodd" clip-rule="evenodd" d="M827.844 492.739C828.218 492.739 828.584 492.85 828.895 493.058C829.207 493.266 829.45 493.562 829.593 493.908C829.736 494.254 829.774 494.635 829.701 495.002C829.628 495.369 829.447 495.707 829.182 495.971C828.918 496.236 828.58 496.417 828.213 496.49C827.846 496.563 827.465 496.525 827.119 496.382C826.773 496.239 826.477 495.996 826.269 495.685C826.061 495.373 825.95 495.007 825.95 494.633C825.951 494.131 826.15 493.649 826.505 493.295C826.86 492.94 827.342 492.74 827.844 492.739V492.739Z" fill="white"/>
<path fill-rule="evenodd" clip-rule="evenodd" d="M931.577 408.275C928.111 409.127 924.587 409.722 921.033 410.053C901.955 411.888 887.552 396.441 871.242 389.009C862.28 384.927 852.774 383.149 843.33 383.235L869.853 309.803H931.577V408.275V408.275Z" fill="#0084FF"/>
<path fill-rule="evenodd" clip-rule="evenodd" d="M843.337 383.235C852.781 383.147 862.287 384.927 871.249 389.009C887.559 396.448 901.962 411.888 921.04 410.053C924.594 409.722 928.118 409.127 931.584 408.274V461.503H956.372V524.669H931.577V588.499H868.42V524.669H792.266L843.337 383.235Z" fill="#0028C7"/>
<path fill-rule="evenodd" clip-rule="evenodd" d="M903.627 524.643C903.627 524.643 903.704 525.06 903.814 525.689C904.101 527.266 904.863 528.718 905.998 529.851C907.132 530.984 908.586 531.743 910.164 532.027L911.208 532.216L910.164 532.403C908.587 532.692 907.136 533.454 906.004 534.588C904.871 535.722 904.11 537.174 903.823 538.751C903.713 539.375 903.636 539.796 903.636 539.796L903.447 538.751C903.159 537.174 902.398 535.723 901.265 534.59C900.132 533.457 898.68 532.696 897.104 532.408L896.061 532.221L897.104 532.031C898.681 531.747 900.134 530.987 901.267 529.854C902.401 528.722 903.161 527.27 903.447 525.693C903.56 525.064 903.636 524.647 903.636 524.647L903.627 524.643Z" fill="#FFCE00"/>
<path fill-rule="evenodd" clip-rule="evenodd" d="M853.97 424.429C853.97 424.429 854.046 424.851 854.161 425.475C854.447 427.052 855.206 428.504 856.339 429.637C857.471 430.771 858.923 431.531 860.5 431.818L861.545 432.005L860.5 432.194C858.923 432.48 857.471 433.241 856.338 434.374C855.205 435.508 854.446 436.96 854.161 438.537L853.97 439.581C853.97 439.581 853.895 439.161 853.78 438.537C853.496 436.96 852.737 435.507 851.604 434.374C850.471 433.24 849.019 432.48 847.442 432.194L846.398 432.005L847.442 431.818C849.019 431.532 850.47 430.771 851.603 429.638C852.736 428.504 853.495 427.052 853.78 425.475C853.895 424.851 853.97 424.429 853.97 424.429Z" fill="#67C0FF"/>
<path fill-rule="evenodd" clip-rule="evenodd" d="M913.105 461.927C913.48 461.927 913.846 462.038 914.157 462.246C914.469 462.454 914.712 462.75 914.855 463.096C914.998 463.442 915.035 463.823 914.962 464.19C914.889 464.558 914.708 464.895 914.443 465.16C914.178 465.424 913.841 465.605 913.473 465.677C913.106 465.75 912.725 465.712 912.379 465.569C912.033 465.425 911.738 465.182 911.53 464.87C911.322 464.559 911.211 464.192 911.212 463.818C911.213 463.316 911.412 462.835 911.767 462.48C912.122 462.126 912.604 461.927 913.105 461.927Z" fill="white"/>
<path fill-rule="evenodd" clip-rule="evenodd" d="M904.057 370.648C904.432 370.648 904.798 370.759 905.109 370.967C905.421 371.176 905.663 371.471 905.807 371.817C905.95 372.163 905.987 372.544 905.914 372.911C905.841 373.278 905.661 373.616 905.396 373.881C905.131 374.145 904.794 374.326 904.427 374.399C904.06 374.472 903.679 374.434 903.333 374.291C902.987 374.148 902.691 373.905 902.483 373.594C902.275 373.282 902.164 372.916 902.164 372.542C902.165 372.04 902.364 371.559 902.719 371.204C903.074 370.849 903.555 370.649 904.057 370.648V370.648Z" fill="white"/>
<path fill-rule="evenodd" clip-rule="evenodd" d="M765.119 379.248C765.119 341.411 734.45 310.742 696.613 310.742C658.777 310.742 628.104 341.411 628.104 379.248V519.739C628.104 557.572 658.777 588.244 696.61 588.244C734.444 588.244 765.119 557.572 765.119 519.739V379.248Z" fill="#FFB200"/>
<path fill-rule="evenodd" clip-rule="evenodd" d="M628.16 399.295C644.053 391.587 660.213 384.491 678.421 383.734C709.879 382.425 726.995 403.345 754.704 412.143C758.123 413.23 761.646 413.96 765.216 414.321V522.251C765.216 560.094 734.534 590.775 696.691 590.775C658.848 590.775 628.16 560.094 628.16 522.251V399.295V399.295Z" fill="#0028C7"/>
<path fill-rule="evenodd" clip-rule="evenodd" d="M737.448 475.196C737.448 475.196 737.525 475.614 737.635 476.236C737.92 477.806 738.678 479.252 739.808 480.381C740.937 481.509 742.384 482.265 743.955 482.549L744.994 482.738L743.955 482.928C742.384 483.213 740.937 483.97 739.807 485.098C738.678 486.227 737.92 487.673 737.635 489.244C737.525 489.863 737.448 490.283 737.448 490.283C737.448 490.283 737.374 489.863 737.26 489.244C736.976 487.673 736.22 486.227 735.092 485.098C733.963 483.969 732.517 483.212 730.947 482.928L729.907 482.738L730.947 482.549C732.517 482.266 733.963 481.509 735.092 480.381C736.22 479.253 736.977 477.806 737.26 476.236C737.374 475.614 737.448 475.196 737.448 475.196Z" fill="#FFCE00"/>
<path fill-rule="evenodd" clip-rule="evenodd" d="M728.386 527.134C728.386 527.134 728.462 527.55 728.572 528.176C728.858 529.746 729.616 531.192 730.745 532.32C731.874 533.448 733.321 534.205 734.892 534.489L735.931 534.678L734.892 534.869C733.321 535.152 731.874 535.909 730.745 537.037C729.615 538.165 728.857 539.611 728.572 541.182C728.462 541.804 728.386 542.223 728.386 542.223L728.197 541.182C727.912 539.611 727.155 538.165 726.026 537.037C724.897 535.909 723.45 535.152 721.879 534.869L720.84 534.678L721.879 534.489C723.45 534.205 724.896 533.449 726.025 532.32C727.154 531.192 727.912 529.746 728.197 528.176C728.309 527.55 728.386 527.134 728.386 527.134Z" fill="#FF00AE"/>
<path fill-rule="evenodd" clip-rule="evenodd" d="M668.127 406.778C668.127 406.778 668.201 407.193 668.313 407.815C668.597 409.386 669.353 410.833 670.482 411.962C671.611 413.091 673.057 413.849 674.629 414.133L675.668 414.321L674.629 414.508C673.058 414.792 671.612 415.55 670.483 416.679C669.354 417.808 668.597 419.254 668.313 420.825C668.201 421.447 668.127 421.867 668.127 421.867L667.938 420.825C667.651 419.255 666.893 417.81 665.765 416.681C664.636 415.553 663.191 414.794 661.621 414.508L660.581 414.321L661.621 414.133C663.192 413.848 664.639 413.091 665.768 411.962C666.897 410.833 667.654 409.386 667.938 407.815C668.05 407.193 668.127 406.778 668.127 406.778V406.778Z" fill="white"/>
<path fill-rule="evenodd" clip-rule="evenodd" d="M648.673 471.856C649.046 471.856 649.411 471.966 649.721 472.174C650.031 472.381 650.273 472.676 650.416 473.02C650.558 473.365 650.595 473.744 650.522 474.11C650.449 474.476 650.27 474.812 650.006 475.076C649.742 475.339 649.405 475.519 649.04 475.591C648.674 475.664 648.294 475.626 647.95 475.483C647.605 475.34 647.311 475.098 647.104 474.788C646.897 474.477 646.787 474.112 646.787 473.739C646.788 473.24 646.987 472.76 647.34 472.407C647.694 472.054 648.173 471.856 648.673 471.856V471.856Z" fill="white"/>
<path fill-rule="evenodd" clip-rule="evenodd" d="M677.715 548.651C678.088 548.651 678.453 548.762 678.763 548.969C679.073 549.176 679.315 549.471 679.457 549.815C679.6 550.16 679.637 550.539 679.565 550.905C679.492 551.271 679.312 551.607 679.048 551.871C678.785 552.134 678.449 552.314 678.083 552.387C677.717 552.46 677.338 552.422 676.993 552.279C676.649 552.137 676.354 551.895 676.147 551.585C675.94 551.275 675.829 550.91 675.829 550.537C675.83 550.037 676.029 549.558 676.382 549.204C676.736 548.851 677.215 548.652 677.715 548.651V548.651Z" fill="white"/>
<path fill-rule="evenodd" clip-rule="evenodd" d="M696.688 447.568C723.349 447.568 744.994 425.6 744.994 398.542C744.994 371.485 723.349 349.514 696.688 349.514C710.018 357.686 720.839 376.841 720.839 398.542C720.839 420.243 710.018 439.403 696.688 447.568Z" fill="white"/>
<path d="M953.874 591.165C953.208 591.164 952.562 590.941 952.038 590.53C951.514 590.12 951.142 589.546 950.981 588.899L948.048 577.104C948.023 577.023 948.004 576.942 947.986 576.858L944.54 563.014C944.512 562.921 944.49 562.824 944.469 562.728L941.399 550.386C941.373 550.304 941.352 550.22 941.336 550.135L938.26 537.783C938.235 537.699 938.214 537.613 938.198 537.526L935.119 525.155C935.096 525.081 935.077 525.006 935.063 524.932L932.685 515.384C932.494 514.615 932.616 513.802 933.024 513.123C933.432 512.444 934.093 511.956 934.861 511.764C935.63 511.573 936.443 511.694 937.122 512.103C937.8 512.511 938.289 513.172 938.481 513.94L940.321 521.334H952.462L950.981 515.38C950.79 514.612 950.912 513.8 951.32 513.122C951.728 512.443 952.389 511.955 953.157 511.764C953.925 511.573 954.738 511.695 955.416 512.103C956.094 512.511 956.582 513.172 956.773 513.94L965.443 548.775L965.462 548.856L968.585 561.4C968.585 561.418 968.585 561.434 968.585 561.449L972.065 575.437C972.083 575.502 972.099 575.567 972.114 575.635L975.054 587.431C975.232 588.195 975.102 588.998 974.693 589.668C974.283 590.337 973.627 590.818 972.866 591.007C972.105 591.196 971.299 591.078 970.624 590.679C969.949 590.279 969.459 589.63 969.258 588.871L966.859 579.23H954.722L956.761 587.431C956.856 587.811 956.876 588.206 956.818 588.594C956.76 588.982 956.627 589.354 956.425 589.69C956.223 590.026 955.957 590.319 955.642 590.552C955.327 590.785 954.969 590.953 954.588 591.047C954.356 591.116 954.116 591.156 953.874 591.165V591.165ZM953.253 573.289H965.394L963.367 565.149H951.229L953.253 573.289ZM949.743 559.18H961.88L960.228 552.54H948.088L949.743 559.18ZM946.604 546.568H958.745L957.093 539.931H944.953L946.604 546.568ZM943.466 533.962H955.606L953.955 527.322H941.811L943.466 533.962Z" fill="#04080D"/>
<path fill-rule="evenodd" clip-rule="evenodd" d="M552.962 517.575H493.847V523.228H552.962V517.575Z" fill="#04080D"/>
<path fill-rule="evenodd" clip-rule="evenodd" d="M542.79 521.98L499.17 561.878L502.985 566.047L546.605 526.152L542.79 521.98Z" fill="#04080D"/>
<path fill-rule="evenodd" clip-rule="evenodd" d="M547.635 560.496L503.286 521.415L499.549 525.655L543.901 564.737L547.635 560.496Z" fill="#04080D"/>
<path fill-rule="evenodd" clip-rule="evenodd" d="M552.962 476.141H493.847V481.79H552.962V476.141Z" fill="#04080D"/>
<path fill-rule="evenodd" clip-rule="evenodd" d="M552.962 437.401H493.847V443.051H552.962V437.401Z" fill="#04080D"/>
<path fill-rule="evenodd" clip-rule="evenodd" d="M503.984 443.05H498.391V588.257H503.984V443.05Z" fill="#04080D"/>
<path fill-rule="evenodd" clip-rule="evenodd" d="M548.964 443.05H543.37V588.257H548.964V443.05Z" fill="#04080D"/>
<path fill-rule="evenodd" clip-rule="evenodd" d="M612.072 517.575H552.963V523.228H612.072V517.575Z" fill="#04080D"/>
<path fill-rule="evenodd" clip-rule="evenodd" d="M601.899 521.98L558.285 561.878L562.097 566.047L605.717 526.152L601.899 521.98Z" fill="#04080D"/>
<path fill-rule="evenodd" clip-rule="evenodd" d="M606.747 560.496L562.395 521.415L558.664 525.655L603.01 564.737L606.747 560.496Z" fill="#04080D"/>
<path fill-rule="evenodd" clip-rule="evenodd" d="M612.072 476.141H552.963V481.79H612.072V476.141Z" fill="#04080D"/>
<path fill-rule="evenodd" clip-rule="evenodd" d="M612.072 437.401H552.963V443.051H612.072V437.401Z" fill="#04080D"/>
<path fill-rule="evenodd" clip-rule="evenodd" d="M563.093 443.05H557.506V588.257H563.093V443.05Z" fill="#04080D"/>
<path fill-rule="evenodd" clip-rule="evenodd" d="M608.073 443.05H602.482V588.257H608.073V443.05Z" fill="#04080D"/>
<path fill-rule="evenodd" clip-rule="evenodd" d="M782.515 517.575H723.405V523.228H782.515V517.575Z" fill="#04080D"/>
<path fill-rule="evenodd" clip-rule="evenodd" d="M772.343 521.98L728.727 561.878L732.545 566.047L776.158 526.152L772.343 521.98Z" fill="#04080D"/>
<path fill-rule="evenodd" clip-rule="evenodd" d="M777.191 560.496L732.839 521.415L729.104 525.655L773.454 564.737L777.191 560.496Z" fill="#04080D"/>
<path fill-rule="evenodd" clip-rule="evenodd" d="M782.515 476.141H723.405V481.79H782.515V476.141Z" fill="#04080D"/>
<path fill-rule="evenodd" clip-rule="evenodd" d="M782.515 437.401H723.405V443.051H782.515V437.401Z" fill="#04080D"/>
<path fill-rule="evenodd" clip-rule="evenodd" d="M733.537 443.05H727.949V588.257H733.537V443.05Z" fill="#04080D"/>
<path fill-rule="evenodd" clip-rule="evenodd" d="M778.516 443.05H772.929V588.257H778.516V443.05Z" fill="#04080D"/>
<path fill-rule="evenodd" clip-rule="evenodd" d="M895.711 517.575H836.602V523.228H895.711V517.575Z" fill="#04080D"/>
<path fill-rule="evenodd" clip-rule="evenodd" d="M885.544 521.98L841.925 561.878L845.74 566.047L889.356 526.152L885.544 521.98Z" fill="#04080D"/>
<path fill-rule="evenodd" clip-rule="evenodd" d="M890.39 560.496L846.041 521.415L842.304 525.655L886.653 564.737L890.39 560.496Z" fill="#04080D"/>
<path fill-rule="evenodd" clip-rule="evenodd" d="M895.711 476.141H836.602V481.79H895.711V476.141Z" fill="#04080D"/>
<path fill-rule="evenodd" clip-rule="evenodd" d="M895.711 437.401H836.602V443.051H895.711V437.401Z" fill="#04080D"/>
<path fill-rule="evenodd" clip-rule="evenodd" d="M846.734 443.05H841.146V588.257H846.734V443.05Z" fill="#04080D"/>
<path fill-rule="evenodd" clip-rule="evenodd" d="M891.713 443.05H886.126V588.257H891.713V443.05Z" fill="#04080D"/>
<path fill-rule="evenodd" clip-rule="evenodd" d="M939.952 517.498H880.843V523.15H939.952V517.498Z" fill="#04080D"/>
<path fill-rule="evenodd" clip-rule="evenodd" d="M929.782 521.905L886.165 561.8L889.977 565.972L933.597 526.074L929.782 521.905Z" fill="#04080D"/>
<path fill-rule="evenodd" clip-rule="evenodd" d="M934.627 560.419L890.278 521.337L886.544 525.578L930.89 564.659L934.627 560.419Z" fill="#04080D"/>
<path fill-rule="evenodd" clip-rule="evenodd" d="M939.952 476.063H880.843V481.713H939.952V476.063Z" fill="#04080D"/>
<path fill-rule="evenodd" clip-rule="evenodd" d="M935.954 476.063H930.366V588.179H935.954V476.063Z" fill="#04080D"/>
<path fill-rule="evenodd" clip-rule="evenodd" d="M579.25 395.861L568.109 394.306L561.172 402.501L555.224 395.846L554.746 398.071L560.334 407.104L566.772 403.895L565.17 418.168L564.385 436.895L569.286 437.004L572.114 419.872L575.37 437.401L581.541 437.004L580.604 418.168L577.462 402.504L582.755 407.558L581.771 415.802L584.295 417.177L586.052 407.018L579.25 395.861Z" fill="#04080D"/>
<path fill-rule="evenodd" clip-rule="evenodd" d="M523.407 413.577L512.263 412.018L503.603 426.98L504.528 437.876L506.61 437.718L506.943 428.023L510.928 421.607L507.843 437.081L513.626 440.93L514.001 455.43L515.982 456.324L519.192 457.693L521.669 457.019L519.927 453.726L535.743 437.022L522.932 430.86L521.619 420.216L523.736 427.086L526.145 432.406L531.99 435.219L527.238 427.067L523.407 413.577Z" fill="#04080D"/>
<path fill-rule="evenodd" clip-rule="evenodd" d="M861.171 398.416L850.03 396.861L845.408 391.863L840.78 384.084L838.424 387.014L841.904 393.328L848.695 406.446L847.091 420.722L846.305 439.447L851.207 439.558L854.035 422.423L857.291 439.953L863.465 439.558L862.524 420.722L861.978 415.489L864.167 411.879L864.769 405.943L861.171 398.416Z" fill="#04080D"/>
<path fill-rule="evenodd" clip-rule="evenodd" d="M1000.28 549.145L989.137 547.593L984.515 542.592L979.883 534.816L977.527 537.74L981.007 544.057L987.799 557.178L986.197 571.454L985.412 590.175L990.313 590.287L993.141 573.152L996.398 590.681L1002.57 590.284L1001.63 571.454L1001.08 566.217L1003.27 562.61L1003.88 556.672L1000.28 549.145Z" fill="#04080D"/>
<path fill-rule="evenodd" clip-rule="evenodd" d="M700.087 473.139L711.228 471.584L718.166 479.776L724.114 473.124L724.588 475.349L719.004 484.382L712.563 481.17L714.168 495.446L714.953 514.17L710.052 514.279L707.224 497.147L703.968 514.676L697.793 514.279L698.734 495.446L701.878 479.782L696.577 484.832L697.567 493.077L695.043 494.455L693.286 484.292L700.087 473.139Z" fill="#04080D"/>
<path fill-rule="evenodd" clip-rule="evenodd" d="M572.286 381.678C575.666 381.678 578.41 384.509 578.41 387.992C578.41 391.475 575.666 394.306 572.286 394.306C568.906 394.306 566.155 391.478 566.155 387.992C566.155 384.506 568.899 381.678 572.286 381.678Z" fill="#04080D"/>
<path fill-rule="evenodd" clip-rule="evenodd" d="M517.608 399.391C520.989 399.391 523.733 402.218 523.733 405.704C523.733 409.19 520.989 412.024 517.608 412.024C514.228 412.024 511.48 409.194 511.48 405.711C511.48 402.228 514.225 399.397 517.608 399.397V399.391Z" fill="#04080D"/>
<path fill-rule="evenodd" clip-rule="evenodd" d="M854.354 382.035C857.735 382.035 860.482 384.863 860.482 388.352C860.482 391.841 857.735 394.663 854.354 394.663C850.974 394.663 848.227 391.835 848.227 388.352C848.227 384.869 850.971 382.035 854.354 382.035V382.035Z" fill="#04080D"/>
<path fill-rule="evenodd" clip-rule="evenodd" d="M996.836 534.816C1000.22 534.816 1002.96 537.647 1002.96 541.13C1002.96 544.613 1000.22 547.444 996.836 547.444C993.455 547.444 990.708 544.616 990.708 541.13C990.708 537.644 993.452 534.816 996.836 534.816Z" fill="#04080D"/>
<path fill-rule="evenodd" clip-rule="evenodd" d="M702.81 457.693C699.43 457.693 696.683 460.524 696.683 464.01C696.683 467.496 699.43 470.327 702.81 470.327C706.191 470.327 708.941 467.496 708.941 464.01C708.941 460.524 706.191 457.693 702.81 457.693Z" fill="#04080D"/>
<path fill-rule="evenodd" clip-rule="evenodd" d="M734.218 431.9H597.203V437.401H734.218V431.9Z" fill="#04080D"/>
<path fill-rule="evenodd" clip-rule="evenodd" d="M734.218 512.829H597.203V518.326H734.218V512.829Z" fill="#04080D"/>
<g filter="url(#filter0_d)">
<path fill-rule="evenodd" clip-rule="evenodd" d="M1321.44 278.848C1374.81 254.353 1397.83 190.219 1372.82 135.72C1347.8 81.2211 1284.16 56.8555 1230.79 81.3502C1265.03 85.5639 1304.4 114.203 1324.46 157.913C1344.52 201.622 1340.57 250.155 1321.44 278.848Z" fill="white"/>
</g>
<defs>
<filter id="filter0_d" x="1196.79" y="6.96896" width="255.343" height="309.879" filterUnits="userSpaceOnUse" color-interpolation-filters="sRGB">
<feFlood flood-opacity="0" result="BackgroundImageFix"/>
<feColorMatrix in="SourceAlpha" type="matrix" values="0 0 0 0 0 0 0 0 0 0 0 0 0 0 0 0 0 0 127 0" result="hardAlpha"/>
<feOffset dy="4"/>
<feGaussianBlur stdDeviation="17"/>
<feComposite in2="hardAlpha" operator="out"/>
<feColorMatrix type="matrix" values="0 0 0 0 1 0 0 0 0 1 0 0 0 0 1 0 0 0 1 0"/>
<feBlend mode="normal" in2="BackgroundImageFix" result="effect1_dropShadow"/>
<feBlend mode="normal" in="SourceGraphic" in2="effect1_dropShadow" result="shape"/>
</filter>
</defs>
</svg>
