<svg width="80" height="80" viewBox="0 0 80 80" fill="none" xmlns="http://www.w3.org/2000/svg">
<path d="M76.4062 10.4376H3.59375C2.93071 10.4376 2.29482 10.701 1.82598 11.1698C1.35714 11.6386 1.09375 12.2745 1.09375 12.9376V25.2132H78.9062V12.9376C78.9062 12.2745 78.6429 11.6386 78.174 11.1698C77.7052 10.701 77.0693 10.4376 76.4062 10.4376Z" fill="#A79BA7"/>
<path d="M1.09375 66.3125C1.09375 66.9755 1.35714 67.6114 1.82598 68.0803C2.29482 68.5491 2.93071 68.8125 3.59375 68.8125H76.4062C77.0693 68.8125 77.7052 68.5491 78.174 68.0803C78.6429 67.6114 78.9062 66.9755 78.9062 66.3125V25.2131H1.09375V66.3125Z" fill="#F5F8F9"/>
<path d="M9.79187 20.9501C11.5178 20.9501 12.9169 19.551 12.9169 17.8251C12.9169 16.0992 11.5178 14.7001 9.79187 14.7001C8.06598 14.7001 6.66687 16.0992 6.66687 17.8251C6.66687 19.551 8.06598 20.9501 9.79187 20.9501Z" fill="#918291"/>
<path d="M19.7919 20.9501C21.5178 20.9501 22.9169 19.551 22.9169 17.8251C22.9169 16.0992 21.5178 14.7001 19.7919 14.7001C18.066 14.7001 16.6669 16.0992 16.6669 17.8251C16.6669 19.551 18.066 20.9501 19.7919 20.9501Z" fill="#ADE194"/>
<path d="M29.7919 20.9501C31.5178 20.9501 32.9169 19.551 32.9169 17.8251C32.9169 16.0992 31.5178 14.7001 29.7919 14.7001C28.066 14.7001 26.6669 16.0992 26.6669 17.8251C26.6669 19.551 28.066 20.9501 29.7919 20.9501Z" fill="#FFBE2C"/>
<path d="M27.74 56.935L18.2013 47.3963L27.74 37.8569L31.2756 41.3932L25.2725 47.3963L31.2756 53.3994L27.74 56.935Z" fill="#FC30AB"/>
<path d="M52.26 56.935L48.7244 53.3994L54.7275 47.3963L48.7244 41.3932L52.26 37.8569L61.7981 47.3963L52.26 56.935Z" fill="#FC30AB"/>
<path d="M40.0389 32.8153L35.0375 61.1072L39.9612 61.9776L44.9626 33.6857L40.0389 32.8153Z" fill="#FFBE2C"/>
<path d="M76.4062 9.34381H3.59375C2.64098 9.34497 1.72757 9.72397 1.05386 10.3977C0.380156 11.0714 0.00115778 11.9848 0 12.9376L0 66.3126C0.00115778 67.2653 0.380156 68.1787 1.05386 68.8524C1.72757 69.5262 2.64098 69.9051 3.59375 69.9063H76.4062C77.359 69.9051 78.2724 69.5262 78.9461 68.8524C79.6198 68.1787 79.9988 67.2653 80 66.3126V12.9376C79.9988 11.9848 79.6198 11.0714 78.9461 10.3977C78.2724 9.72397 77.359 9.34497 76.4062 9.34381ZM76.4062 67.7188H3.59375C3.22089 67.7185 2.8634 67.5702 2.59975 67.3066C2.3361 67.0429 2.18783 66.6854 2.1875 66.3126V26.3063H44.9619C45.252 26.3063 45.5302 26.1911 45.7353 25.986C45.9404 25.7808 46.0556 25.5026 46.0556 25.2126C46.0556 24.9225 45.9404 24.6443 45.7353 24.4392C45.5302 24.234 45.252 24.1188 44.9619 24.1188H2.1875V12.9376C2.18783 12.5647 2.3361 12.2072 2.59975 11.9436C2.8634 11.6799 3.22089 11.5316 3.59375 11.5313H76.4062C76.7791 11.5316 77.1366 11.6799 77.4003 11.9436C77.6639 12.2072 77.8122 12.5647 77.8125 12.9376V24.1188H68.4375C68.1474 24.1188 67.8692 24.234 67.6641 24.4392C67.459 24.6443 67.3438 24.9225 67.3438 25.2126C67.3438 25.5026 67.459 25.7808 67.6641 25.986C67.8692 26.1911 68.1474 26.3063 68.4375 26.3063H77.8125V66.3126C77.8122 66.6854 77.6639 67.0429 77.4003 67.3066C77.1366 67.5702 76.7791 67.7185 76.4062 67.7188Z" fill="#091071"/>
<path d="M55.2744 26.3063H58.125C58.4151 26.3063 58.6933 26.191 58.8984 25.9859C59.1036 25.7808 59.2188 25.5026 59.2188 25.2125C59.2188 24.9224 59.1036 24.6442 58.8984 24.4391C58.6933 24.234 58.4151 24.1188 58.125 24.1188H55.2744C54.9843 24.1188 54.7061 24.234 54.501 24.4391C54.2959 24.6442 54.1807 24.9224 54.1807 25.2125C54.1807 25.5026 54.2959 25.7808 54.501 25.9859C54.7061 26.191 54.9843 26.3063 55.2744 26.3063Z" fill="#091071"/>
<path d="M9.79187 13.6064C8.95748 13.6064 8.14183 13.8538 7.44806 14.3174C6.75429 14.7809 6.21356 15.4398 5.89425 16.2107C5.57495 16.9816 5.4914 17.8298 5.65418 18.6482C5.81697 19.4665 6.21876 20.2182 6.80877 20.8082C7.39877 21.3982 8.15048 21.8 8.96883 21.9628C9.78719 22.1256 10.6354 22.0421 11.4063 21.7227C12.1772 21.4034 12.8361 20.8627 13.2996 20.1689C13.7632 19.4752 14.0106 18.6595 14.0106 17.8251C14.0093 16.7067 13.5644 15.6344 12.7735 14.8435C11.9826 14.0526 10.9103 13.6077 9.79187 13.6064ZM9.79187 19.8564C9.39013 19.8564 8.99741 19.7373 8.66337 19.5141C8.32933 19.2909 8.06898 18.9736 7.91524 18.6025C7.7615 18.2313 7.72128 17.8229 7.79965 17.4289C7.87803 17.0348 8.07149 16.6729 8.35556 16.3888C8.63964 16.1047 9.00157 15.9113 9.39559 15.8329C9.78962 15.7545 10.198 15.7948 10.5692 15.9485C10.9404 16.1022 11.2576 16.3626 11.4808 16.6966C11.704 17.0307 11.8231 17.4234 11.8231 17.8251C11.8225 18.3637 11.6082 18.8799 11.2275 19.2607C10.8467 19.6415 10.3304 19.8557 9.79187 19.8564Z" fill="#091071"/>
<path d="M19.7919 13.6064C18.9575 13.6064 18.1418 13.8538 17.4481 14.3174C16.7543 14.7809 16.2136 15.4398 15.8943 16.2107C15.5749 16.9816 15.4914 17.8298 15.6542 18.6482C15.817 19.4665 16.2188 20.2182 16.8088 20.8082C17.3988 21.3982 18.1505 21.8 18.9688 21.9628C19.7872 22.1256 20.6354 22.0421 21.4063 21.7227C22.1772 21.4034 22.8361 20.8627 23.2996 20.1689C23.7632 19.4752 24.0106 18.6595 24.0106 17.8251C24.0093 16.7067 23.5644 15.6344 22.7735 14.8435C21.9826 14.0526 20.9103 13.6077 19.7919 13.6064ZM19.7919 19.8564C19.3901 19.8564 18.9974 19.7373 18.6634 19.5141C18.3293 19.2909 18.069 18.9736 17.9152 18.6025C17.7615 18.2313 17.7213 17.8229 17.7997 17.4289C17.878 17.0348 18.0715 16.6729 18.3556 16.3888C18.6396 16.1047 19.0016 15.9113 19.3956 15.8329C19.7896 15.7545 20.198 15.7948 20.5692 15.9485C20.9404 16.1022 21.2576 16.3626 21.4808 16.6966C21.704 17.0307 21.8231 17.4234 21.8231 17.8251C21.8225 18.3637 21.6082 18.8799 21.2275 19.2607C20.8467 19.6415 20.3304 19.8557 19.7919 19.8564Z" fill="#091071"/>
<path d="M29.7919 13.6064C28.9575 13.6064 28.1418 13.8538 27.4481 14.3174C26.7543 14.7809 26.2136 15.4398 25.8943 16.2107C25.5749 16.9816 25.4914 17.8298 25.6542 18.6482C25.817 19.4665 26.2188 20.2182 26.8088 20.8082C27.3988 21.3982 28.1505 21.8 28.9688 21.9628C29.7872 22.1256 30.6354 22.0421 31.4063 21.7227C32.1772 21.4034 32.8361 20.8627 33.2996 20.1689C33.7632 19.4752 34.0106 18.6595 34.0106 17.8251C34.0093 16.7067 33.5644 15.6344 32.7735 14.8435C31.9826 14.0526 30.9103 13.6077 29.7919 13.6064ZM29.7919 19.8564C29.3901 19.8564 28.9974 19.7373 28.6634 19.5141C28.3293 19.2909 28.069 18.9736 27.9152 18.6025C27.7615 18.2313 27.7213 17.8229 27.7997 17.4289C27.878 17.0348 28.0715 16.6729 28.3556 16.3888C28.6396 16.1047 29.0016 15.9113 29.3956 15.8329C29.7896 15.7545 30.198 15.7948 30.5692 15.9485C30.9404 16.1022 31.2576 16.3626 31.4808 16.6966C31.704 17.0307 31.8231 17.4234 31.8231 17.8251C31.8225 18.3637 31.6082 18.8799 31.2275 19.2607C30.8467 19.6415 30.3304 19.8557 29.7919 19.8564Z" fill="#091071"/>
<path d="M32.3694 41.3932C32.3695 41.1031 32.2544 40.8248 32.0494 40.6195L28.5137 37.0838C28.3048 36.886 28.028 36.7758 27.7403 36.7758C27.4526 36.7758 27.1758 36.886 26.9669 37.0838L17.4281 46.6251C17.2231 46.8303 17.108 47.1085 17.108 47.3985C17.108 47.6886 17.2231 47.9668 17.4281 48.172L21.6487 52.3926C21.7496 52.4971 21.8703 52.5804 22.0037 52.6378C22.1371 52.6951 22.2807 52.7253 22.4259 52.7266C22.5711 52.7279 22.7151 52.7002 22.8496 52.6453C22.984 52.5903 23.1061 52.5091 23.2088 52.4065C23.3116 52.3038 23.3928 52.1817 23.4478 52.0473C23.5028 51.9129 23.5305 51.7688 23.5293 51.6236C23.5281 51.4784 23.4979 51.3349 23.4406 51.2014C23.3833 51.068 23.3 50.9472 23.1956 50.8463L19.75 47.3963L27.74 39.4038L29.7287 41.3932L24.5 46.6251C24.3983 46.7266 24.3177 46.8472 24.2627 46.9799C24.2076 47.1126 24.1793 47.2549 24.1793 47.3985C24.1793 47.5422 24.2076 47.6844 24.2627 47.8172C24.3177 47.9499 24.3983 48.0704 24.5 48.172L29.7294 53.402L26.9675 56.1638C26.7623 56.369 26.6471 56.6472 26.6471 56.9373C26.6471 57.2274 26.7623 57.5056 26.9675 57.7107C27.1726 57.9158 27.4508 58.0311 27.7409 58.0311C28.031 58.0311 28.3092 57.9158 28.5144 57.7107L32.05 54.1751C32.2549 53.97 32.3701 53.6919 32.3701 53.402C32.3701 53.112 32.2549 52.8339 32.05 52.6288L26.82 47.3988L32.05 42.1688C32.1517 42.0669 32.2322 41.946 32.287 41.8129C32.3418 41.6798 32.3698 41.5372 32.3694 41.3932Z" fill="#091071"/>
<path d="M53.0331 37.0838C52.8242 36.886 52.5474 36.7758 52.2597 36.7758C51.9719 36.7758 51.6952 36.886 51.4862 37.0838L47.9506 40.6195C47.8489 40.721 47.7683 40.8415 47.7133 40.9743C47.6583 41.107 47.6299 41.2492 47.6299 41.3929C47.6299 41.5366 47.6583 41.6788 47.7133 41.8115C47.7683 41.9442 47.8489 42.0648 47.9506 42.1663L53.1806 47.3963L47.9506 52.6251C47.849 52.7266 47.7683 52.8471 47.7133 52.9797C47.6583 53.1124 47.63 53.2546 47.63 53.3982C47.63 53.5418 47.6583 53.684 47.7133 53.8167C47.7683 53.9493 47.849 54.0699 47.9506 54.1713L51.4862 57.707C51.5877 57.8086 51.7083 57.8892 51.841 57.9443C51.9737 57.9993 52.116 58.0276 52.2597 58.0276C52.4033 58.0276 52.5456 57.9993 52.6783 57.9443C52.811 57.8892 52.9316 57.8086 53.0331 57.707L62.5718 48.1682C62.7768 47.963 62.892 47.6848 62.892 47.3948C62.892 47.1047 62.7768 46.8265 62.5718 46.6213L53.0331 37.0838ZM52.26 55.3882L50.2712 53.3995L55.5 48.1695C55.6016 48.0679 55.6823 47.9474 55.7373 47.8147C55.7923 47.6819 55.8206 47.5397 55.8206 47.396C55.8206 47.2524 55.7923 47.1101 55.7373 46.9774C55.6823 46.8447 55.6016 46.7241 55.5 46.6226L50.2706 41.3932L52.2593 39.4038L60.25 47.3963L52.26 55.3882Z" fill="#091071"/>
<path d="M45.1525 32.6081L40.2288 31.7381C40.0873 31.7131 39.9423 31.7161 39.802 31.7471C39.6617 31.7781 39.5289 31.8365 39.4112 31.9188C39.2935 32.0012 39.1931 32.106 39.1159 32.2271C39.0387 32.3483 38.9862 32.4835 38.9613 32.625L33.9613 60.9169C33.9362 61.0583 33.9392 61.2033 33.9702 61.3436C34.0011 61.4838 34.0594 61.6166 34.1417 61.7343C34.224 61.852 34.3287 61.9524 34.4498 62.0296C34.5709 62.1068 34.7061 62.1594 34.8475 62.1844L39.7713 63.055C39.9127 63.0801 40.0578 63.0771 40.1981 63.0461C40.3384 63.0151 40.4712 62.9567 40.5889 62.8743C40.7066 62.792 40.8069 62.6872 40.8841 62.566C40.9613 62.4449 41.0139 62.3097 41.0388 62.1681L46.0388 33.8763C46.0639 33.7348 46.0609 33.5898 46.0299 33.4495C45.999 33.3092 45.9407 33.1764 45.8584 33.0586C45.7761 32.9408 45.6714 32.8404 45.5503 32.7632C45.4291 32.6859 45.294 32.6332 45.1525 32.6081ZM39.075 60.71L36.3057 60.2206L40.925 34.0825L43.6944 34.5719L39.075 60.71Z" fill="#091071"/>
</svg>
