<svg width="80" height="80" viewBox="0 0 80 80" fill="none" xmlns="http://www.w3.org/2000/svg">
<g clip-path="url(#clip0)">
<path d="M75.4613 6.32928H4.53866C2.88144 6.32928 1.53799 7.67273 1.53799 9.32995V60.5926C1.53799 62.2498 2.88144 63.5933 4.53866 63.5933H75.4613C77.1186 63.5933 78.462 62.2498 78.462 60.5926V9.32995C78.462 7.67273 77.1186 6.32928 75.4613 6.32928Z" fill="#979FEF"/>
<path d="M73.55 11.2412H6.44935V52.8252H73.55V11.2412Z" fill="#F5F5F5"/>
<path d="M48.8387 63.5933H31.1613V74.3373H48.8387V63.5933Z" fill="#D7E9FF"/>
<path d="M75.462 63.5933H4.53799C3.74235 63.5933 2.97928 63.2772 2.41667 62.7146C1.85406 62.152 1.53799 61.3889 1.53799 60.5933V52.8246H78.462V60.5933C78.462 61.3889 78.1459 62.152 77.5833 62.7146C77.0207 63.2772 76.2576 63.5933 75.462 63.5933Z" fill="#EDF5FF"/>
<path d="M45.3447 34.7333L54.1947 43.5853C54.3683 43.7587 54.5061 43.9646 54.6001 44.1913C54.6941 44.4179 54.7425 44.6609 54.7425 44.9063C54.7425 45.1517 54.6941 45.3947 54.6001 45.6213C54.5061 45.848 54.3683 46.0539 54.1947 46.2273C54.0213 46.4011 53.8153 46.5389 53.5886 46.633C53.3619 46.727 53.1188 46.7754 52.8733 46.7754C52.6279 46.7754 52.3848 46.727 52.1581 46.633C51.9314 46.5389 51.7254 46.4011 51.552 46.2273L42.7027 37.378L45.3447 34.7333Z" fill="#FC30AB"/>
<path d="M36.3133 39.4013C42.419 39.4013 47.3687 34.4517 47.3687 28.346C47.3687 22.2403 42.419 17.2906 36.3133 17.2906C30.2077 17.2906 25.258 22.2403 25.258 28.346C25.258 34.4517 30.2077 39.4013 36.3133 39.4013Z" fill="#FFBE2C"/>
<path d="M36.3133 35.3499C40.1815 35.3499 43.3173 32.2142 43.3173 28.3459C43.3173 24.4777 40.1815 21.3419 36.3133 21.3419C32.4451 21.3419 29.3093 24.4777 29.3093 28.3459C29.3093 32.2142 32.4451 35.3499 36.3133 35.3499Z" fill="#EDF5FF"/>
<path d="M56.3927 7.49596H59.3927C59.7021 7.49596 59.9988 7.37304 60.2176 7.15425C60.4364 6.93546 60.5593 6.63871 60.5593 6.32929C60.5593 6.01988 60.4364 5.72313 60.2176 5.50434C59.9988 5.28554 59.7021 5.16263 59.3927 5.16263H56.3927C56.0832 5.16263 55.7865 5.28554 55.5677 5.50434C55.3489 5.72313 55.226 6.01988 55.226 6.32929C55.226 6.63871 55.3489 6.93546 55.5677 7.15425C55.7865 7.37304 56.0832 7.49596 56.3927 7.49596Z" fill="#091071"/>
<path d="M75.4613 5.16263H65.8287C65.5192 5.16263 65.2225 5.28554 65.0037 5.50434C64.7849 5.72313 64.662 6.01988 64.662 6.32929C64.662 6.63871 64.7849 6.93546 65.0037 7.15425C65.2225 7.37304 65.5192 7.49596 65.8287 7.49596H75.4613C75.9476 7.49649 76.4137 7.68989 76.7576 8.03371C77.1014 8.37754 77.2948 8.84372 77.2953 9.32996V51.658H74.7167V11.2413C74.7167 10.9319 74.5937 10.6351 74.375 10.4163C74.1562 10.1975 73.8594 10.0746 73.55 10.0746H6.45C6.14058 10.0746 5.84383 10.1975 5.62504 10.4163C5.40625 10.6351 5.28333 10.9319 5.28333 11.2413V51.658H2.70466V9.33329C2.70519 8.84705 2.89859 8.38087 3.24241 8.03705C3.58624 7.69322 4.05242 7.49982 4.53866 7.49929H50.234C50.5434 7.49929 50.8402 7.37638 51.059 7.15759C51.2777 6.93879 51.4007 6.64205 51.4007 6.33263C51.4007 6.02321 51.2777 5.72646 51.059 5.50767C50.8402 5.28888 50.5434 5.16596 50.234 5.16596H4.53866C3.43374 5.16702 2.37438 5.60642 1.59308 6.38771C0.811786 7.16901 0.372389 8.22837 0.37133 9.33329V60.6C0.372566 61.7048 0.812041 62.764 1.59332 63.5451C2.3746 64.3263 3.43386 64.7656 4.53866 64.7666H14.4113C14.7207 64.7666 15.0175 64.6437 15.2363 64.4249C15.4551 64.2061 15.578 63.9094 15.578 63.6C15.578 63.2905 15.4551 62.9938 15.2363 62.775C15.0175 62.5562 14.7207 62.4333 14.4113 62.4333H4.53866C4.05253 62.4328 3.58646 62.2395 3.24265 61.8958C2.89884 61.5521 2.70537 61.0861 2.70466 60.6V54H77.2953V60.6C77.2946 61.0861 77.1012 61.5521 76.7573 61.8958C76.4135 62.2395 75.9475 62.4328 75.4613 62.4333H20.6533C20.3439 62.4333 20.0472 62.5562 19.8284 62.775C19.6096 62.9938 19.4867 63.2905 19.4867 63.6C19.4867 63.9094 19.6096 64.2061 19.8284 64.4249C20.0472 64.6437 20.3439 64.7666 20.6533 64.7666H29.9947V73.1773H26.0353C25.7259 73.1773 25.4292 73.3002 25.2104 73.519C24.9916 73.7378 24.8687 74.0345 24.8687 74.344C24.8687 74.6534 24.9916 74.9501 25.2104 75.1689C25.4292 75.3877 25.7259 75.5106 26.0353 75.5106H53.9647C54.2741 75.5106 54.5708 75.3877 54.7896 75.1689C55.0084 74.9501 55.1313 74.6534 55.1313 74.344C55.1313 74.0345 55.0084 73.7378 54.7896 73.519C54.5708 73.3002 54.2741 73.1773 53.9647 73.1773H50.0053V64.76H75.4613C76.5661 64.7589 77.6254 64.3196 78.4067 63.5384C79.188 62.7573 79.6274 61.6981 79.6287 60.5933V9.33329C79.6285 8.2278 79.1895 7.16758 78.4081 6.38556C77.6267 5.60354 76.5668 5.16369 75.4613 5.16263ZM7.61666 12.408H72.3833V51.658H7.61666V12.408ZM47.672 73.1706H32.328V64.76H47.672V73.1706Z" fill="#091071"/>
<path d="M48.488 29.2753H65.8346C66.1441 29.2753 66.4408 29.1524 66.6596 28.9336C66.8784 28.7148 67.0013 28.418 67.0013 28.1086C67.0013 27.7992 66.8784 27.5025 66.6596 27.2837C66.4408 27.0649 66.1441 26.942 65.8346 26.942H48.448C48.2209 24.9616 47.5098 23.0677 46.3773 21.4273H65.8346C66.1441 21.4273 66.4408 21.3044 66.6596 21.0856C66.8784 20.8668 67.0013 20.57 67.0013 20.2606C67.0013 19.9512 66.8784 19.6545 66.6596 19.4357C66.4408 19.2169 66.1441 19.094 65.8346 19.094H44.2753C42.0649 17.1784 39.238 16.1239 36.313 16.1239C33.388 16.1239 30.5611 17.1784 28.3506 19.094H14.1653C13.8559 19.094 13.5592 19.2169 13.3404 19.4357C13.1216 19.6545 12.9986 19.9512 12.9986 20.2606C12.9986 20.57 13.1216 20.8668 13.3404 21.0856C13.5592 21.3044 13.8559 21.4273 14.1653 21.4273H26.2493C25.1167 23.0676 24.4053 24.9616 24.178 26.942H14.1653C13.8559 26.942 13.5592 27.0649 13.3404 27.2837C13.1216 27.5025 12.9986 27.7992 12.9986 28.1086C12.9986 28.418 13.1216 28.7148 13.3404 28.9336C13.5592 29.1524 13.8559 29.2753 14.1653 29.2753H24.138C24.2856 31.2332 24.9067 33.126 25.948 34.7906H14.1653C14.0121 34.7906 13.8604 34.8208 13.7189 34.8794C13.5773 34.9381 13.4487 35.024 13.3404 35.1323C13.232 35.2407 13.1461 35.3693 13.0875 35.5108C13.0288 35.6524 12.9986 35.8041 12.9986 35.9573C12.9986 36.1105 13.0288 36.2622 13.0875 36.4038C13.1461 36.5453 13.232 36.6739 13.3404 36.7823C13.4487 36.8906 13.5773 36.9765 13.7189 37.0352C13.8604 37.0938 14.0121 37.124 14.1653 37.124H27.832C29.7491 38.9901 32.2287 40.1711 34.8859 40.4836C37.543 40.796 40.2289 40.2225 42.5266 38.852L46.314 42.6386H14.1653C13.8559 42.6386 13.5592 42.7615 13.3404 42.9803C13.1216 43.1991 12.9986 43.4959 12.9986 43.8053C12.9986 44.1147 13.1216 44.4115 13.3404 44.6303C13.5592 44.849 13.8559 44.972 14.1653 44.972H48.6473L50.7273 47.0526C51.1472 47.4738 51.6817 47.7621 52.2643 47.8816C52.8468 48.0012 53.4517 47.9466 54.0035 47.7248C54.5552 47.5029 55.0295 47.1236 55.3672 46.6341C55.705 46.1446 55.8912 45.5666 55.9026 44.972H65.836C66.1454 44.972 66.4421 44.849 66.6609 44.6303C66.8797 44.4115 67.0026 44.1147 67.0026 43.8053C67.0026 43.4959 66.8797 43.1991 66.6609 42.9803C66.4421 42.7615 66.1454 42.6386 65.836 42.6386H54.9026L49.388 37.124H65.8393C66.1487 37.124 66.4455 37.001 66.6643 36.7823C66.8831 36.5635 67.006 36.2667 67.006 35.9573C67.006 35.6479 66.8831 35.3511 66.6643 35.1323C66.4455 34.9135 66.1487 34.7906 65.8393 34.7906H47.05L46.8186 34.56C47.7759 32.951 48.3473 31.1422 48.488 29.2753ZM26.4247 28.3466C26.4245 26.3908 27.0044 24.4789 28.0909 22.8526C29.1774 21.2263 30.7217 19.9588 32.5286 19.2102C34.3355 18.4617 36.3238 18.2657 38.2421 18.6472C40.1603 19.0287 41.9224 19.9705 43.3054 21.3534C44.6884 22.7363 45.6303 24.4983 46.0119 26.4165C46.3935 28.3348 46.1977 30.3231 45.4493 32.13C44.7009 33.937 43.4334 35.4814 41.8072 36.568C40.181 37.6547 38.2691 38.2346 36.3133 38.2346C33.6918 38.2315 31.1785 37.1887 29.3247 35.335C27.4709 33.4814 26.428 30.9682 26.4247 28.3466ZM53.37 45.4C53.2382 45.5316 53.0596 45.6056 52.8733 45.6056C52.687 45.6056 52.5084 45.5316 52.3766 45.4L49.956 42.9793L44.4333 37.456C44.7818 37.145 45.1126 36.8147 45.424 36.4666L45.7393 36.7813L45.744 36.7866L53.37 44.4106C53.5014 44.5422 53.5752 44.7206 53.5752 44.9066C53.5752 45.0926 53.5014 45.271 53.37 45.4026V45.4Z" fill="#091071"/>
<path d="M36.3133 20.176C34.6973 20.176 33.1176 20.6552 31.774 21.553C30.4303 22.4508 29.383 23.7269 28.7646 25.2199C28.1462 26.7128 27.9844 28.3557 28.2997 29.9406C28.6149 31.5256 29.3931 32.9815 30.5358 34.1242C31.6785 35.2669 33.1344 36.045 34.7193 36.3603C36.3043 36.6756 37.9471 36.5138 39.4401 35.8953C40.9331 35.2769 42.2092 34.2297 43.107 32.886C44.0048 31.5424 44.484 29.9626 44.484 28.3466C44.4815 26.1804 43.6199 24.1036 42.0881 22.5718C40.5564 21.0401 38.4796 20.1784 36.3133 20.176ZM36.3133 34.1833C35.1588 34.1833 34.0302 33.8409 33.0702 33.1995C32.1103 32.558 31.3621 31.6463 30.9203 30.5797C30.4785 29.513 30.3629 28.3393 30.5882 27.2069C30.8135 26.0746 31.3695 25.0345 32.186 24.2181C33.0024 23.4018 34.0426 22.8459 35.1749 22.6207C36.3073 22.3956 37.481 22.5112 38.5477 22.9532C39.6143 23.3951 40.5259 24.1434 41.1672 25.1034C41.8086 26.0634 42.1508 27.1921 42.1507 28.3466C42.1487 29.8941 41.5331 31.3777 40.4388 32.4719C39.3445 33.5661 37.8608 34.1815 36.3133 34.1833Z" fill="#091071"/>
</g>
<defs>
<clipPath id="clip0">
<rect width="80" height="70.6667" fill="white" transform="translate(0 5)"/>
</clipPath>
</defs>
</svg>
