<svg width="80" height="80" viewBox="0 0 80 80" fill="none" xmlns="http://www.w3.org/2000/svg">
<g clip-path="url(#clip0)">
<path d="M11.2435 39.5218C11.4003 34.3877 12.933 29.3899 15.6813 25.0505C18.4296 20.7112 22.2927 17.1894 26.8671 14.8531C31.4415 12.5168 36.5593 11.4517 41.686 11.7691C46.8126 12.0865 51.76 13.7747 56.0113 16.6574H51.0939C49.8672 16.6574 48.6908 17.1447 47.8234 18.0121C46.956 18.8795 46.4687 20.056 46.4687 21.2826C46.4687 22.5093 46.956 23.6858 47.8234 24.5532C48.6908 25.4206 49.8672 25.9079 51.0939 25.9079H66.5904C67.198 25.9082 67.7997 25.7888 68.3611 25.5565C68.9225 25.3242 69.4326 24.9836 69.8623 24.554C70.292 24.1245 70.6329 23.6145 70.8654 23.0532C71.0979 22.4918 71.2175 21.8902 71.2174 21.2826V5.78698C71.2258 5.1742 71.1124 4.56585 70.8837 3.99727C70.655 3.4287 70.3156 2.91123 69.8852 2.47492C69.4548 2.03862 68.9421 1.69217 68.3767 1.45571C67.8113 1.21924 67.2046 1.09747 66.5917 1.09747C65.9789 1.09747 65.3722 1.21924 64.8068 1.45571C64.2414 1.69217 63.7286 2.03862 63.2982 2.47492C62.8679 2.91123 62.5285 3.4287 62.2998 3.99727C62.0711 4.56585 61.9577 5.1742 61.9661 5.78698V9.53568C56.3749 5.5402 49.8033 3.13875 42.9534 2.58789C36.1035 2.03702 29.2326 3.35744 23.0748 6.40808C16.917 9.45872 11.7037 14.125 7.99176 19.9083C4.27986 25.6916 2.20885 32.3746 2 39.2435C1.96324 40.4698 2.41513 41.6605 3.25627 42.5537C4.0974 43.4468 5.25889 43.9693 6.48521 44.0061C6.53217 44.0061 6.58 44.0061 6.62695 44.0061C7.82798 44.004 8.98111 43.5349 9.84261 42.6981C10.7041 41.8612 11.2065 40.7222 11.2435 39.5218Z" fill="#091071"/>
<path d="M73.5217 36.6191C72.9144 36.5999 72.3093 36.7006 71.7409 36.9155C71.1726 37.1305 70.6522 37.4554 70.2096 37.8717C69.7669 38.2879 69.4108 38.7874 69.1614 39.3416C68.9121 39.8957 68.7745 40.4935 68.7565 41.1009C68.5974 46.2338 67.0632 51.2298 64.314 55.5673C61.5649 59.9047 57.7016 63.4246 53.1277 65.7593C48.5537 68.094 43.4369 69.1578 38.3114 68.8398C33.1859 68.5218 28.2398 66.8335 23.9896 63.9513H28.907C30.1336 63.9513 31.3101 63.464 32.1775 62.5966C33.0449 61.7292 33.5322 60.5528 33.5322 59.3261C33.5322 58.0994 33.0449 56.923 32.1775 56.0556C31.3101 55.1882 30.1336 54.7009 28.907 54.7009H13.4104C12.8028 54.7004 12.201 54.8197 11.6395 55.052C11.078 55.2842 10.5678 55.6248 10.138 56.0544C9.70818 56.4839 9.36726 56.994 9.1347 57.5554C8.90214 58.1167 8.78249 58.7185 8.78261 59.3261V74.8261C8.77421 75.4389 8.88765 76.0472 9.11634 76.6158C9.34503 77.1844 9.68441 77.7018 10.1148 78.1382C10.5451 78.5745 11.0579 78.9209 11.6233 79.1574C12.1887 79.3938 12.7954 79.5156 13.4083 79.5156C14.0211 79.5156 14.6278 79.3938 15.1932 79.1574C15.7586 78.9209 16.2714 78.5745 16.7017 78.1382C17.1321 77.7018 17.4715 77.1844 17.7002 76.6158C17.9289 76.0472 18.0423 75.4389 18.0339 74.8261V71.0731C23.6238 75.0682 30.1938 77.47 37.0424 78.022C43.891 78.5739 50.7609 77.2552 56.9184 74.2068C63.0759 71.1584 68.2897 66.4946 72.003 60.7137C75.7164 54.9328 77.7898 48.2519 78.0017 41.3844C78.039 40.1585 77.588 38.968 76.748 38.0745C75.908 37.181 74.7475 36.6575 73.5217 36.6191Z" fill="#FFBE2C"/>
<path d="M12.7652 39.5678C12.9023 35.1921 14.0942 30.9142 16.2395 27.098C18.3848 23.2818 21.4201 20.0403 25.0872 17.649C28.7543 15.2577 32.9447 13.7875 37.302 13.3634C41.6593 12.9393 46.0545 13.5738 50.1139 15.2131C48.5889 15.4601 47.2129 16.2723 46.2595 17.4879C45.3062 18.7035 44.8455 20.2335 44.969 21.7734C45.0925 23.3133 45.7913 24.7502 46.9262 25.7983C48.0611 26.8464 49.5491 27.4288 51.0939 27.4296H66.5896C68.2194 27.428 69.7821 26.7799 70.9347 25.6275C72.0872 24.4751 72.7356 22.9125 72.7374 21.2826V5.78698C72.7471 4.97354 72.5952 4.16627 72.2906 3.41195C71.986 2.65763 71.5347 1.97126 70.963 1.39262C70.3912 0.813984 69.7102 0.354579 68.9596 0.0410345C68.2089 -0.27251 67.4035 -0.43396 66.59 -0.43396C65.7765 -0.43396 64.9711 -0.27251 64.2205 0.0410345C63.4698 0.354579 62.7889 0.813984 62.2171 1.39262C61.6453 1.97126 61.194 2.65763 60.8894 3.41195C60.5848 4.16627 60.4329 4.97354 60.4426 5.78698V6.70002C54.5471 3.10806 47.8123 1.12579 40.911 0.951201C34.0096 0.776615 27.1832 2.41582 21.1137 5.7051C15.0441 8.99438 9.94374 13.8186 6.32208 19.6959C2.70041 25.5732 0.68419 32.2979 0.474787 39.1983C0.427448 40.826 1.02725 42.4061 2.14278 43.5923C3.2583 44.7786 4.79857 45.4743 6.42609 45.527H6.62261C8.22215 45.5334 9.76066 44.9134 10.9087 43.7996C12.0568 42.6858 12.7232 41.1669 12.7652 39.5678ZM6.62261 42.487H6.52696C5.70429 42.4615 4.9253 42.1108 4.36093 41.5117C3.79655 40.9126 3.49287 40.1141 3.51653 39.2913C3.7159 32.6976 5.70308 26.2819 9.26571 20.7298C12.8283 15.1778 17.8325 10.6981 23.7436 7.76934C29.6546 4.84063 36.2503 3.57299 42.8258 4.10189C49.4013 4.63079 55.7096 6.93635 61.0765 10.7722C61.3039 10.9356 61.572 11.033 61.8512 11.0538C62.1305 11.0746 62.41 11.018 62.6591 10.8902C62.9082 10.7623 63.1173 10.5682 63.2632 10.3293C63.4091 10.0903 63.4862 9.81568 63.4861 9.53568V5.78698C63.4792 5.375 63.5544 4.96576 63.7073 4.58314C63.8602 4.20051 64.0877 3.85215 64.3766 3.55837C64.6655 3.26458 65.01 3.03125 65.39 2.87198C65.7701 2.7127 66.178 2.63068 66.59 2.63068C67.002 2.63068 67.41 2.7127 67.79 2.87198C68.17 3.03125 68.5145 3.26458 68.8034 3.55837C69.0923 3.85215 69.3198 4.20051 69.4727 4.58314C69.6256 4.96576 69.7008 5.375 69.6939 5.78698V21.2826C69.693 22.1056 69.3656 22.8946 68.7836 23.4764C68.2016 24.0583 67.4125 24.3854 66.5896 24.3861H51.0939C50.6864 24.3861 50.2828 24.3058 49.9063 24.1499C49.5297 23.9939 49.1876 23.7653 48.8994 23.4771C48.6112 23.1889 48.3826 22.8468 48.2267 22.4703C48.0707 22.0938 47.9904 21.6902 47.9904 21.2826C47.9904 20.8751 48.0707 20.4715 48.2267 20.095C48.3826 19.7184 48.6112 19.3763 48.8994 19.0881C49.1876 18.8 49.5297 18.5714 49.9063 18.4154C50.2828 18.2594 50.6864 18.1792 51.0939 18.1792H56.0113C56.3372 18.1795 56.6546 18.0753 56.9168 17.8819C57.1791 17.6884 57.3724 17.4159 57.4682 17.1045C57.5641 16.793 57.5575 16.459 57.4494 16.1516C57.3414 15.8442 57.1375 15.5795 56.8678 15.3965C52.3911 12.3596 47.1808 10.5807 41.7814 10.2459C36.3821 9.91113 30.992 11.0327 26.1743 13.4933C21.3567 15.9539 17.2883 19.6634 14.3944 24.2339C11.5005 28.8045 9.88737 34.0685 9.72348 39.4757C9.7028 40.2833 9.36667 41.0508 8.78708 41.6136C8.20748 42.1765 7.43052 42.49 6.62261 42.487Z" fill="#091071"/>
<path d="M70.9452 62.3408C70.6272 62.0923 70.2236 61.9801 69.8229 62.0291C69.4223 62.078 69.0575 62.2839 68.8087 62.6017C68.5768 62.8985 68.3394 63.1924 68.0965 63.4834C67.8551 63.7953 67.7442 64.1886 67.7871 64.5806C67.83 64.9726 68.0235 65.3326 68.3266 65.5848C68.6298 65.837 69.019 65.9617 69.4122 65.9326C69.8055 65.9034 70.1721 65.7228 70.4348 65.4287C70.6956 65.1145 70.9516 64.7974 71.2026 64.4774C71.4515 64.1598 71.5643 63.7564 71.516 63.3558C71.4677 62.9552 71.2624 62.5902 70.9452 62.3408Z" fill="#091071"/>
<path d="M73.5652 35.0983C71.9391 35.0595 70.3631 35.6629 69.1787 36.7778C67.9943 37.8927 67.2969 39.4293 67.2374 41.0548C67.0981 45.4296 65.9045 49.7061 63.7581 53.5207C61.6116 57.3352 58.5758 60.5751 54.9088 62.9648C51.2417 65.3546 47.0518 66.8235 42.6953 67.2467C38.3388 67.6699 33.9446 67.0349 29.8861 65.3957C31.411 65.1487 32.787 64.3366 33.7403 63.1211C34.6937 61.9056 35.1545 60.3757 35.0311 58.8359C34.9077 57.296 34.2091 55.8591 33.0743 54.8109C31.9395 53.7628 30.4517 53.1802 28.907 53.1792H13.4113C11.7814 53.1808 10.2186 53.8289 9.06592 54.9813C7.91322 56.1336 7.26469 57.6962 7.26262 59.3261V74.8261C7.26262 75.6335 7.42164 76.4329 7.73059 77.1788C8.03955 77.9247 8.4924 78.6024 9.06328 79.1733C9.63415 79.7442 10.3119 80.197 11.0578 80.506C11.8037 80.815 12.6031 80.974 13.4104 80.974C14.2178 80.974 15.0172 80.815 15.7631 80.506C16.509 80.197 17.1867 79.7442 17.7576 79.1733C18.3285 78.6024 18.7813 77.9247 19.0903 77.1788C19.3993 76.4329 19.5583 75.6335 19.5583 74.8261V73.914C26.3536 78.0512 34.2403 80.0391 42.1848 79.6172C50.1293 79.1953 57.7611 76.3833 64.08 71.5496C64.2425 71.4294 64.3794 71.278 64.4827 71.1042C64.586 70.9305 64.6537 70.7379 64.6817 70.5377C64.7098 70.3375 64.6977 70.1338 64.6461 69.9383C64.5946 69.7429 64.5046 69.5596 64.3814 69.3993C64.2583 69.2391 64.1044 69.1049 63.9289 69.0047C63.7533 68.9046 63.5595 68.8404 63.3589 68.8159C63.1582 68.7914 62.9547 68.8072 62.7602 68.8623C62.5657 68.9173 62.3842 69.0106 62.2261 69.1366C56.034 73.8736 48.4853 76.4986 40.6901 76.6256C32.895 76.7525 25.2648 74.3747 18.9217 69.8418C18.6944 69.6785 18.4264 69.581 18.1473 69.5602C17.8681 69.5393 17.5886 69.5959 17.3395 69.7236C17.0905 69.8514 16.8814 70.0453 16.7355 70.2842C16.5895 70.523 16.5122 70.7975 16.5122 71.0774V74.8261C16.5122 75.6495 16.1851 76.4391 15.6029 77.0213C15.0208 77.6034 14.2312 77.9305 13.4078 77.9305C12.5845 77.9305 11.7949 77.6034 11.2127 77.0213C10.6306 76.4391 10.3035 75.6495 10.3035 74.8261V59.3261C10.3046 58.5031 10.6322 57.7141 11.2144 57.1323C11.7965 56.5505 12.5857 56.2234 13.4087 56.2227H28.9044C29.7275 56.2227 30.5168 56.5496 31.0988 57.1317C31.6809 57.7137 32.0078 58.5031 32.0078 59.3261C32.0078 60.1492 31.6809 60.9386 31.0988 61.5206C30.5168 62.1027 29.7275 62.4296 28.9044 62.4296H23.9896C23.6636 62.4291 23.3461 62.5331 23.0837 62.7265C22.8213 62.9199 22.6279 63.1924 22.5319 63.5039C22.4359 63.8154 22.4424 64.1495 22.5505 64.457C22.6586 64.7645 22.8624 65.0292 23.1322 65.2122C27.6077 68.2485 32.8164 70.0273 38.2142 70.3629C43.612 70.6985 49.0009 69.5786 53.818 67.1201C58.6351 64.6616 62.7037 60.9547 65.5989 56.3867C68.494 51.8186 70.1095 46.557 70.2765 41.1514C70.2827 40.7419 70.3711 40.3378 70.5364 39.9631C70.7018 39.5884 70.9407 39.2508 71.2389 38.9702C71.5372 38.6896 71.8888 38.4717 72.2729 38.3296C72.657 38.1874 73.0657 38.1239 73.4748 38.1427C74.2974 38.1688 75.0761 38.5201 75.6401 39.1194C76.2041 39.7188 76.5074 40.5174 76.4835 41.3401C76.3476 46.0744 75.284 50.7361 73.3531 55.0609C73.268 55.2439 73.2201 55.4419 73.2122 55.6435C73.2044 55.8452 73.2367 56.0463 73.3073 56.2353C73.3779 56.4243 73.4854 56.5974 73.6235 56.7445C73.7617 56.8916 73.9277 57.0097 74.1119 57.0921C74.2961 57.1744 74.4948 57.2193 74.6965 57.2241C74.8982 57.2289 75.0989 57.1935 75.2868 57.1201C75.4748 57.0466 75.6462 56.9365 75.7912 56.7962C75.9361 56.6559 76.0518 56.4881 76.1313 56.3027C78.226 51.6163 79.3803 46.5642 79.5287 41.4331C79.5767 39.8026 78.9757 38.2197 77.8576 37.0319C76.7394 35.8442 75.1957 35.1488 73.5652 35.0983Z" fill="#091071"/>
</g>
<defs>
<clipPath id="clip0">
<rect width="80" height="80" fill="white"/>
</clipPath>
</defs>
</svg>
