<svg width="80" height="91" viewBox="0 0 80 91" fill="none" xmlns="http://www.w3.org/2000/svg">
<g clip-path="url(#clip0)">
<path d="M69.923 17.6151C69.8709 17.1374 69.4453 16.9245 69.1283 16.9245C68.8113 16.9245 61.8604 16.3947 61.8604 16.3947C61.8604 16.3947 57.0332 11.5675 56.4491 11.0898C55.9192 10.56 54.9094 10.7185 54.486 10.8249C54.434 10.8249 53.4242 11.1442 51.7804 11.674C50.1366 6.95094 47.3245 2.65359 42.2845 2.65359H41.8068C40.4234 0.849057 38.6211 0 37.1359 0C25.4642 0 19.84 14.5902 18.0898 22.0189C13.5275 23.4521 10.2898 24.4053 9.91849 24.566C7.37132 25.3608 7.31924 25.4151 7 27.8015C6.73509 29.606 0.103394 80.9094 0.103394 80.9094L51.726 90.5661L79.7404 84.5185C79.7924 84.4121 69.9774 18.0928 69.923 17.6151ZM48.914 12.4143C47.6415 12.7857 46.1019 13.2634 44.5645 13.7932V12.84C44.5645 9.97585 44.1932 7.64151 43.5026 5.78264C46.154 6.10189 47.8 9.02038 48.914 12.4143ZM40.2649 6.36679C40.9555 8.17132 41.4332 10.7185 41.4332 14.2189V14.7487C38.5691 15.6498 35.5442 16.5532 32.4128 17.5608C34.163 10.877 37.5072 7.58717 40.2649 6.36679ZM36.8687 3.07698C37.3985 3.07698 37.9306 3.28981 38.354 3.60679C34.5864 5.35698 30.6083 9.76076 28.9623 18.6747C26.4694 19.4694 24.0808 20.16 21.8008 20.9026C23.7117 14.1125 28.4868 3.07698 36.8687 3.07698Z" fill="#091071"/>
<path d="M69.1283 16.8181C68.809 16.8181 61.8604 16.2883 61.8604 16.2883C61.8604 16.2883 57.0332 11.4612 56.449 10.9834C56.234 10.7706 55.969 10.6642 55.7585 10.6642L51.8845 90.566L79.8989 84.5185C79.8989 84.5185 70.0838 18.0929 70.0294 17.6151C69.8166 17.1374 69.4453 16.9246 69.1283 16.8181Z" fill="#091071"/>
<path d="M41.7932 33.0408L38.4536 43.114C38.4536 43.114 35.4264 41.4951 31.8264 41.4951C26.4513 41.4951 26.1909 44.8868 26.1909 45.7223C26.1909 50.314 38.1932 52.0891 38.1932 62.8914C38.1932 71.3978 32.8181 76.877 25.5638 76.877C16.797 76.877 12.4136 71.4499 12.4136 71.4499L14.7615 63.7268C14.7615 63.7268 19.3532 67.6936 23.2158 67.6936C25.7721 67.6936 26.8158 65.7102 26.8158 64.2499C26.8158 58.2476 17.0053 57.9872 17.0053 48.0725C17.0053 39.7744 22.9555 31.7389 35.0098 31.7389C39.4951 31.6846 41.7932 33.0408 41.7932 33.0408Z" fill="white"/>
</g>
<defs>
<clipPath id="clip0">
<rect width="80" height="90.5661" fill="white"/>
</clipPath>
</defs>
</svg>
