<svg width="60" height="70" viewBox="0 0 60 70" fill="none" xmlns="http://www.w3.org/2000/svg">
<g clip-path="url(#clip0)">
<path d="M30 69.4737C13.4211 69.4737 0 56.2105 0 40.1053C0 27.3158 8.36842 15.9474 20.8421 12.1579C23.5263 11.2105 25.5789 5.36842 26.0526 3.63158L26.8421 0L28.8947 3C30.6316 5.68421 33.9474 10.8947 36.1579 11.2105C49.8947 14.0526 60 26.2105 60 40.1053C60 56.2105 46.5789 69.4737 30 69.4737Z" fill="#091071"/>
<path d="M38.6842 52.4211C39.6316 52.4211 40.7368 52.4211 41.5263 52.8948C42.3158 53.3685 42.7895 54.4737 42.9473 55.1053C43.2631 55.7369 42.9473 56.0527 42.4737 56.3685C42 56.6843 42 56.5264 41.5263 55.7369C41.0526 54.9474 40.7368 54.1579 38.5263 54.1579C36.3158 54.1579 35.6842 54.9474 34.5789 55.7369C33.4737 56.5264 33.1579 56.8421 32.8421 56.3685C32.5263 55.8948 32.5263 55.4211 33.3158 54.7895C33.9474 54.1579 35.0526 53.2106 36.1579 52.7369C37.1052 52.2632 37.7368 52.4211 38.6842 52.4211ZM28.2631 59.3685C29.5263 60.3158 31.421 61.1053 35.3684 61.1053C39.3158 61.1053 42.1579 60 43.421 59.0527C44.0526 58.579 44.2105 59.0527 44.3684 59.2106C44.3684 59.5264 44.5263 59.8421 44.0526 60.3158C43.7368 60.6316 40.8947 62.5264 37.421 62.8421C34.1052 63.1579 29.5263 63.3158 26.6842 60.9474C26.2105 60.4737 26.3684 59.8421 26.6842 59.6842C27 59.3685 27.3158 59.2106 27.6316 59.2106C27.9474 59.2106 28.1052 59.2106 28.2631 59.3685ZM14.2105 46.7369C14.2105 42.1579 18.7895 37.8948 24.6316 37.8948C31.8947 37.8948 37.1052 44.6843 40.7368 44.5264C43.8947 44.5264 49.8947 38.6842 52.8947 38.6842C56.0526 38.6842 56.8421 41.6842 56.8421 43.579C56.8421 45.3158 56.2105 48.6316 54.6316 50.6842C53.0526 52.7369 52.2631 53.5264 50.3684 53.3685C48.1579 53.2106 43.5789 46.7369 40.7368 46.579C37.1052 46.4211 29.2105 53.6842 23.0526 53.6842C19.2631 53.6842 18.1579 53.2106 16.8947 52.4211C15.1579 51.1579 14.2105 49.2632 14.2105 46.7369Z" fill="white"/>
</g>
<defs>
<clipPath id="clip0">
<rect width="60" height="69.6" fill="white"/>
</clipPath>
</defs>
</svg>
