<svg width="40" height="63" viewBox="0 0 40 63" fill="none" xmlns="http://www.w3.org/2000/svg">
<path d="M8.88889 62.2222C3.98 62.2222 0 58.2422 0 53.3333C0 48.4244 3.98 44.4444 8.88889 44.4444H15.2378C16.64 44.4444 17.7778 45.5822 17.7778 46.9844V53.3333C17.7778 58.2422 13.7978 62.2222 8.88889 62.2222ZM31.1111 17.7778H24.7622C23.36 17.7778 22.2222 16.64 22.2222 15.2378V2.54C22.2222 1.13778 23.36 0 24.7622 0H31.1111C36.02 0 40 3.98 40 8.88889C40 13.7978 36.02 17.7778 31.1111 17.7778ZM8.88889 0H15.2378C16.64 0 17.7778 1.13778 17.7778 2.54V15.2378C17.7778 16.64 16.64 17.7778 15.2378 17.7778H8.88889C3.98 17.7778 0 13.7978 0 8.88889C0 3.98 3.98 0 8.88889 0ZM8.88889 22.2222H15.2378C16.64 22.2222 17.7778 23.36 17.7778 24.7622V37.46C17.7778 38.8622 16.64 40 15.2378 40H8.88889C3.98 40 0 36.02 0 31.1111C0 26.2022 3.98 22.2222 8.88889 22.2222ZM31.1111 22.2222C28.7536 22.2222 26.4927 23.1587 24.8257 24.8257C23.1587 26.4927 22.2222 28.7536 22.2222 31.1111C22.2222 33.4686 23.1587 35.7295 24.8257 37.3965C26.4927 39.0635 28.7536 40 31.1111 40C33.4686 40 35.7295 39.0635 37.3965 37.3965C39.0635 35.7295 40 33.4686 40 31.1111C40 28.7536 39.0635 26.4927 37.3965 24.8257C35.7295 23.1587 33.4686 22.2222 31.1111 22.2222Z" fill="#091071"/>
</svg>
