<svg width="100" height="69" viewBox="0 0 100 69" fill="none" xmlns="http://www.w3.org/2000/svg">
<path d="M23.9765 61.7221H20.1249C19.9943 55.2137 19.6164 49.0988 18.9913 43.3777L13.1099 61.7221H10.1841L4.35613 43.3777C3.90113 48.8812 3.61824 54.996 3.50746 61.7221H0C0.225522 53.5361 0.793283 45.8644 1.70328 38.707H6.45111L12.0061 55.5974L17.5966 38.707H22.1546C23.1595 47.087 23.753 54.7507 23.935 61.6984" fill="#091071"/>
<path d="M40.6652 44.7367C39.0825 53.2353 37.0153 59.4134 34.4633 63.271C32.4573 66.2384 30.2674 67.7221 27.8935 67.7221C27.0715 67.6781 26.2656 67.4767 25.5196 67.1286V65.1049C26.0487 65.1763 26.5822 65.21 27.116 65.2058C28.0982 65.2509 29.0609 64.9222 29.8104 64.2859C30.1832 63.9778 30.4853 63.5931 30.6963 63.1578C30.9072 62.7226 31.0221 62.2471 31.033 61.7636C30.8755 60.4245 30.5566 59.1093 30.0834 57.8466L25.8816 44.7367H29.6739L32.6947 54.541C33.3713 56.7724 33.6542 58.3293 33.5434 59.2116C35.261 54.5381 36.4281 49.6804 37.0212 44.7367H40.6652Z" fill="#091071"/>
<path d="M91.8824 61.6984H80.9505V38.707H84.6301V58.8675H91.8824V61.6984Z" fill="#F29111"/>
<path fill-rule="evenodd" clip-rule="evenodd" d="M78.0899 62.2502L73.8643 60.1671C74.2479 59.8588 74.6016 59.5151 74.9207 59.1404C76.713 57.0316 77.6112 53.9099 77.6151 49.7753C77.6151 42.1709 74.6299 38.3687 68.6595 38.3687C65.7278 38.3687 63.4448 39.334 61.8108 41.2648C60.0185 43.3697 59.1223 46.4795 59.1223 50.5943C59.1223 54.6379 59.9136 57.6053 61.4963 59.4965C62.9523 61.1978 65.1442 62.0485 68.072 62.0485C69.0891 62.0579 70.1023 61.922 71.0809 61.6449L76.5825 64.8497L78.0899 62.2502ZM64.3984 57.0988C63.4646 55.5993 62.9997 53.1937 63.0037 49.8821C63.0037 44.0898 64.7624 41.1936 68.2797 41.1936C69.0801 41.1408 69.8798 41.306 70.5936 41.6718C71.3074 42.0376 71.9086 42.5903 72.3332 43.2708C73.2669 44.7743 73.7338 47.1482 73.7338 50.3925C73.7338 56.2284 71.9731 59.1463 68.4518 59.1463C67.6514 59.1998 66.8514 59.0348 66.1375 58.669C65.4235 58.3031 64.8224 57.7502 64.3984 57.0692" fill="#F29111"/>
<path d="M57.52 55.3243C57.5431 56.2342 57.3621 57.1378 56.9903 57.9686C56.6186 58.7994 56.0654 59.5365 55.3716 60.1255C53.9433 61.3718 52.0263 61.997 49.6208 62.0009C47.2768 61.9658 44.9993 61.2163 43.0925 59.8525L44.0777 57.8763C45.597 58.7041 47.2866 59.1711 49.0154 59.2413C50.172 59.3086 51.3177 58.9846 52.2677 58.3214C52.6589 58.026 52.975 57.6427 53.1905 57.2024C53.406 56.7622 53.5148 56.2773 53.508 55.7872C53.508 54.4222 52.5585 53.2531 50.8077 52.2798C49.1994 51.3895 45.9768 49.5438 45.9768 49.5438C44.1964 48.2738 43.3536 46.9028 43.3536 44.6536C43.3233 43.8025 43.4834 42.9553 43.8223 42.174C44.1611 41.3926 44.6701 40.6968 45.3121 40.1372C46.724 38.953 48.5274 38.3392 50.3685 38.4161C52.4355 38.3976 54.4616 38.9924 56.1906 40.1253L55.3003 42.0957C53.9061 41.4829 52.4018 41.1598 50.8789 41.1461C49.8968 41.0788 48.925 41.3816 48.1549 41.9948C47.8372 42.2591 47.5804 42.5891 47.4022 42.9619C47.2239 43.3348 47.1284 43.7418 47.1222 44.155C47.1222 45.52 48.0955 46.7011 49.8938 47.7159C51.5258 48.5824 54.8256 50.4459 54.8256 50.4459C56.606 51.7219 57.52 53.075 57.52 55.3065" fill="#F29111"/>
<path fill-rule="evenodd" clip-rule="evenodd" d="M96.4996 31.0095C94.6684 30.8785 92.8304 31.1437 91.1108 31.787C90.6954 31.9532 90.0248 31.9532 89.9714 32.4813C90.191 32.7009 90.2206 33.0748 90.4165 33.3716C90.797 34.0137 91.2848 34.5858 91.8586 35.063C92.4521 35.5081 93.0456 35.9532 93.6391 36.339C94.7192 37.0096 95.9418 37.3954 96.9982 38.066C97.5916 38.4517 98.2207 38.9503 98.832 39.3716C99.1347 39.5912 99.3305 39.9651 99.7222 40.0897V40.0067C99.5264 39.7574 99.467 39.4132 99.2771 39.1164L98.4403 38.3152C97.6279 37.2356 96.6529 36.2886 95.5501 35.5081C94.6598 34.9146 92.7132 34.06 92.3512 33.0392L92.2978 32.9799C92.9487 32.8886 93.5902 32.7396 94.2147 32.5348C95.1584 32.2855 95.9952 32.3389 96.9922 32.0897C97.4373 31.9769 97.8824 31.8404 98.3275 31.7039V31.4546C97.8231 30.9561 97.467 30.2677 96.9388 29.8166C95.5008 28.5614 93.967 27.4204 92.3512 26.4041C91.4907 25.8463 90.3809 25.4842 89.461 25.0154C89.1346 24.8492 88.5767 24.7661 88.3808 24.4872C87.9252 23.8139 87.5431 23.0937 87.2414 22.3388C86.4402 20.8136 85.6568 19.1221 84.9624 17.5079C84.5545 16.4246 84.0828 15.3663 83.5499 14.3387C80.6834 9.62055 77.5736 6.75998 72.7961 3.95283C71.6676 3.41014 70.4692 3.02665 69.2352 2.81335C68.5349 2.81335 67.8405 2.73027 67.1462 2.70059C66.697 2.41139 66.2722 2.08587 65.8761 1.72729C64.2915 0.730243 60.2084 -1.43595 59.0452 1.42461C58.2915 3.20505 60.155 4.98548 60.796 5.92318C61.3304 6.5722 61.8033 7.26958 62.2084 8.00629C62.4043 8.48107 62.4577 8.9796 62.6535 9.47812C63.0579 10.7487 63.5396 11.9933 64.0957 13.2052C64.3928 13.8046 64.7361 14.38 65.1224 14.9263C65.342 15.2289 65.7159 15.3654 65.8168 15.8699C65.4251 16.4218 65.3954 17.2586 65.1758 17.953C64.1788 21.0925 64.5823 24.9798 65.983 27.2825C66.4281 27.9768 67.4845 29.508 68.8969 28.9205C70.1492 28.422 69.8702 26.8433 70.2323 25.4546C70.3153 25.1163 70.2323 24.8967 70.4281 24.6771V24.7305C70.8139 25.508 71.2056 26.2558 71.5676 27.0332C72.5559 28.465 73.7753 29.7225 75.1759 30.7543C75.8406 31.2588 76.3629 32.1193 77.2056 32.422V32.3389H77.1522C76.9678 32.1257 76.754 31.9399 76.5172 31.787C75.9914 31.2701 75.5072 30.7124 75.0691 30.1193C73.8936 28.5233 72.8534 26.832 71.9593 25.0629C71.5142 24.2023 71.1284 23.2824 70.7723 22.3981C70.6062 22.0658 70.6062 21.5613 70.3272 21.3952C69.8137 21.973 69.3659 22.6059 68.9919 23.2824C68.4637 24.4694 68.3984 25.9531 68.2144 27.4783C68.1017 27.508 68.161 27.4783 68.1017 27.5317C67.2174 27.3121 66.9147 26.3982 66.5764 25.6207C65.7135 23.236 65.6262 20.6395 66.3272 18.2023C66.523 17.6088 67.3539 15.7868 67.0215 15.2349C66.8554 14.7067 66.2975 14.404 65.9948 13.9886C65.6057 13.4276 65.2699 12.8316 64.9918 12.2081C64.3271 10.6532 63.9948 8.93212 63.2708 7.3772C62.8724 6.62319 62.4077 5.9062 61.882 5.23475C61.3036 4.56459 60.7927 3.83901 60.3568 3.06855C60.2143 2.76587 60.0244 2.26735 60.244 1.935C60.2603 1.83937 60.3074 1.75166 60.3781 1.68524C60.4488 1.61882 60.5392 1.57731 60.6357 1.56705C60.9918 1.26437 62.0245 1.65013 62.3805 1.82224C63.3476 2.18043 64.2713 2.64627 65.1343 3.21098C65.52 3.48398 65.9355 4.01218 66.4399 4.15461H67.0334C67.9236 4.34453 68.9207 4.20803 69.7575 4.45729C71.1645 4.92959 72.508 5.57341 73.7575 6.37422C77.4338 8.71858 80.4234 11.9949 82.4223 15.8699C82.7547 16.5049 82.8971 17.0924 83.1998 17.7571C83.7933 19.1221 84.5054 20.5109 85.087 21.8403C85.5973 23.154 86.2606 24.403 87.0633 25.5614C87.4788 26.1549 89.1464 26.4516 89.8942 26.7483C90.5458 26.9731 91.1856 27.2306 91.8111 27.5199C92.7548 28.1133 93.6984 28.7721 94.5886 29.4131C95.0337 29.7454 96.4225 30.4398 96.5056 30.9977" fill="#091071"/>
<path d="M99.1465 61.7219H99.74V58.8791H98.8735L98.1732 60.796L97.4076 58.8791H96.5708V61.7219H97.1168V59.5794L97.924 61.7219H98.3394L99.1406 59.5794L99.1465 61.7219ZM94.5055 61.7219H95.099V59.348H95.9002V58.8732H93.6628V59.348H94.4877L94.5055 61.7219Z" fill="#F29111"/>
</svg>
