<svg width="80" height="80" viewBox="0 0 80 80" fill="none" xmlns="http://www.w3.org/2000/svg">
<path d="M7.27273 0C3.25455 0 0 3.25455 0 7.27273V72.7273C0 76.7455 3.25455 80 7.27273 80H72.7273C76.7455 80 80 76.7455 80 72.7273V7.27273C80 3.25455 76.7455 0 72.7273 0H7.27273ZM14.5455 21.7898H29.0128C36.1728 21.7898 41.0724 26.6877 41.0724 33.9205C41.0724 41.0295 35.994 45.902 28.7358 45.902H20.9588V57.6634H14.5455V21.7898ZM20.9588 27.1591V40.5824H27.3011C31.8757 40.5824 34.5597 38.1968 34.5597 33.9205C34.5597 29.5241 31.9443 27.1591 27.3224 27.1591H20.9588ZM55.2983 29.9148C61.7601 29.9148 65.8169 32.7747 66.2642 37.7202H60.4759C60.0286 35.8074 58.2103 34.5881 55.3267 34.5881C52.5194 34.5881 50.4048 35.9341 50.4048 37.8977C50.4048 39.4395 51.6973 40.3832 54.4318 41.0014L59.2259 42.0952C64.4222 43.2624 66.8324 45.5028 66.8324 49.5028C66.8324 54.7283 62.034 58.2102 55.2486 58.2102C48.4631 58.2102 44.1872 55.2722 43.7145 50.3267H49.8082C50.4046 52.3413 52.3141 53.5369 55.3977 53.5369C58.5032 53.5369 60.6676 52.1708 60.6676 50.1562C60.6676 48.6144 59.5031 47.6413 56.9176 47.0668L52.0952 45.9517C46.8734 44.759 44.4176 42.3476 44.4176 38.2457C44.4176 33.3221 48.8838 29.9148 55.2983 29.9148Z" fill="#091071"/>
</svg>
