<svg width="100" height="50" viewBox="0 0 100 50" fill="none" xmlns="http://www.w3.org/2000/svg">
<path d="M50 0C21.9625 0 0 10.9822 0 25C0 39.0178 21.9625 50 50 50C78.0375 50 100 39.0178 100 25C100 10.9822 78.0375 0 50 0Z" fill="white"/>
<path d="M50 45.8334C38.0205 45.8334 26.9656 43.6014 18.6994 40.0379L20.3775 33.3334H27.6855C33.1949 33.3334 37.9762 29.6 39.3148 24.2533L39.6791 22.7866C40.3037 20.2963 39.7543 17.7065 38.1756 15.684C36.5947 13.6598 34.2184 12.5 31.6508 12.5H22.9166C21.9603 12.5 21.1283 13.151 20.8963 14.0787L14.865 38.2039C8.21933 34.5803 4.1666 29.9602 4.1666 25C4.1666 13.7065 25.1566 4.16663 50 4.16663C74.8434 4.16663 95.8334 13.7065 95.8334 25C95.8334 36.2936 74.8434 45.8334 50 45.8334Z" fill="#091071"/>
<path opacity="0.2" d="M6.24999 27.0834C6.24999 15.7899 27.24 6.25002 52.0834 6.25002C69.481 6.25002 84.9582 10.936 92.691 17.6188C85.9713 9.84592 69.1533 4.16663 50 4.16663C25.1566 4.16663 4.1666 13.7065 4.1666 25C4.1666 28.3246 6.02031 31.4877 9.22206 34.3092C7.3123 32.0461 6.24999 29.6098 6.24999 27.0834Z" fill="white"/>
<path d="M21.4193 29.1666L24.5443 16.6666H31.6508C32.9244 16.6666 34.1064 17.2424 34.8896 18.2475C35.675 19.2526 35.9476 20.5383 35.6363 21.7774L35.2721 23.2442C34.3992 26.7313 31.2803 29.1666 27.6854 29.1666H21.4193Z" fill="#091071"/>
<path d="M21.4193 29.1666L24.5443 16.6666H31.6508C32.9244 16.6666 34.1064 17.2424 34.8896 18.2475C35.675 19.2526 35.9476 20.5383 35.6363 21.7774L35.2721 23.2442C34.3992 26.7313 31.2803 29.1666 27.6854 29.1666H21.4193Z" fill="#091071"/>
<path d="M79.5673 12.5H70.8332C69.8769 12.5 69.0449 13.151 68.8128 14.0787L64.6564 30.6986C64.6482 30.7291 64.6421 30.7576 64.6339 30.7861L62.5628 39.0787C62.282 40.1936 62.9617 41.3248 64.0785 41.6035C64.2474 41.6463 64.4183 41.6666 64.5851 41.6666C65.5189 41.6666 66.3673 41.0359 66.6033 40.0879L68.2939 33.3334H75.6019C81.1113 33.3334 85.8925 29.6 87.2312 24.2533L87.5955 22.7865C88.2201 20.2963 87.6706 17.7064 86.0919 15.684C84.5113 13.6598 82.1349 12.5 79.5673 12.5ZM83.5531 21.7773L83.1888 23.2441C82.316 26.7312 79.197 29.1666 75.6021 29.1666H69.3359L72.4609 16.6666H79.5673C80.841 16.6666 82.023 17.2424 82.8062 18.2475C83.5917 19.2525 83.8642 20.5383 83.5531 21.7773Z" fill="white"/>
<path d="M61.2304 15.0431C59.914 13.4277 57.965 12.4999 55.8797 12.4999H49.2754L49.9654 8.70559C50.173 7.57434 49.4223 6.48997 48.289 6.2845C47.164 6.07689 46.0715 6.82766 45.868 7.96087L41.7012 30.8777C41.4935 32.0089 42.2443 33.0933 43.3775 33.2987C43.5037 33.3232 43.6277 33.3333 43.7519 33.3333C44.7408 33.3333 45.6176 32.6294 45.7986 31.6224L48.5178 16.6667H55.8797C56.7056 16.6667 57.4767 17.0329 57.9976 17.6738C58.5185 18.3146 58.7219 19.1447 58.5531 19.9544L56.2928 30.8269C56.0588 31.9519 56.783 33.0546 57.9101 33.2907C58.0525 33.3193 58.1949 33.3335 58.3353 33.3335C59.3017 33.3335 60.1683 32.6581 60.374 31.6734L62.6344 20.8009C63.0574 18.7601 62.5447 16.6605 61.2304 15.0431Z" fill="white"/>
<path d="M50 0C21.9625 0 0 10.9822 0 25C0 39.0178 21.9625 50 50 50C78.0375 50 100 39.0178 100 25C100 10.9822 78.0375 0 50 0Z" fill="url(#paint0_linear)"/>
<defs>
<linearGradient id="paint0_linear" x1="7.77958" y1="5.31079" x2="92.2211" y2="44.6978" gradientUnits="userSpaceOnUse">
<stop stop-color="white" stop-opacity="0.2"/>
<stop offset="1" stop-color="white" stop-opacity="0"/>
</linearGradient>
</defs>
</svg>
