<svg width="90" height="54" viewBox="0 0 90 54" fill="none" xmlns="http://www.w3.org/2000/svg">
<path d="M8.35676 0H81.6078C86.2437 0 89.9963 3.75258 89.9963 8.38855V36.3495C89.9963 40.9855 86.2437 44.7381 81.6078 44.7381H55.339L58.9447 53.5678L43.0875 44.7381H8.39332C3.7577 44.7381 0.0051223 40.9855 0.0051223 36.3495V8.38855C-0.0317883 3.78949 3.72044 0 8.35676 0Z" fill="#091071"/>
<path d="M5.12877 7.64582C5.64094 6.9505 6.40904 6.5849 7.43339 6.51179C9.29931 6.3652 10.3602 7.24297 10.6161 9.14545C11.7502 16.7912 12.9939 23.2664 14.3107 28.5706L22.3221 13.316C23.054 11.9257 23.9686 11.1942 25.0661 11.121C26.6758 11.0114 27.6632 12.0354 28.0657 14.1938C28.9804 19.0589 30.151 23.1929 31.5409 26.7047C32.4922 17.4131 34.1018 10.7185 36.3699 6.5849C36.9183 5.56055 37.7233 5.04837 38.7842 4.9749C39.6258 4.90213 40.3938 5.15805 41.0888 5.70678C41.7838 6.25552 42.1497 6.9505 42.2229 7.79206C42.2594 8.45047 42.1497 8.99921 41.8573 9.54795C40.4304 12.182 39.2595 16.6084 38.3086 22.7539C37.3942 28.7168 37.0649 33.363 37.2842 36.692C37.3577 37.606 37.2111 38.411 36.8455 39.1063C36.4061 39.9109 35.748 40.35 34.9065 40.4231C33.9552 40.4962 32.9678 40.0575 32.0165 39.0697C28.6144 35.5942 25.9073 30.3996 23.9321 23.4857C21.554 28.1681 19.7981 31.6799 18.6641 34.0211C16.5057 38.1551 14.6767 40.2769 13.1401 40.3866C12.1523 40.4597 11.3111 39.6181 10.5796 37.8626C8.71402 33.0702 6.70186 23.8148 4.54382 10.0967C4.39723 9.14544 4.61659 8.30388 5.12877 7.64582ZM83.7434 13.3891C82.4266 11.0845 80.4875 9.69453 77.8904 9.14545C77.1951 8.99921 76.537 8.92609 75.9148 8.92609C72.4031 8.92609 69.5497 10.7551 67.3182 14.4135C65.4157 17.5227 64.4648 20.9614 64.4648 24.7294C64.4648 27.5463 65.0501 29.9606 66.2207 31.9727C67.5375 34.2773 69.4766 35.6673 72.0737 36.216C72.7686 36.3626 73.4271 36.4357 74.0493 36.4357C77.5976 36.4357 80.451 34.6067 82.6459 30.9484C84.548 27.8022 85.4993 24.3635 85.4993 20.5958C85.5358 17.7424 84.914 15.3644 83.7434 13.3891ZM79.1341 23.5223C78.622 25.9366 77.7073 27.729 76.3535 28.9362C75.293 29.8874 74.3052 30.2896 73.3909 30.1068C72.5127 29.924 71.7808 29.1559 71.2325 27.729C70.793 26.595 70.5741 25.461 70.5741 24.4001C70.5741 23.4857 70.6472 22.5711 70.83 21.7298C71.1593 20.2299 71.7812 18.7665 72.7686 17.3765C73.9762 15.5837 75.2564 14.8525 76.5732 15.1084C77.4514 15.2912 78.1833 16.0597 78.7316 17.4862C79.1707 18.6202 79.3901 19.7543 79.3901 20.8152C79.3901 21.7664 79.3169 22.6807 79.1341 23.5219V23.5223ZM60.843 13.3891C59.5262 11.0845 57.5506 9.69453 54.99 9.14545C54.2951 8.99921 53.6367 8.92609 53.0144 8.92609C49.5027 8.92609 46.6493 10.7551 44.4178 14.4135C42.5157 17.5227 41.5644 20.9614 41.5644 24.7294C41.5644 27.5463 42.1497 29.9606 43.3203 31.9727C44.6372 34.2773 46.5762 35.6673 49.1733 36.216C49.8686 36.3626 50.5267 36.4357 51.1489 36.4357C54.6972 36.4357 57.5506 34.6067 59.7455 30.9484C61.648 27.8022 62.5989 24.3635 62.5989 20.5958C62.5989 17.7424 62.0136 15.3644 60.843 13.3891ZM56.1972 23.5223C55.685 25.9366 54.7703 27.729 53.417 28.9362C52.356 29.8874 51.3682 30.2896 50.4536 30.1068C49.5758 29.924 48.8443 29.1559 48.2952 27.729C47.8565 26.595 47.6371 25.461 47.6371 24.4001C47.6371 23.4857 47.7102 22.5711 47.893 21.7298C48.2224 20.2299 48.8443 18.7665 49.8321 17.3765C51.0392 15.5837 52.3195 14.8525 53.6363 15.1084C54.5144 15.2912 55.2463 16.0597 55.7947 17.4862C56.2341 18.6202 56.4531 19.7543 56.4531 20.8152C56.49 21.7664 56.38 22.6807 56.1972 23.5219V23.5223Z" fill="white"/>
</svg>
