<svg width="84" height="84" viewBox="0 0 84 84" fill="none" xmlns="http://www.w3.org/2000/svg">
<path d="M56.492 36.224C52.396 36.224 50.926 41.544 50.926 47.75C50.926 54.278 52.528 60.528 56.112 60.528C57.648 60.528 59.634 59.728 60.722 55.25C60.914 54.674 60.972 53.5 60.972 53.5V44.374C60.972 43.736 61.036 42.952 60.972 42.25C60.716 39.05 58.86 36.224 56.492 36.224ZM80 0H4C1.794 0 0 1.794 0 4V80C0 82.206 1.794 84 4 84H80C82.206 84 84 82.206 84 80V4C84 1.794 82.206 0 80 0ZM45 64H40L31.514 47.746L23 64H18.072L29.036 43L18.072 22H23L31.514 38.254L40 22H45L34 43L45 64ZM66 57.25C66 59.362 65.936 62.208 66 64H61V60.75C60.04 62.926 58.224 64.624 54.962 64.624C49.714 64.624 46 57.992 46 47.75C46 36.744 50.606 32 55.406 32C57.646 32 59.786 33.128 61 35.75V35.736V20H66V57.25Z" fill="#091071"/>
</svg>
