<svg width="80" height="80" viewBox="0 0 80 80" fill="none" xmlns="http://www.w3.org/2000/svg">
<path d="M35.8856 37.0969L38.3312 39.6819H41.6687L44.1144 37.0969V31.9281H35.8856V37.0969Z" fill="#F5F5F5"/>
<path d="M44.1144 31.9281L44.4688 30.9412C45.1904 28.9943 46.2059 27.1694 47.48 25.53C48.5334 24.1407 49.179 22.4855 49.3446 20.7499C49.5101 19.0143 49.189 17.2668 48.4172 15.7035C47.6455 14.1401 46.4536 12.8226 44.9751 11.8985C43.4967 10.9745 41.79 10.4805 40.0466 10.4718C38.3031 10.4632 36.5917 10.9403 35.1042 11.8496C33.6166 12.759 32.4117 14.0647 31.6245 15.6203C30.8373 17.1759 30.4989 18.9201 30.6473 20.6572C30.7956 22.3944 31.4248 24.0559 32.4644 25.4556C33.7932 27.2 34.8564 29.1316 35.6194 31.1875L35.8856 31.9293L44.1144 31.9281Z" fill="#FFBE2C"/>
<path d="M76.0587 76.0588V57.6769C76.0587 56.7485 75.7633 55.8442 75.2154 55.0948C74.6674 54.3454 73.8953 53.7897 73.0106 53.5082L65.375 51.0757H56.0556L48.4162 53.5082C47.5317 53.7898 46.7597 54.3456 46.2119 55.095C45.664 55.8444 45.3687 56.7486 45.3687 57.6769V76.0588H76.0587Z" fill="#F5F5F5"/>
<path d="M68.0681 51.9344L60.7138 65.6225L53.3588 51.9344L56.0556 51.0757H65.3719L68.0681 51.9344Z" fill="#00D6DE"/>
<path d="M3.94125 76.0588V57.6769C3.94129 56.7485 4.23665 55.8442 4.78462 55.0948C5.33258 54.3454 6.10473 53.7897 6.98938 53.5082L14.6281 51.0757H23.9444L31.5838 53.5082C32.4683 53.7898 33.2403 54.3456 33.7881 55.095C34.336 55.8444 34.6313 56.7486 34.6313 57.6769V76.0588H3.94125Z" fill="#F5F5F5"/>
<path d="M11.9319 51.9344L19.2863 65.6225L26.6413 51.9344L23.9444 51.0757H14.6281L11.9319 51.9344Z" fill="#00D6DE"/>
<path d="M60.7138 35.1931C60.7138 35.1931 68.0681 34.8531 68.0681 43.61C68.0681 49.3006 64.9619 51.8762 62.7869 52.985C62.1446 53.3116 61.4343 53.4819 60.7138 53.4819C59.9932 53.4819 59.2829 53.3116 58.6406 52.985C56.4656 51.8787 53.3588 49.3031 53.3588 43.61C53.3588 34.8531 60.7138 35.1931 60.7138 35.1931Z" fill="#FFDECE"/>
<path d="M19.2863 35.1931C19.2863 35.1931 26.6413 34.8531 26.6413 43.61C26.6413 49.3006 23.5344 51.8762 21.3594 52.985C20.7171 53.3116 20.0068 53.4819 19.2863 53.4819C18.5657 53.4819 17.8554 53.3116 17.2131 52.985C15.0381 51.8787 11.9319 49.3031 11.9319 43.61C11.9319 34.8531 19.2863 35.1931 19.2863 35.1931Z" fill="#FFDECE"/>
<path d="M45.2081 37.0969V32.1187L45.5 31.3125C46.1858 29.4712 47.1479 27.7449 48.3531 26.1931C49.2275 25.0359 49.8522 23.7098 50.1877 22.2987C50.5232 20.8876 50.5622 19.4222 50.3021 17.9953C50.0421 16.5684 49.4887 15.2109 48.677 14.0089C47.8654 12.8068 46.813 11.7864 45.5866 11.012C44.3602 10.2376 42.9864 9.72618 41.5522 9.5101C40.1179 9.29401 38.6545 9.37796 37.2543 9.75662C35.8542 10.1353 34.5479 10.8004 33.4181 11.71C32.2883 12.6195 31.3595 13.7536 30.6906 15.0406C30.6245 15.1681 30.5841 15.3074 30.5718 15.4505C30.5594 15.5936 30.5754 15.7378 30.6188 15.8747C30.6622 16.0116 30.7321 16.1387 30.8246 16.2486C30.9171 16.3585 31.0303 16.4491 31.1578 16.5153C31.2853 16.5814 31.4246 16.6218 31.5677 16.6342C31.7108 16.6465 31.855 16.6305 31.9919 16.5871C32.1289 16.5437 32.2559 16.4738 32.3658 16.3813C32.4757 16.2888 32.5664 16.1756 32.6325 16.0481C33.1603 15.0275 33.8943 14.1276 34.7882 13.4056C35.682 12.6837 36.7161 12.1553 37.8249 11.854C38.9337 11.5527 40.093 11.4851 41.2294 11.6555C42.3657 11.8258 43.4542 12.2305 44.4259 12.8437C45.3976 13.4569 46.2313 14.2653 46.8741 15.2177C47.5169 16.1701 47.9548 17.2456 48.16 18.3761C48.3652 19.5067 48.3333 20.6675 48.0663 21.7851C47.7992 22.9026 47.3029 23.9525 46.6088 24.8681C45.2678 26.5971 44.1985 28.5204 43.4375 30.5719L43.3431 30.8344H41.0931V23.7094L44.55 20.685C44.7562 20.4911 44.8792 20.2248 44.8932 19.942C44.9071 19.6593 44.8109 19.3822 44.6248 19.1689C44.4386 18.9557 44.177 18.8229 43.895 18.7985C43.613 18.7741 43.3325 18.86 43.1125 19.0381L40 21.7581L36.8894 19.0369C36.6694 18.8587 36.3889 18.7728 36.1069 18.7972C35.8248 18.8216 35.5633 18.9544 35.3771 19.1677C35.191 19.3809 35.0948 19.658 35.1087 19.9408C35.1226 20.2235 35.2457 20.4898 35.4519 20.6837L38.9088 23.7081V30.8331H36.6588L36.6525 30.8156C35.852 28.6591 34.7378 26.6325 33.3456 24.8012C32.4652 23.6193 31.9173 22.2233 31.7588 20.7581C31.7277 20.4697 31.5833 20.2054 31.3574 20.0234C31.1314 19.8415 30.8425 19.7567 30.5541 19.7878C30.2656 19.8189 30.0014 19.9633 29.8194 20.1892C29.6374 20.4151 29.5527 20.7041 29.5838 20.9925C29.784 22.8459 30.4769 24.6119 31.5906 26.1069C32.8574 27.763 33.8696 29.5991 34.5938 31.5544L34.7956 32.1169V37.095C34.7959 37.3741 34.903 37.6424 35.095 37.845L37.5406 40.4294C37.6427 40.5375 37.7658 40.6237 37.9024 40.6826C38.0391 40.7415 38.1862 40.7719 38.335 40.7719H41.6725C41.8213 40.7719 41.9685 40.7415 42.1051 40.6826C42.2417 40.6237 42.3648 40.5375 42.4669 40.4294L44.9125 37.845C45.1027 37.6423 45.2084 37.3748 45.2081 37.0969ZM43.0206 36.6594L41.1981 38.5856H38.8019L36.9794 36.6594V33.0219H43.0206V36.6594Z" fill="#03095D"/>
<path d="M40 7.52624C40.2901 7.52624 40.5683 7.41101 40.7734 7.20589C40.9785 7.00077 41.0938 6.72257 41.0938 6.43249V3.94186C41.0938 3.65178 40.9785 3.37358 40.7734 3.16847C40.5683 2.96335 40.2901 2.84811 40 2.84811C39.7099 2.84811 39.4317 2.96335 39.2266 3.16847C39.0215 3.37358 38.9062 3.65178 38.9062 3.94186V6.43249C38.9062 6.72257 39.0215 7.00077 39.2266 7.20589C39.4317 7.41101 39.7099 7.52624 40 7.52624Z" fill="#03095D"/>
<path d="M53.4275 20.9543H55.9194C56.2095 20.9543 56.4877 20.8391 56.6928 20.634C56.8979 20.4288 57.0131 20.1506 57.0131 19.8606C57.0131 19.5705 56.8979 19.2923 56.6928 19.0872C56.4877 18.882 56.2095 18.7668 55.9194 18.7668H53.4275C53.1374 18.7668 52.8592 18.882 52.6541 19.0872C52.449 19.2923 52.3338 19.5705 52.3338 19.8606C52.3338 20.1506 52.449 20.4288 52.6541 20.634C52.8592 20.8391 53.1374 20.9543 53.4275 20.9543Z" fill="#03095D"/>
<path d="M24.0806 20.9543H26.5725C26.8626 20.9543 27.1408 20.8391 27.3459 20.634C27.551 20.4288 27.6663 20.1506 27.6663 19.8606C27.6663 19.5705 27.551 19.2923 27.3459 19.0872C27.1408 18.882 26.8626 18.7668 26.5725 18.7668H24.0806C23.7905 18.7668 23.5123 18.882 23.3072 19.0872C23.1021 19.2923 22.9869 19.5705 22.9869 19.8606C22.9869 20.1506 23.1021 20.4288 23.3072 20.634C23.5123 20.8391 23.7905 20.9543 24.0806 20.9543Z" fill="#03095D"/>
<path d="M50.2681 28.5818C50.0618 28.3826 49.7855 28.2724 49.4987 28.275C49.2119 28.2775 48.9376 28.3926 48.7349 28.5954C48.5321 28.7983 48.4171 29.0726 48.4147 29.3594C48.4123 29.6462 48.5226 29.9224 48.7219 30.1287L50.4831 31.8906C50.5847 31.9921 50.7053 32.0727 50.838 32.1277C50.9707 32.1826 51.1129 32.2109 51.2565 32.2109C51.4002 32.2109 51.5424 32.1826 51.6751 32.1277C51.8078 32.0727 51.9284 31.9921 52.03 31.8906C52.1316 31.789 52.2121 31.6684 52.2671 31.5357C52.3221 31.403 52.3504 31.2608 52.3504 31.1171C52.3504 30.9735 52.3221 30.8312 52.2671 30.6985C52.2121 30.5658 52.1316 30.4453 52.03 30.3437L50.2681 28.5818Z" fill="#03095D"/>
<path d="M29.7319 11.1387C29.8334 11.2402 29.9539 11.3208 30.0866 11.3757C30.2192 11.4307 30.3614 11.4589 30.505 11.4589C30.6486 11.4589 30.7908 11.4307 30.9234 11.3757C31.0561 11.3208 31.1766 11.2402 31.2781 11.1387C31.3797 11.0372 31.4602 10.9166 31.5151 10.784C31.5701 10.6513 31.5984 10.5092 31.5984 10.3656C31.5984 10.222 31.5701 10.0798 31.5151 9.94717C31.4602 9.81451 31.3797 9.69398 31.2781 9.59245L29.5169 7.83058C29.3095 7.63843 29.0358 7.53404 28.7531 7.53931C28.4704 7.54458 28.2008 7.6591 28.0007 7.85885C27.8007 8.0586 27.6857 8.32806 27.68 8.61071C27.6742 8.89337 27.7782 9.16726 27.97 9.37495L29.7319 11.1387Z" fill="#03095D"/>
<path d="M49.495 11.4593C49.6386 11.4595 49.7809 11.4312 49.9136 11.3762C50.0463 11.3212 50.1668 11.2405 50.2681 11.1387L52.03 9.37493C52.1316 9.27336 52.2121 9.15278 52.2671 9.02008C52.3221 8.88737 52.3504 8.74514 52.3504 8.6015C52.3504 8.45786 52.3221 8.31562 52.2671 8.18291C52.2121 8.05021 52.1316 7.92963 52.03 7.82806C51.9284 7.72649 51.8078 7.64592 51.6751 7.59095C51.5424 7.53598 51.4002 7.50769 51.2566 7.50769C51.1129 7.50769 50.9707 7.53598 50.838 7.59095C50.7053 7.64592 50.5847 7.72649 50.4831 7.82806L48.7219 9.58993C48.569 9.74289 48.4649 9.93773 48.4228 10.1498C48.3806 10.3619 48.4023 10.5818 48.485 10.7815C48.5678 10.9813 48.7079 11.1521 48.8876 11.2723C49.0674 11.3925 49.2788 11.4567 49.495 11.4568V11.4593Z" fill="#03095D"/>
<path d="M27.97 31.8906C28.0715 31.9922 28.1921 32.0728 28.3248 32.1279C28.4575 32.1829 28.5998 32.2112 28.7434 32.2112C28.8871 32.2112 29.0294 32.1829 29.1621 32.1279C29.2948 32.0728 29.4154 31.9922 29.5169 31.8906L31.2781 30.1287C31.4774 29.9224 31.5877 29.6462 31.5853 29.3594C31.5828 29.0726 31.4679 28.7983 31.2651 28.5954C31.0624 28.3926 30.7881 28.2775 30.5013 28.275C30.2145 28.2724 29.9382 28.3826 29.7319 28.5818L27.97 30.3437C27.765 30.5489 27.6499 30.8271 27.6499 31.1171C27.6499 31.4072 27.765 31.6854 27.97 31.8906Z" fill="#03095D"/>
<path d="M52.2975 61.5513C52.0074 61.5513 51.7292 61.6665 51.5241 61.8716C51.319 62.0767 51.2038 62.3549 51.2038 62.645V76.0581C51.2038 76.3482 51.319 76.6264 51.5241 76.8315C51.7292 77.0367 52.0074 77.1519 52.2975 77.1519C52.5876 77.1519 52.8658 77.0367 53.0709 76.8315C53.276 76.6264 53.3913 76.3482 53.3913 76.0581V62.645C53.3911 62.355 53.2758 62.0769 53.0707 61.8718C52.8656 61.6667 52.5875 61.5514 52.2975 61.5513Z" fill="#03095D"/>
<path d="M69.13 61.5513C68.84 61.5514 68.5619 61.6667 68.3568 61.8718C68.1517 62.0769 68.0364 62.355 68.0363 62.645V76.0581C68.0363 76.3482 68.1515 76.6264 68.3566 76.8315C68.5617 77.0367 68.8399 77.1519 69.13 77.1519C69.4201 77.1519 69.6983 77.0367 69.9034 76.8315C70.1085 76.6264 70.2238 76.3482 70.2238 76.0581V62.645C70.2236 62.355 70.1083 62.0769 69.9032 61.8718C69.6981 61.6667 69.42 61.5514 69.13 61.5513Z" fill="#03095D"/>
<path d="M76.0581 62.3569C75.7681 62.3569 75.4899 62.4722 75.2847 62.6773C75.0796 62.8824 74.9644 63.1606 74.9644 63.4507V76.0582C74.9644 76.3483 75.0796 76.6265 75.2847 76.8316C75.4899 77.0367 75.7681 77.1519 76.0581 77.1519C76.3482 77.1519 76.6264 77.0367 76.8315 76.8316C77.0367 76.6265 77.1519 76.3483 77.1519 76.0582V63.4507C77.152 63.307 77.1237 63.1648 77.0688 63.032C77.0139 62.8993 76.9333 62.7787 76.8317 62.6771C76.7301 62.5755 76.6095 62.495 76.4768 62.44C76.3441 62.3851 76.2018 62.3569 76.0581 62.3569Z" fill="#03095D"/>
<path d="M76.0581 58.7706C76.3482 58.7706 76.6264 58.6554 76.8315 58.4503C77.0366 58.2451 77.1519 57.9669 77.1519 57.6769C77.1532 56.6068 76.8395 55.5599 76.25 54.6669C76.1709 54.5469 76.069 54.4438 75.95 54.3633C75.8311 54.2827 75.6975 54.2264 75.5567 54.1976C75.416 54.1687 75.271 54.1678 75.13 54.195C74.9889 54.2222 74.8546 54.2768 74.7347 54.3559C74.6148 54.435 74.5116 54.5369 74.4311 54.6559C74.3506 54.7748 74.2943 54.9085 74.2654 55.0492C74.2365 55.1899 74.2356 55.3349 74.2628 55.476C74.29 55.617 74.3447 55.7513 74.4238 55.8712C74.7776 56.4069 74.9659 57.0349 74.965 57.6769C74.9652 57.9668 75.0804 58.2448 75.2853 58.4499C75.4903 58.6549 75.7682 58.7703 76.0581 58.7706Z" fill="#03095D"/>
<path d="M70.9006 51.6875L68.3819 50.8856L67.2144 50.5106C68.5565 48.4635 69.2366 46.0531 69.1625 43.6063C69.1625 40.4494 68.2731 37.9994 66.5187 36.3244C64.9259 34.8896 62.8581 34.0956 60.7144 34.0956C58.5706 34.0956 56.5028 34.8896 54.91 36.3244C53.1556 37.9994 52.2656 40.4494 52.2656 43.6063C52.1915 46.0532 52.8718 48.4636 54.2144 50.5106L48.085 52.4619C46.9778 52.8115 46.0111 53.5056 45.3259 54.443C44.6407 55.3803 44.2727 56.512 44.2756 57.6731V76.0544C44.2756 76.3445 44.3909 76.6227 44.596 76.8278C44.8011 77.0329 45.0793 77.1481 45.3694 77.1481C45.6595 77.1481 45.9376 77.0329 46.1428 76.8278C46.3479 76.6227 46.4631 76.3445 46.4631 76.0544V57.6769C46.4618 56.9805 46.6828 56.3019 47.0939 55.7399C47.505 55.1778 48.0847 54.7616 48.7487 54.5519L52.8256 53.25L59.75 66.14C59.8436 66.3141 59.9826 66.4596 60.1522 66.561C60.3218 66.6625 60.5158 66.716 60.7134 66.716C60.9111 66.716 61.105 66.6625 61.2747 66.561C61.4443 66.4596 61.5833 66.3141 61.6769 66.14L68.6019 53.25L70.2369 53.7706C70.3737 53.8142 70.5178 53.8304 70.661 53.8183C70.8041 53.8062 70.9434 53.766 71.071 53.7001C71.1986 53.6341 71.312 53.5437 71.4046 53.4339C71.4972 53.3241 71.5674 53.1972 71.6109 53.0603C71.6545 52.9235 71.6707 52.7794 71.6586 52.6362C71.6465 52.4931 71.6063 52.3538 71.5404 52.2262C71.4744 52.0986 71.384 51.9852 71.2742 51.8926C71.1644 51.8 71.0375 51.7299 70.9006 51.6863V51.6875ZM56.4006 37.9269C57.5594 36.8868 59.0567 36.3033 60.6137 36.285H60.6662C60.6975 36.285 60.7287 36.285 60.7625 36.285C62.327 36.2949 63.8347 36.8724 65.0056 37.91C66.3106 39.1563 66.9725 41.0744 66.9725 43.61C66.9725 48.5825 64.4256 50.9225 62.2894 52.0075C61.8005 52.2554 61.26 52.3846 60.7119 52.3846C60.1637 52.3846 59.6233 52.2554 59.1344 52.0075C56.9975 50.9213 54.4506 48.5825 54.4506 43.61C54.4525 41.0856 55.1087 39.1738 56.4025 37.9275L56.4006 37.9269ZM60.7131 63.3113L54.9456 52.5769L55.7687 52.3144C56.4834 52.9658 57.2822 53.5185 58.1437 53.9575C58.94 54.361 59.8201 54.5713 60.7128 54.5713C61.6055 54.5713 62.4856 54.361 63.2819 53.9575C64.1433 53.5185 64.9421 52.9661 65.6569 52.315L66.48 52.5769L60.7131 63.3113Z" fill="#03095D"/>
<path d="M10.87 61.5513C10.58 61.5514 10.3019 61.6667 10.0968 61.8718C9.8917 62.0769 9.77641 62.355 9.77625 62.645V76.0581C9.77625 76.3482 9.89148 76.6264 10.0966 76.8315C10.3017 77.0367 10.5799 77.1519 10.87 77.1519C11.1601 77.1519 11.4383 77.0367 11.6434 76.8315C11.8485 76.6264 11.9637 76.3482 11.9637 76.0581V62.645C11.9636 62.355 11.8483 62.0769 11.6432 61.8718C11.4381 61.6667 11.16 61.5514 10.87 61.5513Z" fill="#03095D"/>
<path d="M27.7025 61.5513C27.4125 61.5514 27.1344 61.6667 26.9293 61.8718C26.7242 62.0769 26.6089 62.355 26.6088 62.645V76.0581C26.6088 76.3482 26.724 76.6264 26.9291 76.8315C27.1342 77.0367 27.4124 77.1519 27.7025 77.1519C27.9926 77.1519 28.2708 77.0367 28.4759 76.8315C28.681 76.6264 28.7963 76.3482 28.7963 76.0581V62.645C28.7963 62.3549 28.681 62.0767 28.4759 61.8716C28.2708 61.6665 27.9926 61.5513 27.7025 61.5513Z" fill="#03095D"/>
<path d="M31.9156 52.4657L26.9556 50.8869L25.7888 50.5156C27.1314 48.4687 27.8118 46.0582 27.7375 43.6113C27.7375 40.4544 26.8475 38.0044 25.0931 36.3294C23.5003 34.8946 21.4325 34.1006 19.2888 34.1006C17.145 34.1006 15.0772 34.8946 13.4844 36.3294C11.73 38.0044 10.8406 40.4544 10.8406 43.6113C10.7668 46.058 11.4468 48.4684 12.7888 50.5156L6.66001 52.4669C5.55273 52.8164 4.58603 53.5105 3.9008 54.4479C3.21557 55.3853 2.84764 56.517 2.85063 57.6782V76.0594C2.85063 76.3495 2.96587 76.6277 3.17099 76.8328C3.3761 77.0379 3.6543 77.1532 3.94438 77.1532C4.23447 77.1532 4.51266 77.0379 4.71778 76.8328C4.9229 76.6277 5.03813 76.3495 5.03813 76.0594V57.6769C5.03667 56.9806 5.25751 56.302 5.6685 55.7399C6.07949 55.1779 6.65917 54.7616 7.32313 54.5519L11.3981 53.25L18.3225 66.1382C18.4161 66.3123 18.5551 66.4577 18.7247 66.5592C18.8943 66.6606 19.0883 66.7141 19.2859 66.7141C19.4836 66.7141 19.6775 66.6606 19.8472 66.5592C20.0168 66.4577 20.1558 66.3123 20.2494 66.1382L27.1744 53.25L31.25 54.55C31.9142 54.7596 32.4941 55.1758 32.9053 55.7379C33.3165 56.2999 33.5375 56.9786 33.5363 57.675V76.0563C33.5363 76.1999 33.5646 76.3421 33.6195 76.4748C33.6745 76.6075 33.755 76.7281 33.8566 76.8297C33.9582 76.9312 34.0788 77.0118 34.2115 77.0668C34.3442 77.1217 34.4864 77.15 34.63 77.15C34.7736 77.15 34.9159 77.1217 35.0486 77.0668C35.1813 77.0118 35.3018 76.9312 35.4034 76.8297C35.505 76.7281 35.5855 76.6075 35.6405 76.4748C35.6955 76.3421 35.7238 76.1999 35.7238 76.0563V57.6769C35.7267 56.5159 35.359 55.3844 34.674 54.447C33.989 53.5097 33.0226 52.8155 31.9156 52.4657ZM14.975 37.9275C16.1336 36.8876 17.6307 36.3041 19.1875 36.2856H19.24C19.2713 36.2856 19.3025 36.2856 19.3363 36.2856C20.9008 36.2956 22.4085 36.873 23.5794 37.9107C24.8844 39.1569 25.5469 41.075 25.5469 43.6107C25.5469 48.5832 23 50.9232 20.8631 52.0082C20.3742 52.2559 19.8338 52.385 19.2856 52.385C18.7375 52.385 18.1971 52.2559 17.7081 52.0082C15.5719 50.9219 13.025 48.5832 13.025 43.6107C13.0256 41.0857 13.6813 39.1738 14.975 37.9275ZM19.2875 63.3119L13.5188 52.5769L14.3419 52.3144C15.0563 52.9661 15.8551 53.5188 16.7169 53.9575C17.5131 54.361 18.3931 54.5713 19.2856 54.5713C20.1782 54.5713 21.0582 54.361 21.8544 53.9575C22.716 53.5188 23.5148 52.9664 24.2294 52.315L25.0531 52.5769L19.2875 63.3119Z" fill="#03095D"/>
</svg>
