<svg width="80" height="80" viewBox="0 0 80 80" fill="none" xmlns="http://www.w3.org/2000/svg">
<g clip-path="url(#clip0)">
<path d="M68.1402 59.6115H42.3336L44.7808 55.9222C45.6377 54.6316 45.9806 53.067 45.7418 51.5363C45.5031 50.0055 44.7001 48.6196 43.4908 47.6512L29.9715 36.8184H8.52713V55.7753H18.4577L37.0623 68.138H73.1014V64.574C73.1016 63.9224 72.9734 63.2771 72.7241 62.6751C72.4748 62.073 72.1094 61.5259 71.6487 61.0651C71.188 60.6043 70.641 60.2387 70.039 59.9893C69.437 59.7399 68.7918 59.6115 68.1402 59.6115Z" fill="#FED9B6"/>
<path d="M8.52713 29.1277H1.08527V63.4676H8.52713V29.1277Z" fill="#54528E"/>
<path d="M39.6899 58.5777C39.4434 58.5781 39.2042 58.4941 39.0121 58.3395L27.5684 49.1718C27.4572 49.0826 27.3646 48.9725 27.296 48.8476C27.2274 48.7227 27.184 48.5855 27.1684 48.4438C27.1528 48.3021 27.1652 48.1588 27.205 48.0219C27.2448 47.8851 27.3112 47.7574 27.4003 47.6462C27.4895 47.535 27.5996 47.4424 27.7245 47.3738C27.8494 47.3052 27.9866 47.2618 28.1283 47.2462C28.27 47.2306 28.4133 47.2431 28.5502 47.2829C28.687 47.3226 28.8147 47.389 28.9259 47.4781L40.3684 56.6434C40.545 56.7836 40.6735 56.9753 40.7361 57.1919C40.7987 57.4085 40.7923 57.6393 40.7176 57.852C40.643 58.0648 40.5039 58.249 40.3197 58.3791C40.1356 58.5091 39.9154 58.5785 39.6899 58.5777Z" fill="#FEBB9C"/>
<path d="M56.9427 15.8211C54.5932 13.4926 51.4171 12.1896 48.1093 12.1972C44.8015 12.2048 41.6314 13.5223 39.2926 15.8616C36.9539 18.2008 35.637 21.3712 35.6301 24.679C35.6232 27.9868 36.9269 31.1627 39.2558 33.5116L56.9427 51.1984L74.6313 33.5116C75.7929 32.3502 76.7144 30.9713 77.3431 29.4537C77.9717 27.9362 78.2954 26.3096 78.2955 24.667C78.2955 23.0244 77.9721 21.3978 77.3436 19.8802C76.715 18.3625 75.7937 16.9836 74.6323 15.822C73.4708 14.6604 72.092 13.739 70.5744 13.1103C69.0568 12.4816 67.4303 12.158 65.7877 12.1579C64.145 12.1578 62.5185 12.4813 61.0008 13.1098C59.4832 13.7383 58.1042 14.6596 56.9427 15.8211Z" fill="#FC30AB"/>
<path d="M56.9427 23.5861L58.7653 27.2791L62.8403 27.8713L59.8915 30.7458L60.5879 34.8047L56.9427 32.8884L53.2974 34.8047L53.9938 30.7458L51.0444 27.8713L55.12 27.2791L56.9427 23.5861Z" fill="#FFF06D"/>
<path d="M75.3984 15.0539C72.9752 12.6363 69.7301 11.2205 66.3097 11.0887C62.8892 10.9568 59.5447 12.1186 56.9426 14.3426C54.3422 12.1149 50.9969 10.9507 47.5754 11.0826C44.1538 11.2145 40.9081 12.6327 38.4868 15.0539C38.386 15.1547 38.3061 15.2743 38.2515 15.406C38.197 15.5377 38.1689 15.6788 38.1689 15.8213C38.1689 15.9638 38.197 16.105 38.2515 16.2367C38.3061 16.3683 38.386 16.488 38.4868 16.5888C38.5876 16.6895 38.7072 16.7695 38.8389 16.824C38.9706 16.8786 39.1117 16.9066 39.2543 16.9066C39.3968 16.9066 39.5379 16.8786 39.6696 16.824C39.8013 16.7695 39.9209 16.6895 40.0217 16.5888C41.0823 15.5281 42.3414 14.6866 43.7272 14.1126C45.113 13.5385 46.5983 13.2431 48.0983 13.2431C49.5983 13.2431 51.0836 13.5385 52.4694 14.1126C53.8551 14.6866 55.1143 15.5281 56.1749 16.5888C56.3785 16.7922 56.6545 16.9064 56.9423 16.9064C57.2301 16.9064 57.5061 16.7922 57.7098 16.5888C58.7683 15.5184 60.028 14.6679 61.4163 14.086C62.8047 13.5042 64.2944 13.2025 65.7998 13.1983C67.3051 13.1942 68.7965 13.4876 70.188 14.0617C71.5796 14.6359 72.844 15.4794 73.9084 16.5439C74.9729 17.6084 75.8164 18.8727 76.3906 20.2643C76.9647 21.6559 77.2582 23.1472 77.254 24.6526C77.2498 26.1579 76.9481 27.6476 76.3663 29.036C75.7844 30.4243 74.9339 31.684 73.8636 32.7426L56.9426 49.6635L40.0217 32.7426C38.7407 31.4576 37.7831 29.8869 37.2278 28.1596C36.6724 26.4323 36.5351 24.5978 36.8273 22.8071C36.8504 22.6664 36.8455 22.5226 36.813 22.3838C36.7805 22.245 36.721 22.114 36.6379 21.9982C36.5548 21.8825 36.4497 21.7842 36.3286 21.709C36.2075 21.6339 36.0727 21.5833 35.9321 21.5602C35.7914 21.5371 35.6476 21.542 35.5088 21.5745C35.3701 21.607 35.2391 21.6665 35.1233 21.7496C35.0075 21.8327 34.9092 21.9378 34.8341 22.059C34.7589 22.1801 34.7084 22.3148 34.6853 22.4554C34.3377 24.5861 34.501 26.7689 35.162 28.8241C35.8229 30.8793 36.9624 32.7481 38.4868 34.2768L56.1749 51.9655C56.2756 52.0664 56.3952 52.1464 56.5269 52.201C56.6586 52.2556 56.7998 52.2837 56.9423 52.2837C57.0849 52.2837 57.226 52.2556 57.3577 52.201C57.4894 52.1464 57.609 52.0664 57.7098 51.9655L75.3984 34.2768C76.661 33.0146 77.6625 31.5161 78.3459 29.8668C79.0292 28.2175 79.3809 26.4497 79.3809 24.6644C79.3809 22.8792 79.0292 21.1114 78.3459 19.4621C77.6625 17.8127 76.661 16.3142 75.3984 15.052V15.0539Z" fill="#091071"/>
<path d="M56.9426 60.6967C57.2305 60.6967 57.5065 60.5823 57.71 60.3788C57.9136 60.1753 58.0279 59.8992 58.0279 59.6114C58.0279 59.3236 57.9136 59.0475 57.71 58.844C57.5065 58.6405 57.2305 58.5261 56.9426 58.5261H54.6481C54.3602 58.5261 54.0842 58.6405 53.8807 58.844C53.6771 59.0475 53.5628 59.3236 53.5628 59.6114C53.5628 59.8992 53.6771 60.1753 53.8807 60.3788C54.0842 60.5823 54.3602 60.6967 54.6481 60.6967H56.9426Z" fill="#091071"/>
<path d="M68.1402 58.5262H62.5966C62.3088 58.5262 62.0327 58.6406 61.8292 58.8441C61.6257 59.0476 61.5113 59.3237 61.5113 59.6115C61.5113 59.8993 61.6257 60.1754 61.8292 60.3789C62.0327 60.5824 62.3088 60.6968 62.5966 60.6968H68.1402C69.1678 60.6979 70.153 61.1066 70.8796 61.8333C71.6062 62.5599 72.015 63.5451 72.0161 64.5727V67.0533H37.3898L19.058 54.8704C18.8802 54.752 18.6713 54.6888 18.4577 54.6887H9.6124V37.9061H29.5876L42.8124 48.5008C43.8145 49.2961 44.4804 50.4396 44.6776 51.7037C44.8748 52.9677 44.5888 54.2597 43.8766 55.3225L42.0862 58.0214L28.9259 47.4788C28.8147 47.3896 28.687 47.3233 28.5502 47.2835C28.4133 47.2437 28.27 47.2312 28.1283 47.2468C27.9866 47.2625 27.8494 47.3058 27.7245 47.3744C27.5996 47.4431 27.4894 47.5356 27.4003 47.6468C27.3112 47.758 27.2448 47.8857 27.205 48.0226C27.1652 48.1594 27.1528 48.3028 27.1684 48.4444C27.184 48.5861 27.2273 48.7233 27.296 48.8482C27.3646 48.9731 27.4572 49.0833 27.5684 49.1724L41.6558 60.4592C41.6701 60.4704 41.6881 60.4741 41.7023 60.4847C41.7706 60.5345 41.8445 60.5762 41.9225 60.6087C41.9516 60.6205 41.9783 60.636 42.0081 60.6453C42.1131 60.6801 42.223 60.6985 42.3336 60.6999H48.9922C49.2801 60.6999 49.5561 60.5855 49.7596 60.382C49.9632 60.1785 50.0775 59.9024 50.0775 59.6146C50.0775 59.3268 49.9632 59.0507 49.7596 58.8472C49.5561 58.6437 49.2801 58.5293 48.9922 58.5293H44.356L45.6856 56.5194C46.6998 55.0058 47.107 53.1659 46.826 51.3657C46.545 49.5655 45.5965 47.9371 44.1693 46.8047L30.6474 35.9737C30.455 35.8193 30.2157 35.7353 29.969 35.7355H9.6124V29.1271C9.61224 28.8394 9.49785 28.5634 9.29435 28.3599C9.09086 28.1564 8.81491 28.042 8.52713 28.0419H1.08527C0.79749 28.042 0.521542 28.1564 0.31805 28.3599C0.114558 28.5634 0.000164306 28.8394 0 29.1271L0 63.4651C0.000164306 63.7529 0.114558 64.0289 0.31805 64.2323C0.521542 64.4358 0.79749 64.5502 1.08527 64.5504H8.52713C8.81491 64.5502 9.09086 64.4358 9.29435 64.2323C9.49785 64.0289 9.61224 63.7529 9.6124 63.4651V56.8592H18.1296L36.4614 69.0403C36.6394 69.1588 36.8485 69.222 37.0623 69.222H73.1014C73.3892 69.2219 73.6651 69.1075 73.8686 68.904C74.0721 68.7005 74.1865 68.4245 74.1867 68.1368V64.5727C74.1849 62.9696 73.5472 61.4327 72.4137 60.2992C71.2801 59.1656 69.7432 58.528 68.1402 58.5262ZM7.44186 62.3823H2.17054V30.2124H7.44186V62.3823Z" fill="#091071"/>
<path d="M63.876 27.5364C63.8134 27.3437 63.6981 27.1724 63.5433 27.0418C63.3885 26.9112 63.2002 26.8264 62.9997 26.7972L59.489 26.2868L57.9188 23.1054C57.829 22.9239 57.6903 22.7711 57.5183 22.6643C57.3463 22.5575 57.1479 22.5009 56.9455 22.5009C56.743 22.5009 56.5446 22.5575 56.3726 22.6643C56.2006 22.7711 56.0619 22.9239 55.9721 23.1054L54.4025 26.2868L50.8918 26.7972C50.6914 26.8263 50.5031 26.9109 50.3483 27.0414C50.1935 27.1719 50.0782 27.3432 50.0157 27.5358C49.9531 27.7284 49.9456 27.9346 49.9941 28.1312C50.0427 28.3278 50.1453 28.507 50.2903 28.6483L52.8329 31.1246L52.2332 34.621C52.199 34.8206 52.2213 35.0258 52.2975 35.2134C52.3738 35.401 52.5011 35.5635 52.6649 35.6825C52.8287 35.8016 53.0226 35.8724 53.2245 35.887C53.4265 35.9016 53.6285 35.8594 53.8078 35.7652L56.9483 34.1144L60.0881 35.7652C60.2673 35.8597 60.4694 35.9021 60.6715 35.8876C60.8736 35.8731 61.0676 35.8022 61.2315 35.6831C61.3954 35.564 61.5226 35.4014 61.5988 35.2137C61.6751 35.026 61.6972 34.8207 61.6627 34.621L61.0636 31.1246L63.6062 28.6483C63.7504 28.5066 63.8521 28.3273 63.8998 28.1308C63.9474 27.9343 63.9392 27.7284 63.876 27.5364ZM59.1368 29.9686C59.0111 30.0916 58.9171 30.2433 58.8631 30.4106C58.8091 30.578 58.7966 30.756 58.8267 30.9292L59.1504 32.8207L57.4518 31.9277C57.296 31.8458 57.1227 31.8031 56.9467 31.8031C56.7707 31.8031 56.5974 31.8458 56.4416 31.9277L54.743 32.8207L55.0673 30.9292C55.0974 30.756 55.0849 30.578 55.0308 30.4107C54.9768 30.2433 54.8829 30.0916 54.7572 29.9686L53.383 28.6291L55.2819 28.3531C55.4561 28.3279 55.6216 28.2606 55.764 28.1571C55.9064 28.0536 56.0215 27.9169 56.0993 27.759L56.9489 26.0381L57.7979 27.759C57.8757 27.9169 57.9908 28.0534 58.1332 28.1569C58.2756 28.2604 58.441 28.3278 58.6152 28.3531L60.5148 28.6291L59.1368 29.9686Z" fill="#091071"/>
</g>
<defs>
<clipPath id="clip0">
<rect width="80" height="58.2946" fill="white" transform="translate(0 11)"/>
</clipPath>
</defs>
</svg>
