<svg width="106" height="97" viewBox="0 0 106 97" fill="none" xmlns="http://www.w3.org/2000/svg">
<path fill-rule="evenodd" clip-rule="evenodd" d="M44.2 48.2L44.2 0H0L0 52.2C0 66.3333 2.96667 77.3333 8.9 85.2C14.8333 93.0667 23.4 97 34.6 97C37.2667 97 40.4667 96.6667 44.2 96L41.8 77.4C34.4667 77.9333 29.1333 76.1333 25.8 72C22.4667 67.8667 20.8 62.0667 20.8 54.6C20.8 53.2667 20.9333 51.1333 21.2 48.2L44.2 48.2ZM105.8 48.2L105.8 0H61.6L61.6 52.2C61.6 66.3333 64.5667 77.3333 70.5 85.2C76.4333 93.0667 85 97 96.2 97C98.8667 97 102.067 96.6667 105.8 96L103.4 77.4C96.0667 77.9333 90.7333 76.1333 87.4 72C84.0667 67.8667 82.4 62.0667 82.4 54.6C82.4 53.2667 82.5333 51.1333 82.8 48.2L105.8 48.2Z" fill="#091071"/>
</svg>
