<svg width="75" height="75" viewBox="0 0 75 75" fill="none" xmlns="http://www.w3.org/2000/svg">
<path d="M73.2631 28.3815V50.9868H2.68089L1.73682 28.3815L37.5 1.40784L73.2631 28.3815Z" fill="#ADD3D8"/>
<path d="M65.0416 14.8921H9.95801V54.3355H65.0416V14.8921Z" fill="#FFF5F5"/>
<path d="M73.2631 28.3815V67.0131C73.2639 67.8772 73.0943 68.7331 72.7639 69.5316C72.4336 70.3302 71.949 71.0557 71.3379 71.6668C70.7269 72.2779 70.0013 72.7624 69.2028 73.0928C68.4042 73.4231 67.5484 73.5928 66.6842 73.592H65.9868L43.7368 50.9867L73.2631 28.3815Z" fill="#EFF7F7"/>
<path d="M31.2631 50.9867L9.01313 73.592H8.31577C7.45159 73.5928 6.59574 73.4231 5.79719 73.0928C4.99864 72.7624 4.27308 72.2779 3.66201 71.6668C3.05094 71.0557 2.56637 70.3302 2.23602 69.5316C1.90568 68.7331 1.73604 67.8772 1.73682 67.0131V28.3815L31.2631 50.9867Z" fill="#EFF7F7"/>
<path d="M65.9869 73.5921H9.01318L31.2632 50.9869L34.3619 47.8356C34.7719 47.4198 35.2605 47.0897 35.7992 46.8644C36.338 46.6391 36.9161 46.5231 37.5 46.5231C38.084 46.5231 38.6621 46.6391 39.2008 46.8644C39.7395 47.0897 40.2281 47.4198 40.6382 47.8356L43.7369 50.9869L65.9869 73.5921Z" fill="#D7EAEC"/>
<path d="M39.8618 72.4408H29.1381C28.8328 72.4408 28.5399 72.5621 28.324 72.778C28.1081 72.9939 27.9868 73.2868 27.9868 73.5921C27.9868 73.8975 28.1081 74.1903 28.324 74.4062C28.5399 74.6221 28.8328 74.7434 29.1381 74.7434H39.8618C40.1672 74.7434 40.46 74.6221 40.6759 74.4062C40.8918 74.1903 41.0131 73.8975 41.0131 73.5921C41.0131 73.2868 40.8918 72.9939 40.6759 72.778C40.46 72.5621 40.1672 72.4408 39.8618 72.4408Z" fill="black"/>
<path d="M73.964 27.4697L73.9568 27.4618L66.1936 21.6066V14.8947C66.1936 14.5894 66.0723 14.2965 65.8564 14.0806C65.6405 13.8647 65.3477 13.7434 65.0423 13.7434H55.7673L38.1936 0.488136C37.9938 0.337626 37.7504 0.256226 37.5002 0.256226C37.25 0.256226 37.0066 0.337626 36.8068 0.488136L19.2331 13.7434H9.96073C9.65538 13.7434 9.36254 13.8647 9.14662 14.0806C8.93071 14.2965 8.80941 14.5894 8.80941 14.8947V21.6052L1.04625 27.4605L1.03967 27.4677C0.811988 27.6413 0.658113 27.8943 0.608753 28.1763C0.597735 28.238 0.591575 28.3005 0.590332 28.3631C0.590332 28.3691 0.590332 28.3743 0.590332 28.3802V67.0118C0.592596 69.0613 1.40776 71.0262 2.85697 72.4754C4.30619 73.9247 6.2711 74.7398 8.3206 74.7421H22.0068C22.3121 74.7421 22.605 74.6208 22.8209 74.4049C23.0368 74.189 23.1581 73.8961 23.1581 73.5908C23.1581 73.2854 23.0368 72.9926 22.8209 72.7767C22.605 72.5607 22.3121 72.4395 22.0068 72.4395H11.762L35.1831 48.6421C35.4859 48.335 35.8467 48.0912 36.2445 47.9248C36.6423 47.7583 37.0693 47.6726 37.5005 47.6726C37.9318 47.6726 38.3587 47.7583 38.7565 47.9248C39.1544 48.0912 39.5152 48.335 39.818 48.6421L63.239 72.4408H46.987C46.6817 72.4408 46.3889 72.5621 46.1729 72.778C45.957 72.9939 45.8357 73.2867 45.8357 73.5921C45.8357 73.8974 45.957 74.1903 46.1729 74.4062C46.3889 74.6221 46.6817 74.7434 46.987 74.7434H66.6844C68.7339 74.7411 70.6988 73.926 72.148 72.4768C73.5973 71.0275 74.4124 69.0626 74.4147 67.0131V49.6184C74.4147 49.313 74.2934 49.0202 74.0775 48.8043C73.8615 48.5884 73.5687 48.4671 73.2634 48.4671C72.958 48.4671 72.6652 48.5884 72.4493 48.8043C72.2333 49.0202 72.112 49.313 72.112 49.6184V67.0131C72.1105 68.4522 71.5381 69.8318 70.5206 70.8493C69.5031 71.8669 68.1234 72.4392 66.6844 72.4408H66.4693L45.4745 51.1085L72.112 30.7138V42.4934C72.112 42.7987 72.2333 43.0916 72.4493 43.3075C72.6652 43.5234 72.958 43.6447 73.2634 43.6447C73.5687 43.6447 73.8615 43.5234 74.0775 43.3075C74.2934 43.0916 74.4147 42.7987 74.4147 42.4934V28.3816V28.3664C74.4126 28.1925 74.3709 28.0214 74.2929 27.8661C74.2148 27.7107 74.1023 27.5751 73.964 27.4697ZM66.191 29.5329H69.8686L66.1943 32.346L66.191 29.5329ZM69.8252 27.2302H66.191V24.4881L69.8252 27.2302ZM37.5002 2.84998L51.943 13.7434H23.0574L37.5002 2.84998ZM5.13507 29.5329H8.80941V32.346L5.13507 29.5329ZM8.80941 24.4881V27.2302H5.1752L8.80941 24.4881ZM8.53112 72.4408H8.31599C6.87697 72.4392 5.49734 71.8669 4.47981 70.8493C3.46227 69.8318 2.88993 68.4522 2.88836 67.0131V30.7131L29.5259 51.1079L8.53112 72.4408ZM41.4588 47.0276C40.9418 46.5026 40.3255 46.0856 39.6459 45.801C38.9662 45.5164 38.2367 45.3698 37.4999 45.3698C36.763 45.3698 36.0336 45.5164 35.3539 45.801C34.6742 46.0856 34.058 46.5026 33.541 47.0276L31.1535 49.4539L11.112 34.1092V16.046H63.8884V34.1092L43.8463 49.4546L41.4588 47.0276Z" fill="black"/>
</svg>
