<svg width="32" height="42" viewBox="0 0 32 42" fill="none" xmlns="http://www.w3.org/2000/svg">
<g clip-path="url(#clip0)">
<path d="M7.15852 4.20007L7.62797 5.72622L1.57259 7.66029L1.07641 6.09897C0.948928 5.69844 0.901971 5.27664 0.938247 4.85788C0.974523 4.43912 1.09331 4.03168 1.28777 3.65904C1.48223 3.2864 1.74852 2.95592 2.07128 2.68666C2.39404 2.4174 2.7669 2.21468 3.16837 2.09018C3.56888 1.96594 3.98998 1.92199 4.40752 1.96085C4.82506 1.99972 5.23081 2.12063 5.60152 2.31665C5.97223 2.51267 6.30059 2.77994 6.56778 3.10314C6.83496 3.42634 7.03571 3.79911 7.15852 4.20007Z" fill="#FC30AB"/>
<path d="M11.2422 24L9.22026 24.647L3.90369 7.95779L5.92215 7.31427L11.2422 24Z" fill="#E17F29"/>
<path d="M8.13715 7.31423L6.11869 7.96126L4.10023 8.60478L2.08176 9.2483L1.47693 7.35643L7.53231 5.42236L8.13715 7.31423Z" fill="#5A7983"/>
<path d="M4.10016 8.60411L2.08179 9.24829L7.2018 25.2904L9.22017 24.6463L4.10016 8.60411Z" fill="#FCAF29"/>
<path d="M13.2607 23.3565L11.2422 24L6.11871 7.9613L8.13717 7.31427L13.2607 23.3565Z" fill="#FCAF29"/>
<path d="M7.20282 25.2905L12.4294 31.2088L13.2596 23.3568L7.20282 25.2905Z" fill="#FFD18B"/>
<path d="M31.1666 2.75342L27.0242 20.7367L20.8668 19.3196L21.3591 17.1886L21.6334 15.9895L22.08 14.0589L22.3543 12.8598H22.3578L22.8009 10.9257L23.0787 9.72661L23.5218 7.79606L23.7996 6.59694L24.2462 4.66287L24.5205 3.46375L25.0128 1.33276L31.1666 2.75342Z" fill="#FC30AB"/>
<path d="M18.6057 16.9424C18.6057 23.0892 17.5332 28.0686 16.2075 28.0686C14.8818 28.0686 13.8092 23.0892 13.8092 16.9424C13.8053 15.2863 13.8898 13.6312 14.0624 11.9842C15.4924 11.8479 16.9328 11.8632 18.3596 12.0299C18.5278 13.662 18.6099 15.3017 18.6057 16.9424Z" fill="#E17F29"/>
<path d="M18.3596 12.0299C16.9328 11.8632 15.4924 11.8479 14.0624 11.9842C14.4528 8.33053 15.2686 5.81976 16.2075 5.81976C17.1534 5.81976 17.9692 8.35163 18.3596 12.0299Z" fill="#FC30AB"/>
<path d="M18.2098 4.87137C18.2098 7.11454 17.3134 8.02847 16.2078 8.02847C15.1023 8.02847 14.2059 7.11418 14.2059 4.87137C14.2059 2.62856 16.2078 0.808777 16.2078 0.808777C16.2078 0.808777 18.2098 2.62821 18.2098 4.87137Z" fill="#FFD18B"/>
<path d="M21.2575 40.6857H11.1582C9.87678 40.6857 8.7399 39.7109 8.33937 38.2681L3.62201 22.3275H28.7958L24.0763 38.267C23.6758 39.7098 22.5407 40.6857 21.2575 40.6857Z" fill="#FAD37B"/>
<path d="M28.7944 18.6373H3.62094V22.3275H28.7944V18.6373Z" fill="#6BDA59"/>
<path d="M31.3048 2.15381L25.1509 0.733148C24.9918 0.696411 24.8246 0.724379 24.6862 0.8109C24.5477 0.897421 24.4492 1.03541 24.4125 1.19451C23.7387 4.11987 22.2896 10.4088 20.5363 18.0219H19.2081C19.2728 14.9535 19.0632 10.5213 18.1563 7.60682C18.5431 7.04629 18.8244 6.18721 18.8244 4.87135C18.8244 2.38449 16.7107 0.436005 16.621 0.354071C16.5077 0.251202 16.3601 0.194214 16.2071 0.194214C16.0541 0.194214 15.9065 0.251202 15.7932 0.354071C15.7032 0.436005 13.5898 2.38449 13.5898 4.87135C13.5898 6.18581 13.8711 7.04488 14.2579 7.60541C13.3584 10.4977 13.1421 14.9513 13.2065 18.0219H12.2022L7.71094 3.96022C7.55945 3.48562 7.31596 3.0455 6.99437 2.66499C6.67279 2.28449 6.27941 1.97105 5.83669 1.74257C5.39398 1.51409 4.91059 1.37505 4.41414 1.33339C3.91769 1.29172 3.41789 1.34825 2.94329 1.49974C2.46868 1.65123 2.02856 1.89472 1.64806 2.2163C1.26755 2.53789 0.954111 2.93127 0.725634 3.37398C0.497157 3.8167 0.358117 4.30008 0.316452 4.79653C0.274787 5.29299 0.331314 5.79278 0.482804 6.26739L4.23524 18.0219H3.62197C3.54108 18.0218 3.46097 18.0377 3.3862 18.0686C3.31144 18.0995 3.24349 18.1448 3.18625 18.2019C3.129 18.2591 3.08358 18.3269 3.05257 18.4016C3.02156 18.4763 3.00558 18.5564 3.00553 18.6373C3.01678 22.3469 2.98302 22.3177 3.02979 22.4889C3.02979 22.4928 3.02979 22.4967 3.0319 22.5005L3.70004 24.7616C3.74831 24.9157 3.85522 25.0447 3.99771 25.1207C4.14021 25.1967 4.30686 25.2136 4.46172 25.1678C4.61659 25.122 4.74725 25.0172 4.82553 24.876C4.90381 24.7347 4.92343 24.5684 4.88017 24.4128L4.44588 22.9429H27.9687L23.4845 38.1014C23.1571 39.2791 22.2621 40.0706 21.2571 40.0706H11.1578C10.1531 40.0706 9.25889 39.2794 8.92799 38.093L8.68887 37.2807C8.66727 37.2018 8.63016 37.128 8.5797 37.0636C8.52925 36.9992 8.46647 36.9455 8.39503 36.9057C8.32359 36.8659 8.24492 36.8407 8.16363 36.8316C8.08234 36.8225 8.00005 36.8297 7.92159 36.8528C7.84312 36.8759 7.77004 36.9144 7.70663 36.9661C7.64322 37.0178 7.59074 37.0816 7.55227 37.1537C7.5138 37.2259 7.4901 37.305 7.48256 37.3865C7.47503 37.4679 7.48381 37.5501 7.50839 37.6281L7.74469 38.4316C8.22188 40.148 9.59366 41.3014 11.1578 41.3014H21.2571C22.8213 41.3014 24.193 40.148 24.6681 38.4411L29.3837 22.5012V22.4953C29.3975 22.4404 29.4062 22.3843 29.4097 22.3279V18.6373C29.4097 18.4741 29.3448 18.3177 29.2294 18.2023C29.114 18.0869 28.9575 18.022 28.7944 18.0219H28.2831L28.7947 15.8041C28.8288 15.6461 28.7993 15.4809 28.7127 15.3445C28.626 15.208 28.4891 15.1111 28.3316 15.0747C28.174 15.0384 28.0085 15.0655 27.8708 15.1502C27.7331 15.2349 27.6342 15.3703 27.5956 15.5273L27.0199 18.0219H21.7983L21.9587 17.3271L24.4357 17.8989C24.5935 17.9322 24.758 17.9023 24.894 17.8155C25.0299 17.7288 25.1263 17.5921 25.1626 17.435C25.1988 17.2779 25.1719 17.1128 25.0876 16.9753C25.0034 16.8378 24.8685 16.7388 24.7121 16.6997L22.2347 16.128L22.6813 14.196L25.1583 14.7671C25.3174 14.8038 25.4845 14.7758 25.6229 14.6893C25.7614 14.6027 25.8597 14.4648 25.8964 14.3057C25.9331 14.1467 25.9051 13.9795 25.8186 13.8411C25.7321 13.7027 25.5941 13.6043 25.4351 13.5676L22.9574 12.9965L23.4029 11.0646L25.8803 11.6357C25.9596 11.6555 26.0421 11.6593 26.1229 11.6469C26.2037 11.6345 26.2812 11.6061 26.3509 11.5633C26.4206 11.5206 26.4811 11.4645 26.5289 11.3981C26.5767 11.3317 26.6107 11.2565 26.6291 11.1768C26.6475 11.0972 26.6498 11.0146 26.6359 10.9341C26.622 10.8535 26.5922 10.7765 26.5482 10.7076C26.5042 10.6387 26.4469 10.5792 26.3797 10.5326C26.3125 10.4861 26.2366 10.4534 26.1567 10.4365L23.6789 9.86546L24.1231 7.9335L26.6008 8.50458C26.68 8.52406 26.7623 8.5276 26.8428 8.515C26.9234 8.5024 27.0007 8.47391 27.0702 8.43119C27.1396 8.38846 27.1999 8.33235 27.2475 8.26612C27.2951 8.19989 27.3291 8.12486 27.3474 8.04539C27.3657 7.96592 27.3681 7.8836 27.3543 7.80321C27.3406 7.72282 27.311 7.64597 27.2673 7.57712C27.2235 7.50827 27.1666 7.4488 27.0997 7.40216C27.0328 7.35552 26.9573 7.32265 26.8775 7.30546L24.3995 6.73438L24.8447 4.80242C27.4226 5.39108 27.3347 5.38968 27.4616 5.38968C27.6129 5.38977 27.7589 5.33412 27.8718 5.23336C27.9847 5.13261 28.0565 4.99381 28.0735 4.84347C28.0905 4.69314 28.0515 4.5418 27.964 4.41838C27.8765 4.29496 27.7466 4.20809 27.5991 4.17438L25.121 3.6033L25.4727 2.07082L30.4274 3.21473L28.4483 11.8153C28.4302 11.8941 28.4278 11.9757 28.4412 12.0554C28.4546 12.1351 28.4835 12.2113 28.5264 12.2799C28.5693 12.3484 28.6252 12.4077 28.6911 12.4546C28.7569 12.5015 28.8313 12.535 28.9101 12.5531C28.9888 12.5712 29.0704 12.5737 29.1501 12.5603C29.2298 12.5469 29.3061 12.5179 29.3746 12.475C29.4431 12.4322 29.5025 12.3762 29.5493 12.3104C29.5962 12.2446 29.6297 12.1701 29.6478 12.0914L31.7647 2.89227C31.783 2.81358 31.7857 2.73205 31.7725 2.65235C31.7592 2.57264 31.7305 2.49632 31.6878 2.42775C31.645 2.35917 31.5892 2.29968 31.5235 2.25268C31.4578 2.20567 31.3835 2.17208 31.3048 2.15381ZM28.1793 19.2527V21.7107H4.2363V19.2527H28.1793ZM2.25054 7.75521L7.13318 6.196L7.36316 6.91653L2.47982 8.47469L2.25054 7.75521ZM5.7199 8.7335L8.68571 18.0219H7.75313L4.87349 9.00216L5.7199 8.7335ZM16.2085 8.64418C16.5225 8.64216 16.833 8.57897 17.1228 8.45816C17.3645 9.40866 17.5442 10.3739 17.6608 11.3477C16.6961 11.2725 15.7274 11.2635 14.7615 11.3209C14.877 10.356 15.0552 9.3996 15.2949 8.45781C15.5843 8.57832 15.8943 8.64161 16.2078 8.64418H16.2085ZM16.2085 1.70405C16.7402 2.32154 17.594 3.52313 17.594 4.87135C17.594 5.8208 17.414 7.41341 16.2075 7.41341C15.001 7.41341 14.8209 5.8208 14.8209 4.87135C14.8213 3.52981 15.6772 2.32365 16.2089 1.70405H16.2085ZM14.6261 12.563C15.6809 12.4898 16.7399 12.5008 17.793 12.5957C17.9585 14.3994 18.0198 16.2112 17.9766 18.0219H14.438C14.3943 16.2002 14.4572 14.3774 14.6265 12.563H14.6261ZM9.97907 18.0219L6.8923 8.35899L7.73625 8.08787L10.9081 18.0209L9.97907 18.0219ZM3.31639 2.66792C3.63725 2.56462 3.97537 2.5258 4.31129 2.55368C4.64721 2.58156 4.9743 2.6756 5.27374 2.83039C5.57318 2.98517 5.83905 3.19765 6.05606 3.45558C6.27306 3.71352 6.43692 4.01182 6.53819 4.33332L6.75867 5.02396L1.87533 6.58282L1.6552 5.89288C1.44913 5.24492 1.50825 4.54171 1.81961 3.93725C2.13096 3.33279 2.66918 2.87635 3.31639 2.66792ZM2.85397 9.64814L3.70109 9.37772L6.46118 18.0219H5.5272L2.85397 9.64814Z" fill="#091071"/>
<path d="M7.60545 33.626L5.96325 28.0667C5.94168 27.9878 5.90457 27.9139 5.85408 27.8494C5.8036 27.7849 5.74075 27.7312 5.66924 27.6913C5.59772 27.6515 5.51896 27.6263 5.43759 27.6172C5.35621 27.6082 5.27384 27.6155 5.19532 27.6387C5.11679 27.6618 5.04368 27.7005 4.98027 27.7523C4.91686 27.8041 4.86443 27.868 4.82604 27.9403C4.78765 28.0127 4.76408 28.0919 4.75671 28.1735C4.74934 28.255 4.75832 28.3372 4.78312 28.4152L6.42531 33.9748C6.47359 34.1289 6.5805 34.2578 6.72299 34.3338C6.86549 34.4098 7.03214 34.4268 7.187 34.381C7.34186 34.3352 7.47253 34.2304 7.55081 34.0891C7.62909 33.9479 7.64871 33.7815 7.60545 33.626Z" fill="#091071"/>
</g>
<defs>
<clipPath id="clip0">
<rect width="32" height="41.4945" fill="white"/>
</clipPath>
</defs>
</svg>
