<svg width="32" height="27" viewBox="0 0 32 27" fill="none" xmlns="http://www.w3.org/2000/svg">
<path d="M25.9203 6.84037L16.4766 16.2872L19.9864 19.7973L27.2068 12.5769V23.5825C27.2071 23.8218 27.1602 24.0587 27.0688 24.2798C26.9774 24.501 26.8433 24.7019 26.6741 24.871C26.5049 25.0402 26.304 25.1744 26.0829 25.2658C25.8618 25.3572 25.6248 25.4041 25.3855 25.4038H2.5263C2.28703 25.4041 2.05006 25.3572 1.82895 25.2658C1.60784 25.1744 1.40694 25.0402 1.23776 24.871C1.06858 24.7019 0.934433 24.501 0.843017 24.2798C0.7516 24.0587 0.704705 23.8218 0.705019 23.5825V7.85858L7.96289 0.60071H25.3859C25.6251 0.600396 25.8621 0.647279 26.0831 0.738674C26.3042 0.83007 26.5051 0.964181 26.6743 1.13333C26.8435 1.30248 26.9776 1.50334 27.0691 1.72441C27.1605 1.94548 27.2074 2.18241 27.2072 2.42165V5.55356L25.9203 6.84037Z" fill="#FAD37B"/>
<path d="M19.9867 19.7967L15.2003 21.0733L16.4769 16.2866L19.9867 19.7967Z" fill="#FF009A"/>
<path d="M30.8735 8.90999L29.4301 10.3534L27.2072 8.12667L25.9203 6.83986L27.3638 5.39679C27.6637 5.09744 28.0702 4.92932 28.494 4.92932C28.9177 4.92932 29.3242 5.09744 29.6242 5.39679L30.8735 6.64922C31.0224 6.79742 31.1406 6.97356 31.2212 7.16755C31.3018 7.36153 31.3433 7.56953 31.3433 7.7796C31.3433 7.98967 31.3018 8.19767 31.2212 8.39166C31.1406 8.58564 31.0224 8.76179 30.8735 8.90999Z" fill="#FF009A"/>
<path d="M29.4301 10.3534L19.9867 19.7968L16.4769 16.2867L25.9203 6.83984L27.2071 8.12665L29.4301 10.3534Z" fill="#FC30AB"/>
<path d="M0.705017 7.85835H6.14332C6.38259 7.85858 6.61956 7.81164 6.84068 7.72023C7.0618 7.62882 7.26274 7.49473 7.43201 7.32562C7.60128 7.15651 7.73556 6.95569 7.82718 6.73465C7.9188 6.51362 7.96595 6.27669 7.96595 6.03742V0.599121L0.705017 7.85835Z" fill="#FF8A5B"/>
<path d="M12.5127 22.3952C12.0437 22.3978 11.577 22.33 11.1282 22.194C10.5933 22.0294 10.0989 21.7542 9.67732 21.3862C9.2557 21.0182 8.91619 20.5656 8.68085 20.0578C8.00612 18.6757 8.52255 17.3048 8.97804 16.0959C9.18529 15.5886 9.35239 15.0658 9.47778 14.5324C9.70144 13.4301 9.48902 12.084 8.49361 11.7334C8.23916 11.661 7.97283 11.6401 7.71021 11.6719C7.44759 11.7037 7.19395 11.7876 6.96413 11.9186C6.73431 12.0496 6.53292 12.2252 6.37176 12.435C6.2106 12.6447 6.09289 12.8846 6.02553 13.1404C6.01186 13.2186 5.98268 13.2934 5.93972 13.3602C5.89675 13.427 5.84087 13.4845 5.77535 13.5294C5.70983 13.5744 5.63599 13.6057 5.55817 13.6217C5.48036 13.6377 5.40014 13.6379 5.32222 13.6224C5.24431 13.607 5.17027 13.5761 5.10447 13.5316C5.03866 13.4871 4.98241 13.4299 4.93902 13.3634C4.89564 13.2968 4.86599 13.2223 4.85182 13.1441C4.83765 13.0659 4.83924 12.9857 4.85651 12.9082C4.9574 12.4851 5.1441 12.0873 5.40505 11.7393C5.66599 11.3913 5.99562 11.1006 6.3735 10.8853C6.75139 10.6699 7.16948 10.5344 7.60186 10.4872C8.03424 10.4401 8.47171 10.4822 8.88715 10.611C10.5634 11.2017 10.977 13.1257 10.6431 14.7703C10.5057 15.3665 10.321 15.9507 10.0905 16.5174C9.66638 17.6432 9.30008 18.6161 9.75012 19.5366C9.91378 19.8983 10.1526 20.2209 10.4507 20.483C10.7487 20.7452 11.0992 20.9408 11.4788 21.057C12.6422 21.3454 13.8722 21.1661 14.9048 20.5576C15.0417 20.4832 15.2022 20.4654 15.352 20.508C15.5018 20.5505 15.629 20.65 15.7063 20.7851C15.7837 20.9203 15.805 21.0804 15.7658 21.2311C15.7266 21.3818 15.6299 21.5111 15.4965 21.5914C14.5854 22.1063 13.5591 22.3828 12.5127 22.3952Z" fill="#2970D6"/>
<path d="M18.2917 7.64111C18.2917 8.08959 18.1588 8.52801 17.9096 8.90091C17.6604 9.27381 17.3063 9.56445 16.8919 9.73607C16.4776 9.9077 16.0217 9.95261 15.5818 9.86511C15.1419 9.77762 14.7379 9.56165 14.4207 9.24453C14.1036 8.9274 13.8877 8.52336 13.8002 8.08349C13.7127 7.64362 13.7576 7.18769 13.9292 6.77335C14.1008 6.359 14.3915 6.00485 14.7644 5.75569C15.1373 5.50653 15.5757 5.37354 16.0242 5.37354C16.6256 5.37354 17.2023 5.61244 17.6276 6.03769C18.0528 6.46295 18.2917 7.03971 18.2917 7.64111Z" fill="#2970D6"/>
<path d="M31.2953 6.22973L30.0443 4.97526C29.7557 4.68907 29.3936 4.48837 28.998 4.39541C28.6023 4.30246 28.1887 4.32088 27.8029 4.44862V2.42105C27.8023 1.78021 27.5474 1.1658 27.0943 0.712654C26.6411 0.259512 26.0267 0.0046592 25.3859 0.00402832H22.9535C22.7955 0.00402832 22.644 0.0667943 22.5323 0.178518C22.4206 0.290242 22.3578 0.441772 22.3578 0.599773C22.3578 0.757774 22.4206 0.909305 22.5323 1.02103C22.644 1.13275 22.7955 1.19552 22.9535 1.19552H25.3859C25.7109 1.19552 26.0226 1.32464 26.2525 1.55447C26.4823 1.7843 26.6114 2.09602 26.6114 2.42105V5.3065L25.4979 6.41867L16.0545 15.8655L16.0524 15.8682C16.0202 15.9013 15.9919 15.9381 15.9683 15.9778C15.9619 15.9884 15.9568 15.9996 15.951 16.0119C15.9337 16.0445 15.9196 16.0787 15.9088 16.114C15.9067 16.1211 15.9023 16.1273 15.9003 16.1348L14.6931 20.6638C13.7069 21.1866 12.5622 21.3263 11.4792 21.0559C11.0994 20.9399 10.7488 20.7443 10.4506 20.4822C10.1524 20.22 9.91348 19.8973 9.74979 19.5356C9.30043 18.6165 9.66673 17.6422 10.0902 16.5164C10.3206 15.9497 10.5054 15.3654 10.6427 14.7693C10.9763 13.1247 10.5627 11.2006 8.88681 10.61C8.47135 10.4812 8.03388 10.4392 7.60149 10.4864C7.16911 10.5336 6.75102 10.6691 6.37315 10.8845C5.99527 11.0999 5.66565 11.3906 5.40471 11.7386C5.14377 12.0866 4.95707 12.4844 4.85617 12.9075C4.84088 12.9843 4.84087 13.0633 4.85612 13.1401C4.87138 13.2169 4.90161 13.2899 4.9451 13.3551C4.98858 13.4202 5.04446 13.4761 5.10954 13.5196C5.17463 13.5631 5.24765 13.5933 5.32443 13.6086C5.40121 13.6239 5.48025 13.6239 5.55704 13.6087C5.63383 13.5934 5.70686 13.5632 5.77196 13.5197C5.83706 13.4762 5.89297 13.4203 5.93647 13.3553C5.97998 13.2902 6.01025 13.2171 6.02553 13.1404C6.09311 12.8849 6.21087 12.6455 6.37197 12.436C6.53306 12.2266 6.73425 12.0513 6.96381 11.9204C7.19336 11.7895 7.44668 11.7057 7.70899 11.6737C7.97129 11.6418 8.23733 11.6624 8.49158 11.7344C9.48664 12.085 9.69907 13.4311 9.47575 14.5334C9.35043 15.0668 9.18322 15.5895 8.97566 16.0966C8.52017 17.3058 8.00409 18.6764 8.67847 20.0588C8.91432 20.5669 9.25444 21.0198 9.67672 21.3878C10.099 21.7559 10.594 22.0311 11.1295 22.1953C11.5784 22.331 12.0451 22.3988 12.514 22.3965C13.5308 22.3838 14.5289 22.1212 15.4203 21.6319L20.1413 20.3724C20.1488 20.3703 20.1546 20.3659 20.162 20.3639C20.1973 20.3529 20.2315 20.3387 20.2642 20.3216C20.2751 20.3155 20.286 20.3107 20.2965 20.3043C20.3363 20.2808 20.3731 20.2525 20.4061 20.2202L20.4089 20.2178L26.6114 14.0142V23.5819C26.6114 23.9069 26.4823 24.2186 26.2525 24.4485C26.0226 24.6783 25.7109 24.8074 25.3859 24.8074H2.5263C2.20127 24.8074 1.88955 24.6783 1.65972 24.4485C1.42989 24.2186 1.30077 23.9069 1.30077 23.5819V8.45407H6.14332C6.78416 8.45344 7.39857 8.19859 7.85172 7.74544C8.30486 7.2923 8.55971 6.67789 8.56034 6.03705V1.19586H16C16.158 1.19586 16.3095 1.13309 16.4213 1.02137C16.533 0.909645 16.5957 0.758115 16.5957 0.600114C16.5957 0.442113 16.533 0.290582 16.4213 0.178858C16.3095 0.0671345 16.158 0.00436921 16 0.00436921H7.9629C7.92931 0.00473735 7.89582 0.00804047 7.86281 0.0142413C7.856 0.0142413 7.84919 0.0142411 7.84238 0.0169645C7.79444 0.0274552 7.74801 0.0439248 7.70417 0.0659861C7.69192 0.0717734 7.68 0.0782412 7.66809 0.0853901C7.62192 0.110722 7.57933 0.14209 7.54145 0.178667L0.283917 7.43688C0.247132 7.47467 0.215639 7.51727 0.1903 7.56352C0.183832 7.57475 0.178045 7.58565 0.172257 7.59756C0.149104 7.64343 0.131833 7.69204 0.120853 7.74224V7.74496C0.113509 7.78242 0.109748 7.8205 0.109619 7.85867V23.5819C0.11025 24.2227 0.365102 24.8372 0.818245 25.2903C1.27139 25.7434 1.8858 25.9983 2.52664 25.9989H25.3862C26.0271 25.9983 26.6415 25.7434 27.0946 25.2903C27.5478 24.8372 27.8026 24.2227 27.8032 23.5819V12.8228L29.8516 10.7741L31.2943 9.33169C31.4985 9.12822 31.6606 8.88643 31.7712 8.62019C31.8818 8.35395 31.9387 8.06849 31.9387 7.7802C31.9387 7.49191 31.8818 7.20645 31.7712 6.94021C31.6606 6.67396 31.4985 6.43217 31.2943 6.22871L31.2953 6.22973ZM7.36817 6.03841C7.36817 6.36344 7.23905 6.67516 7.00922 6.90499C6.77939 7.13483 6.46767 7.26394 6.14264 7.26394H2.14468L7.36953 2.03841L7.36817 6.03841ZM26.7867 12.1531L26.785 12.1552L19.9867 18.9535L18.6529 17.6204L17.3192 16.2869L25.92 7.68267L28.5879 10.353L26.7867 12.1531ZM16.7864 17.4389L17.8104 18.4629L18.8347 19.4869L16.0409 20.2325L16.7864 17.4389ZM30.4535 8.48743L29.4322 9.50871L26.7643 6.83875L27.6293 5.97373V5.97203L27.7849 5.81645C27.9733 5.62946 28.228 5.52453 28.4935 5.52453C28.7589 5.52453 29.0136 5.62946 29.202 5.81645L30.4535 7.07092C30.5467 7.16375 30.6206 7.27408 30.6711 7.39556C30.7215 7.51704 30.7475 7.64729 30.7475 7.77884C30.7475 7.91038 30.7215 8.04063 30.6711 8.16212C30.6206 8.2836 30.5467 8.39392 30.4535 8.48675V8.48743Z" fill="#091071"/>
<path d="M19.2967 1.19588H19.6463C19.8043 1.19588 19.9558 1.13312 20.0675 1.02139C20.1793 0.90967 20.242 0.758141 20.242 0.600139C20.242 0.442138 20.1793 0.290607 20.0675 0.178884C19.9558 0.0671599 19.8043 0.00439454 19.6463 0.00439453H19.2967C19.1387 0.00439454 18.9871 0.0671599 18.8754 0.178884C18.7637 0.290607 18.7009 0.442138 18.7009 0.600139C18.7009 0.758141 18.7637 0.90967 18.8754 1.02139C18.9871 1.13312 19.1387 1.19588 19.2967 1.19588Z" fill="#091071"/>
<path d="M13.1609 7.64115C13.1609 8.20746 13.3288 8.76105 13.6434 9.23192C13.958 9.70279 14.4052 10.0698 14.9284 10.2865C15.4516 10.5032 16.0274 10.5599 16.5828 10.4495C17.1382 10.339 17.6484 10.0663 18.0489 9.66582C18.4493 9.26538 18.722 8.75519 18.8325 8.19976C18.943 7.64433 18.8863 7.06861 18.6695 6.54541C18.4528 6.0222 18.0858 5.57501 17.615 5.26039C17.1441 4.94576 16.5905 4.77783 16.0242 4.77783C15.2651 4.77873 14.5373 5.08069 14.0005 5.61747C13.4637 6.15426 13.1618 6.88203 13.1609 7.64115ZM17.6957 7.64115C17.6957 7.97182 17.5976 8.29507 17.4139 8.57C17.2302 8.84494 16.969 9.05923 16.6635 9.18575C16.358 9.31228 16.0219 9.34537 15.6976 9.28083C15.3732 9.2163 15.0754 9.05704 14.8416 8.82319C14.6078 8.58935 14.4486 8.29143 14.3841 7.9671C14.3196 7.64277 14.3528 7.30661 14.4794 7.00113C14.606 6.69565 14.8203 6.43457 15.0953 6.25091C15.3702 6.06725 15.6935 5.96925 16.0242 5.96932C16.4674 5.96986 16.8923 6.14618 17.2056 6.45961C17.519 6.77303 17.6952 7.19795 17.6957 7.64115Z" fill="#091071"/>
</svg>
