<svg width="32" height="21" viewBox="0 0 32 21" fill="none" xmlns="http://www.w3.org/2000/svg">
<g clip-path="url(#clip0)">
<path d="M31.5803 17.1342H29.2197V3.0951C29.2191 2.60831 29.0255 2.14163 28.6813 1.79742C28.3371 1.45321 27.8704 1.25959 27.3836 1.25903H5.66556C5.17877 1.25959 4.71209 1.45321 4.36788 1.79742C4.02367 2.14163 3.83005 2.60831 3.82949 3.0951V17.1342H1.46884C1.39927 17.1342 1.33256 17.1618 1.28337 17.211C1.23418 17.2602 1.20654 17.3269 1.20654 17.3965V18.4281C1.20724 18.9112 1.39958 19.3743 1.74135 19.7157C2.08312 20.0571 2.5464 20.249 3.02949 20.2492H30.0197C30.5027 20.2488 30.9659 20.0567 31.3075 19.7152C31.6491 19.3737 31.8413 18.9106 31.8418 18.4276V17.3965C31.8418 17.327 31.8143 17.2604 31.7653 17.2113C31.7163 17.1621 31.6497 17.1344 31.5803 17.1342Z" fill="#E6E7E8"/>
<path d="M27.9082 16.3473V2.04588C27.9082 1.62849 27.7424 1.22819 27.4473 0.933054C27.1521 0.637915 26.7518 0.472107 26.3344 0.472107H4.6164C4.19901 0.472107 3.79872 0.637915 3.50358 0.933054C3.20844 1.22819 3.04263 1.62849 3.04263 2.04588V16.3473H27.9082Z" fill="#7074AE"/>
<path d="M5.40329 0.472107H4.6164C4.19901 0.472107 3.79872 0.637915 3.50358 0.933054C3.20844 1.22819 3.04263 1.62849 3.04263 2.04588V16.3473H3.82952V2.04588C3.82952 1.62849 3.99533 1.22819 4.29046 0.933054C4.5856 0.637915 4.9859 0.472107 5.40329 0.472107Z" fill="white"/>
<path d="M26.0648 16.3473V3.31408C26.0648 3.17495 26.0095 3.04152 25.9111 2.94314C25.8128 2.84476 25.6793 2.78949 25.5402 2.78949H5.41036C5.27123 2.78949 5.1378 2.84476 5.03942 2.94314C4.94104 3.04152 4.88577 3.17495 4.88577 3.31408V16.3473H26.0648Z" fill="#FAD37B"/>
<path d="M13.6708 11.3715V11.3818C13.6706 11.4816 13.6456 11.5798 13.5981 11.6675C13.5506 11.7553 13.482 11.8299 13.3986 11.8847C13.3151 11.9395 13.2194 11.9727 13.12 11.9814C13.0205 11.99 12.9205 11.9739 12.8288 11.9344L9.4337 10.4629C9.27902 10.3958 9.14733 10.2849 9.05479 10.144C8.96224 10.003 8.91289 9.83811 8.91278 9.66949V9.66031C8.91274 9.49169 8.96204 9.32675 9.0546 9.1858C9.14716 9.04486 9.27894 8.93409 9.4337 8.86713L12.8288 7.3967C12.9204 7.35727 13.0202 7.34113 13.1195 7.34972C13.2188 7.3583 13.3144 7.39135 13.3978 7.44591C13.4812 7.50047 13.5498 7.57483 13.5974 7.66237C13.6451 7.7499 13.6703 7.84787 13.6708 7.94752V7.96405C13.6707 8.08572 13.6338 8.20451 13.5649 8.30483C13.4961 8.40514 13.3985 8.48229 13.285 8.52615L10.3554 9.65402L13.2892 10.8081C13.4021 10.8527 13.4989 10.9304 13.567 11.0309C13.6351 11.1314 13.6713 11.2501 13.6708 11.3715Z" fill="#FC30AB"/>
<path d="M16.3536 6.03675C16.2092 6.00184 16.0569 6.0257 15.9302 6.10307C15.8034 6.18044 15.7126 6.305 15.6776 6.44934L14.1846 12.6183C14.1499 12.7626 14.1738 12.9148 14.2512 13.0414C14.3285 13.1681 14.453 13.2589 14.5972 13.2939C14.6402 13.3043 14.6842 13.3095 14.7284 13.3097C14.854 13.3099 14.976 13.2677 15.0746 13.19C15.1732 13.1123 15.2427 13.0035 15.2719 12.8813L16.7659 6.71242C16.8007 6.56815 16.7769 6.41595 16.6996 6.28926C16.6223 6.16256 16.4978 6.07174 16.3536 6.03675Z" fill="#FC30AB"/>
<path d="M21.5184 10.4512L18.123 11.9297C18.0313 11.9695 17.9311 11.9858 17.8316 11.9773C17.732 11.9688 17.636 11.9357 17.5524 11.8809C17.4688 11.8261 17.4001 11.7514 17.3525 11.6635C17.3049 11.5756 17.2799 11.4773 17.2797 11.3773V11.3689C17.2798 11.2479 17.3164 11.1297 17.3846 11.0297C17.4528 10.9296 17.5495 10.8525 17.6622 10.8081L20.6048 9.65248L17.665 8.51516C17.5517 8.47124 17.4542 8.3941 17.3855 8.29384C17.3167 8.19358 17.2799 8.07489 17.2797 7.95333C17.2799 7.85357 17.3049 7.75543 17.3523 7.66767C17.3997 7.57992 17.4682 7.50529 17.5515 7.45048C17.6349 7.39567 17.7305 7.36239 17.8299 7.3536C17.9292 7.34482 18.0292 7.36081 18.1209 7.40015L21.5158 8.86559C21.6707 8.93261 21.8027 9.04348 21.8955 9.18455C21.9882 9.32562 22.0377 9.49073 22.0378 9.65956C22.0376 9.82773 21.9884 9.99221 21.8962 10.1328C21.8039 10.2734 21.6726 10.3841 21.5184 10.4512Z" fill="#FC30AB"/>
<path d="M0.42099 16.3473V17.3789C0.421129 17.7924 0.585478 18.1889 0.877897 18.4812C1.17032 18.7735 1.56686 18.9377 1.98033 18.9377H28.9705C29.1753 18.9377 29.3781 18.8974 29.5674 18.8191C29.7566 18.7408 29.9285 18.6259 30.0734 18.4811C30.2182 18.3363 30.3331 18.1644 30.4115 17.9752C30.49 17.786 30.5303 17.5832 30.5304 17.3784V16.3473H0.42099Z" fill="#091071"/>
<path d="M18.7976 0.734429H20.9836C21.0532 0.734429 21.1199 0.706795 21.1691 0.657605C21.2183 0.608415 21.2459 0.541699 21.2459 0.472134C21.2459 0.402569 21.2183 0.335853 21.1691 0.286664C21.1199 0.237474 21.0532 0.209839 20.9836 0.209839H18.7976C18.7281 0.209839 18.6614 0.237474 18.6122 0.286664C18.563 0.335853 18.5353 0.402569 18.5353 0.472134C18.5353 0.541699 18.563 0.608415 18.6122 0.657605C18.6614 0.706795 18.7281 0.734429 18.7976 0.734429Z" fill="#091071"/>
<path d="M13.9331 11.3715C13.9338 11.1977 13.8818 11.0278 13.784 10.8842C13.6862 10.7405 13.5471 10.6299 13.3852 10.5668L11.077 9.65848L13.3779 8.77192C13.5431 8.70706 13.6847 8.59347 13.7839 8.44623C13.8831 8.29898 13.9351 8.12505 13.9331 7.94753C13.9329 7.8042 13.8971 7.66317 13.829 7.53709C13.7608 7.41101 13.6624 7.30383 13.5426 7.22518C13.4228 7.14652 13.2853 7.09885 13.1425 7.08644C12.9997 7.07403 12.8561 7.09728 12.7245 7.15409L9.32933 8.62556C9.12753 8.71405 8.95588 8.85941 8.83535 9.04387C8.71482 9.22833 8.65063 9.4439 8.65063 9.66425C8.65063 9.8846 8.71482 10.1002 8.83535 10.2846C8.95588 10.4691 9.12753 10.6145 9.32933 10.7029L12.7245 12.1742C12.8561 12.231 12.9997 12.2542 13.1425 12.2418C13.2853 12.2294 13.4228 12.1817 13.5426 12.1031C13.6624 12.0244 13.7608 11.9172 13.829 11.7912C13.8971 11.6651 13.9329 11.524 13.9331 11.3807V11.3715ZM13.4085 11.3818C13.4083 11.4381 13.3942 11.4935 13.3673 11.5431C13.3405 11.5926 13.3018 11.6347 13.2547 11.6656C13.2076 11.6966 13.1535 11.7153 13.0974 11.7203C13.0413 11.7252 12.9848 11.7161 12.933 11.6939L9.53785 10.2227C9.43 10.1748 9.33835 10.0966 9.27403 9.99771C9.2097 9.89878 9.17547 9.78331 9.17547 9.6653C9.17547 9.54729 9.2097 9.43182 9.27403 9.33289C9.33835 9.23395 9.43 9.15581 9.53785 9.10792L12.933 7.63645C12.976 7.61763 13.0224 7.60781 13.0694 7.6076C13.1355 7.60789 13.2001 7.62759 13.2551 7.66425C13.3076 7.70025 13.3494 7.74975 13.3761 7.80754C13.4028 7.86533 13.4134 7.92925 13.4068 7.99257C13.4002 8.05588 13.3766 8.11624 13.3386 8.16727C13.3005 8.2183 13.2494 8.2581 13.1906 8.28248L10.2613 9.41035C10.2119 9.42932 10.1695 9.46275 10.1395 9.50626C10.1095 9.54977 10.0933 9.60133 10.0931 9.65418C10.0929 9.70703 10.1087 9.75871 10.1384 9.80245C10.168 9.84618 10.2102 9.87993 10.2594 9.89927L13.1932 11.0534C13.2569 11.0782 13.3116 11.1217 13.35 11.1782C13.3884 11.2348 13.4089 11.3016 13.4085 11.37V11.3818Z" fill="#FC30AB"/>
<path d="M16.9235 6.15267C16.8388 6.01392 16.7147 5.90343 16.5671 5.83518C16.4195 5.76693 16.255 5.74399 16.0944 5.76926C15.9337 5.79454 15.7842 5.86688 15.6647 5.97715C15.5452 6.08742 15.461 6.23065 15.423 6.38874L13.93 12.5563C13.8787 12.7683 13.9137 12.992 14.0274 13.1782C14.141 13.3644 14.3239 13.4978 14.5359 13.5491C14.5993 13.5643 14.6642 13.5719 14.7294 13.572C14.914 13.5723 15.0932 13.5103 15.2381 13.3961C15.3831 13.2818 15.4851 13.122 15.5279 12.9424L17.0209 6.77353C17.0464 6.66874 17.051 6.55993 17.0343 6.45337C17.0176 6.34681 16.9799 6.24461 16.9235 6.15267ZM16.511 6.65103L15.0182 12.8197C14.9987 12.8958 14.9502 12.9613 14.8831 13.0023C14.816 13.0432 14.7355 13.0564 14.6589 13.039C14.5823 13.0203 14.5161 12.9721 14.475 12.9047C14.4339 12.8374 14.4212 12.7566 14.4396 12.6799L15.9326 6.51097C15.9418 6.47298 15.9585 6.43721 15.9817 6.4057C16.0048 6.37418 16.0339 6.34756 16.0674 6.32736C16.1136 6.29892 16.1668 6.28384 16.2211 6.28382C16.2447 6.28383 16.2682 6.28674 16.2912 6.29248C16.3678 6.31106 16.434 6.35932 16.4751 6.42664C16.5162 6.49397 16.5289 6.57487 16.5104 6.65156L16.511 6.65103Z" fill="#FC30AB"/>
<path d="M21.6197 8.62378L18.225 7.15912C18.1189 7.10955 18.0038 7.08204 17.8867 7.07827C17.7696 7.0745 17.6529 7.09454 17.5438 7.13717C17.4347 7.17981 17.3353 7.24416 17.2518 7.32632C17.1683 7.40848 17.1023 7.50674 17.0579 7.61515C17.0134 7.72356 16.9915 7.83986 16.9933 7.957C16.9952 8.07415 17.0208 8.1897 17.0686 8.29666C17.1164 8.40362 17.1854 8.49976 17.2715 8.57925C17.3576 8.65874 17.4589 8.71994 17.5693 8.75912L19.882 9.6546L17.5656 10.564C17.4601 10.6074 17.3643 10.6713 17.2834 10.7518C17.2026 10.8323 17.1384 10.928 17.0946 11.0333C17.006 11.246 17.0056 11.4852 17.0934 11.6983C17.1368 11.8038 17.2007 11.8997 17.2812 11.9805C17.3617 12.0613 17.4574 12.1255 17.5627 12.1693C17.7754 12.2579 18.0146 12.2583 18.2277 12.1705L21.6233 10.692C21.8245 10.6039 21.9955 10.459 22.1155 10.2752C22.2355 10.0913 22.2992 9.87637 22.2988 9.6568C22.2984 9.43724 22.234 9.22256 22.1133 9.0391C21.9927 8.85565 21.8211 8.71139 21.6197 8.62404V8.62378ZM21.4138 10.2107L18.0181 11.6892C17.9664 11.7123 17.9097 11.722 17.8533 11.7171C17.797 11.7123 17.7427 11.6932 17.6957 11.6617C17.6434 11.6266 17.6017 11.578 17.5749 11.521C17.5481 11.464 17.5373 11.4009 17.5437 11.3382C17.5501 11.2756 17.5734 11.2159 17.6111 11.1655C17.6489 11.1151 17.6996 11.0759 17.7579 11.0521L20.7008 9.89801C20.75 9.8788 20.7923 9.84521 20.822 9.80162C20.8518 9.75803 20.8677 9.70647 20.8677 9.65368C20.8677 9.60089 20.8518 9.54933 20.822 9.50574C20.7923 9.46215 20.75 9.42855 20.7008 9.40935L17.7597 8.27073C17.6959 8.24566 17.641 8.20202 17.6022 8.14544C17.5634 8.08887 17.5424 8.02195 17.542 7.95335C17.542 7.86319 17.5777 7.7767 17.6413 7.71279C17.7049 7.64889 17.7913 7.61278 17.8814 7.61237C17.9281 7.6125 17.9742 7.62214 18.017 7.64069L21.4117 9.10561C21.5191 9.15247 21.6106 9.22961 21.6749 9.32762C21.7392 9.42562 21.7736 9.54023 21.7738 9.65745C21.774 9.77467 21.7401 9.88942 21.6761 9.98766C21.6122 10.0859 21.521 10.1634 21.4138 10.2107Z" fill="#FC30AB"/>
<path d="M30.5311 16.085H28.1705V2.0459C28.1699 1.55912 27.9763 1.09243 27.6321 0.748223C27.2879 0.404015 26.8212 0.210394 26.3344 0.209839H22C21.9304 0.209839 21.8637 0.237474 21.8145 0.286664C21.7653 0.335853 21.7377 0.402569 21.7377 0.472134C21.7377 0.541699 21.7653 0.608415 21.8145 0.657605C21.8637 0.706795 21.9304 0.734429 22 0.734429H26.3344C26.6821 0.734845 27.0155 0.873152 27.2613 1.11901C27.5072 1.36487 27.6455 1.69821 27.6459 2.0459V16.085H26.3268V3.3141C26.3268 3.10541 26.2439 2.90526 26.0963 2.75769C25.9488 2.61012 25.7486 2.52722 25.5399 2.52722H5.41036C5.20167 2.52722 5.00152 2.61012 4.85395 2.75769C4.70638 2.90526 4.62348 3.10541 4.62348 3.3141V16.085H3.30492V2.0459C3.30534 1.69821 3.44364 1.36487 3.6895 1.11901C3.93536 0.873152 4.2687 0.734845 4.6164 0.734429H17.7049C17.7745 0.734429 17.8412 0.706795 17.8904 0.657605C17.9396 0.608415 17.9672 0.541699 17.9672 0.472134C17.9672 0.402569 17.9396 0.335853 17.8904 0.286664C17.8412 0.237474 17.7745 0.209839 17.7049 0.209839H4.6164C4.12961 0.210394 3.66292 0.404015 3.31871 0.748223C2.97451 1.09243 2.78089 1.55912 2.78033 2.0459V16.085H0.420986C0.351421 16.085 0.284706 16.1126 0.235516 16.1618C0.186326 16.211 0.158691 16.2777 0.158691 16.3473V17.3789C0.159316 17.8618 0.351456 18.3247 0.692959 18.6661C1.03446 19.0075 1.49744 19.1995 1.98033 19.2H28.9705C29.4535 19.1995 29.9166 19.0075 30.2582 18.666C30.5998 18.3244 30.792 17.8614 30.7927 17.3784V16.3473C30.7927 16.2779 30.7651 16.2113 30.7161 16.1621C30.6671 16.1129 30.6006 16.0852 30.5311 16.085ZM5.14807 3.3141C5.14807 3.24454 5.1757 3.17782 5.22489 3.12863C5.27408 3.07944 5.3408 3.05181 5.41036 3.05181H25.5402C25.6098 3.05181 25.6765 3.07944 25.7257 3.12863C25.7749 3.17782 25.8025 3.24454 25.8025 3.3141V16.085H5.14807V3.3141ZM30.2689 17.3789C30.2684 17.7228 30.1316 18.0526 29.8883 18.2958C29.645 18.5389 29.3152 18.6757 28.9713 18.6759H1.98033C1.63644 18.6756 1.30673 18.5388 1.06356 18.2957C0.820393 18.0525 0.683629 17.7228 0.683282 17.3789V16.6096H30.2689V17.3789Z" fill="#091071"/>
</g>
<defs>
<clipPath id="clip0">
<rect width="32" height="20.459" fill="white"/>
</clipPath>
</defs>
</svg>
