<svg width="1463" height="592" viewBox="0 0 1463 592" fill="none" xmlns="http://www.w3.org/2000/svg">
<path fill-rule="evenodd" clip-rule="evenodd" d="M472.582 490.936C472.956 490.936 473.322 491.047 473.634 491.255C473.945 491.463 474.188 491.759 474.331 492.105C474.474 492.451 474.512 492.831 474.439 493.199C474.366 493.566 474.185 493.903 473.921 494.168C473.656 494.433 473.319 494.613 472.951 494.686C472.584 494.759 472.203 494.722 471.857 494.579C471.511 494.435 471.216 494.193 471.008 493.881C470.8 493.57 470.688 493.204 470.688 492.829C470.689 492.327 470.889 491.846 471.244 491.491C471.599 491.136 472.08 490.937 472.582 490.936V490.936Z" fill="white"/>
<path fill-rule="evenodd" clip-rule="evenodd" d="M576.315 406.471C572.849 407.324 569.325 407.919 565.771 408.25C546.693 410.084 532.29 394.638 515.98 387.206C507.018 383.124 497.513 381.346 488.068 381.431L514.591 308H576.315V406.471Z" fill="#0084FF"/>
<path fill-rule="evenodd" clip-rule="evenodd" d="M488.075 381.431C497.52 381.343 507.025 383.124 515.987 387.206C532.297 394.644 546.7 410.084 565.778 408.249C569.332 407.918 572.856 407.324 576.322 406.471V459.7H601.11V522.866H576.316V586.695H513.158V522.866H437.004L488.075 381.431Z" fill="#0028C7"/>
<path fill-rule="evenodd" clip-rule="evenodd" d="M548.366 522.839C548.366 522.839 548.442 523.256 548.553 523.885C548.839 525.463 549.601 526.915 550.736 528.048C551.871 529.18 553.324 529.939 554.902 530.224L555.946 530.413L554.902 530.6C553.326 530.889 551.875 531.651 550.742 532.785C549.609 533.918 548.849 535.37 548.562 536.947C548.451 537.572 548.375 537.993 548.375 537.993L548.185 536.947C547.897 535.371 547.136 533.92 546.003 532.787C544.87 531.654 543.419 530.892 541.842 530.604L540.799 530.417L541.842 530.228C543.419 529.943 544.872 529.184 546.005 528.051C547.139 526.918 547.899 525.467 548.185 523.89C548.298 523.261 548.375 522.844 548.375 522.844L548.366 522.839Z" fill="#FFCE00"/>
<path fill-rule="evenodd" clip-rule="evenodd" d="M498.708 422.626C498.708 422.626 498.785 423.047 498.9 423.672C499.185 425.248 499.945 426.7 501.077 427.834C502.21 428.967 503.661 429.728 505.238 430.014L506.284 430.201L505.238 430.391C503.661 430.677 502.209 431.437 501.076 432.571C499.944 433.704 499.184 435.157 498.9 436.734L498.708 437.777C498.708 437.777 498.634 437.358 498.519 436.734C498.234 435.157 497.475 433.704 496.342 432.57C495.209 431.437 493.757 430.676 492.18 430.391L491.137 430.201L492.18 430.014C493.757 429.728 495.209 428.968 496.341 427.834C497.474 426.701 498.234 425.248 498.519 423.672C498.634 423.047 498.708 422.626 498.708 422.626Z" fill="#67C0FF"/>
<path fill-rule="evenodd" clip-rule="evenodd" d="M557.844 460.123C558.218 460.123 558.584 460.234 558.896 460.443C559.207 460.651 559.45 460.947 559.593 461.293C559.736 461.639 559.774 462.02 559.7 462.387C559.627 462.754 559.447 463.092 559.182 463.356C558.917 463.621 558.579 463.801 558.212 463.874C557.844 463.947 557.463 463.909 557.117 463.765C556.772 463.622 556.476 463.379 556.268 463.067C556.06 462.755 555.95 462.389 555.95 462.015C555.951 461.513 556.151 461.032 556.506 460.677C556.861 460.323 557.342 460.123 557.844 460.123Z" fill="white"/>
<path fill-rule="evenodd" clip-rule="evenodd" d="M548.796 368.845C549.17 368.845 549.536 368.956 549.848 369.164C550.159 369.372 550.402 369.668 550.545 370.014C550.688 370.36 550.726 370.741 550.653 371.108C550.58 371.475 550.399 371.812 550.135 372.077C549.87 372.342 549.532 372.522 549.165 372.595C548.798 372.668 548.417 372.631 548.071 372.488C547.725 372.344 547.429 372.102 547.221 371.79C547.013 371.479 546.902 371.113 546.902 370.738C546.903 370.236 547.103 369.755 547.458 369.4C547.812 369.045 548.294 368.846 548.796 368.845V368.845Z" fill="white"/>
<path fill-rule="evenodd" clip-rule="evenodd" d="M827.844 492.739C828.218 492.739 828.584 492.85 828.895 493.058C829.207 493.266 829.45 493.562 829.593 493.908C829.736 494.254 829.774 494.635 829.701 495.002C829.628 495.369 829.447 495.707 829.182 495.971C828.918 496.236 828.58 496.417 828.213 496.49C827.846 496.563 827.465 496.525 827.119 496.382C826.773 496.239 826.477 495.996 826.269 495.685C826.061 495.373 825.95 495.007 825.95 494.633C825.951 494.131 826.15 493.649 826.505 493.295C826.86 492.94 827.342 492.74 827.844 492.739V492.739Z" fill="white"/>
<path fill-rule="evenodd" clip-rule="evenodd" d="M931.577 408.275C928.111 409.127 924.587 409.722 921.033 410.053C901.955 411.888 887.552 396.441 871.242 389.009C862.28 384.927 852.774 383.149 843.33 383.235L869.853 309.803H931.577V408.275V408.275Z" fill="#0084FF"/>
<path fill-rule="evenodd" clip-rule="evenodd" d="M843.337 383.235C852.781 383.147 862.287 384.927 871.249 389.009C887.559 396.448 901.962 411.888 921.04 410.053C924.594 409.722 928.118 409.127 931.584 408.274V461.503H956.372V524.669H931.577V588.499H868.42V524.669H792.266L843.337 383.235Z" fill="#0028C7"/>
<path fill-rule="evenodd" clip-rule="evenodd" d="M903.627 524.643C903.627 524.643 903.704 525.06 903.814 525.689C904.101 527.266 904.863 528.718 905.998 529.851C907.132 530.984 908.586 531.743 910.164 532.027L911.208 532.216L910.164 532.403C908.587 532.692 907.136 533.454 906.004 534.588C904.871 535.722 904.11 537.174 903.823 538.751C903.713 539.375 903.636 539.796 903.636 539.796L903.447 538.751C903.159 537.174 902.398 535.723 901.265 534.59C900.132 533.457 898.68 532.696 897.104 532.408L896.061 532.221L897.104 532.031C898.681 531.747 900.134 530.987 901.267 529.854C902.401 528.722 903.161 527.27 903.447 525.693C903.56 525.064 903.636 524.647 903.636 524.647L903.627 524.643Z" fill="#FFCE00"/>
<path fill-rule="evenodd" clip-rule="evenodd" d="M853.97 424.429C853.97 424.429 854.046 424.851 854.161 425.475C854.447 427.052 855.206 428.504 856.339 429.637C857.471 430.771 858.923 431.531 860.5 431.818L861.545 432.005L860.5 432.194C858.923 432.48 857.471 433.241 856.338 434.374C855.205 435.508 854.446 436.96 854.161 438.537L853.97 439.581C853.97 439.581 853.895 439.161 853.78 438.537C853.496 436.96 852.737 435.507 851.604 434.374C850.471 433.24 849.019 432.48 847.442 432.194L846.398 432.005L847.442 431.818C849.019 431.532 850.47 430.771 851.603 429.638C852.736 428.504 853.495 427.052 853.78 425.475C853.895 424.851 853.97 424.429 853.97 424.429Z" fill="#67C0FF"/>
<path fill-rule="evenodd" clip-rule="evenodd" d="M913.105 461.927C913.48 461.927 913.846 462.038 914.157 462.246C914.469 462.454 914.712 462.75 914.855 463.096C914.998 463.442 915.035 463.823 914.962 464.19C914.889 464.558 914.708 464.895 914.443 465.16C914.178 465.424 913.841 465.605 913.473 465.677C913.106 465.75 912.725 465.712 912.379 465.569C912.033 465.425 911.738 465.182 911.53 464.87C911.322 464.559 911.211 464.192 911.212 463.818C911.213 463.316 911.412 462.835 911.767 462.48C912.122 462.126 912.604 461.927 913.105 461.927Z" fill="white"/>
<path fill-rule="evenodd" clip-rule="evenodd" d="M904.057 370.648C904.432 370.648 904.798 370.759 905.109 370.967C905.421 371.176 905.663 371.471 905.807 371.817C905.95 372.163 905.987 372.544 905.914 372.911C905.841 373.278 905.661 373.616 905.396 373.881C905.131 374.145 904.794 374.326 904.427 374.399C904.06 374.472 903.679 374.434 903.333 374.291C902.987 374.148 902.691 373.905 902.483 373.594C902.275 373.282 902.164 372.916 902.164 372.542C902.165 372.04 902.364 371.559 902.719 371.204C903.074 370.849 903.555 370.649 904.057 370.648V370.648Z" fill="white"/>
<path fill-rule="evenodd" clip-rule="evenodd" d="M765.119 379.248C765.119 341.411 734.45 310.742 696.613 310.742C658.777 310.742 628.104 341.411 628.104 379.248V519.739C628.104 557.572 658.777 588.244 696.61 588.244C734.444 588.244 765.119 557.572 765.119 519.739V379.248Z" fill="#FFB200"/>
<path fill-rule="evenodd" clip-rule="evenodd" d="M628.16 399.295C644.053 391.587 660.213 384.491 678.421 383.734C709.879 382.425 726.995 403.345 754.704 412.143C758.123 413.23 761.646 413.96 765.216 414.321V522.251C765.216 560.094 734.534 590.775 696.691 590.775C658.848 590.775 628.16 560.094 628.16 522.251V399.295V399.295Z" fill="#0028C7"/>
<path fill-rule="evenodd" clip-rule="evenodd" d="M737.448 475.196C737.448 475.196 737.525 475.614 737.635 476.236C737.92 477.806 738.678 479.252 739.808 480.381C740.937 481.509 742.384 482.265 743.955 482.549L744.994 482.738L743.955 482.928C742.384 483.213 740.937 483.97 739.807 485.098C738.678 486.227 737.92 487.673 737.635 489.244C737.525 489.863 737.448 490.283 737.448 490.283C737.448 490.283 737.374 489.863 737.26 489.244C736.976 487.673 736.22 486.227 735.092 485.098C733.963 483.969 732.517 483.212 730.947 482.928L729.907 482.738L730.947 482.549C732.517 482.266 733.963 481.509 735.092 480.381C736.22 479.253 736.977 477.806 737.26 476.236C737.374 475.614 737.448 475.196 737.448 475.196Z" fill="#FFCE00"/>
<path fill-rule="evenodd" clip-rule="evenodd" d="M728.386 527.134C728.386 527.134 728.462 527.55 728.572 528.176C728.858 529.746 729.616 531.192 730.745 532.32C731.874 533.448 733.321 534.205 734.892 534.489L735.931 534.678L734.892 534.869C733.321 535.152 731.874 535.909 730.745 537.037C729.615 538.165 728.857 539.611 728.572 541.182C728.462 541.804 728.386 542.223 728.386 542.223L728.197 541.182C727.912 539.611 727.155 538.165 726.026 537.037C724.897 535.909 723.45 535.152 721.879 534.869L720.84 534.678L721.879 534.489C723.45 534.205 724.896 533.449 726.025 532.32C727.154 531.192 727.912 529.746 728.197 528.176C728.309 527.55 728.386 527.134 728.386 527.134Z" fill="#FF00AE"/>
<path fill-rule="evenodd" clip-rule="evenodd" d="M668.127 406.778C668.127 406.778 668.201 407.193 668.313 407.815C668.597 409.386 669.353 410.833 670.482 411.962C671.611 413.091 673.057 413.849 674.629 414.133L675.668 414.321L674.629 414.508C673.058 414.792 671.612 415.55 670.483 416.679C669.354 417.808 668.597 419.254 668.313 420.825C668.201 421.447 668.127 421.867 668.127 421.867L667.938 420.825C667.651 419.255 666.893 417.81 665.765 416.681C664.636 415.553 663.191 414.794 661.621 414.508L660.581 414.321L661.621 414.133C663.192 413.848 664.639 413.091 665.768 411.962C666.897 410.833 667.654 409.386 667.938 407.815C668.05 407.193 668.127 406.778 668.127 406.778V406.778Z" fill="white"/>
<path fill-rule="evenodd" clip-rule="evenodd" d="M648.673 471.856C649.046 471.856 649.411 471.966 649.721 472.174C650.031 472.381 650.273 472.676 650.416 473.02C650.558 473.365 650.595 473.744 650.522 474.11C650.449 474.476 650.27 474.812 650.006 475.076C649.742 475.339 649.405 475.519 649.04 475.591C648.674 475.664 648.294 475.626 647.95 475.483C647.605 475.34 647.311 475.098 647.104 474.788C646.897 474.477 646.787 474.112 646.787 473.739C646.788 473.24 646.987 472.76 647.34 472.407C647.694 472.054 648.173 471.856 648.673 471.856V471.856Z" fill="white"/>
<path fill-rule="evenodd" clip-rule="evenodd" d="M677.715 548.651C678.088 548.651 678.453 548.762 678.763 548.969C679.073 549.176 679.315 549.471 679.457 549.815C679.6 550.16 679.637 550.539 679.565 550.905C679.492 551.271 679.312 551.607 679.048 551.871C678.785 552.134 678.449 552.314 678.083 552.387C677.717 552.46 677.338 552.422 676.993 552.279C676.649 552.137 676.354 551.895 676.147 551.585C675.94 551.275 675.829 550.91 675.829 550.537C675.83 550.037 676.029 549.558 676.382 549.204C676.736 548.851 677.215 548.652 677.715 548.651V548.651Z" fill="white"/>
<path fill-rule="evenodd" clip-rule="evenodd" d="M696.688 447.568C723.349 447.568 744.994 425.6 744.994 398.542C744.994 371.485 723.349 349.514 696.688 349.514C710.018 357.686 720.839 376.841 720.839 398.542C720.839 420.243 710.018 439.403 696.688 447.568Z" fill="white"/>
<path d="M953.874 591.165C953.208 591.164 952.562 590.941 952.038 590.53C951.514 590.12 951.142 589.546 950.981 588.899L948.048 577.104C948.023 577.023 948.004 576.942 947.986 576.858L944.54 563.014C944.512 562.921 944.49 562.824 944.469 562.728L941.399 550.386C941.373 550.304 941.352 550.22 941.336 550.135L938.26 537.783C938.235 537.699 938.214 537.613 938.198 537.526L935.119 525.155C935.096 525.081 935.077 525.006 935.063 524.932L932.685 515.384C932.494 514.615 932.616 513.802 933.024 513.123C933.432 512.444 934.093 511.956 934.861 511.764C935.63 511.573 936.443 511.694 937.122 512.103C937.8 512.511 938.289 513.172 938.481 513.94L940.321 521.334H952.462L950.981 515.38C950.79 514.612 950.912 513.8 951.32 513.122C951.728 512.443 952.389 511.955 953.157 511.764C953.925 511.573 954.738 511.695 955.416 512.103C956.094 512.511 956.582 513.172 956.773 513.94L965.443 548.775L965.462 548.856L968.585 561.4C968.585 561.418 968.585 561.434 968.585 561.449L972.065 575.437C972.083 575.502 972.099 575.567 972.114 575.635L975.054 587.431C975.232 588.195 975.102 588.998 974.693 589.668C974.283 590.337 973.627 590.818 972.866 591.007C972.105 591.196 971.299 591.078 970.624 590.679C969.949 590.279 969.459 589.63 969.258 588.871L966.859 579.23H954.722L956.761 587.431C956.856 587.811 956.876 588.206 956.818 588.594C956.76 588.982 956.627 589.354 956.425 589.69C956.223 590.026 955.957 590.319 955.642 590.552C955.327 590.785 954.969 590.953 954.588 591.047C954.356 591.116 954.116 591.156 953.874 591.165V591.165ZM953.253 573.289H965.394L963.367 565.149H951.229L953.253 573.289ZM949.743 559.18H961.88L960.228 552.54H948.088L949.743 559.18ZM946.604 546.568H958.745L957.093 539.931H944.953L946.604 546.568ZM943.466 533.962H955.606L953.955 527.322H941.811L943.466 533.962Z" fill="#04080D"/>
<path fill-rule="evenodd" clip-rule="evenodd" d="M552.962 517.575H493.847V523.228H552.962V517.575Z" fill="#04080D"/>
<path fill-rule="evenodd" clip-rule="evenodd" d="M542.79 521.98L499.17 561.878L502.985 566.047L546.605 526.152L542.79 521.98Z" fill="#04080D"/>
<path fill-rule="evenodd" clip-rule="evenodd" d="M547.635 560.496L503.286 521.415L499.549 525.655L543.901 564.737L547.635 560.496Z" fill="#04080D"/>
<path fill-rule="evenodd" clip-rule="evenodd" d="M552.962 476.141H493.847V481.79H552.962V476.141Z" fill="#04080D"/>
<path fill-rule="evenodd" clip-rule="evenodd" d="M552.962 437.401H493.847V443.051H552.962V437.401Z" fill="#04080D"/>
<path fill-rule="evenodd" clip-rule="evenodd" d="M503.984 443.05H498.391V588.257H503.984V443.05Z" fill="#04080D"/>
<path fill-rule="evenodd" clip-rule="evenodd" d="M548.964 443.05H543.37V588.257H548.964V443.05Z" fill="#04080D"/>
<path fill-rule="evenodd" clip-rule="evenodd" d="M612.072 517.575H552.963V523.228H612.072V517.575Z" fill="#04080D"/>
<path fill-rule="evenodd" clip-rule="evenodd" d="M601.899 521.98L558.285 561.878L562.097 566.047L605.717 526.152L601.899 521.98Z" fill="#04080D"/>
<path fill-rule="evenodd" clip-rule="evenodd" d="M606.747 560.496L562.395 521.415L558.664 525.655L603.01 564.737L606.747 560.496Z" fill="#04080D"/>
<path fill-rule="evenodd" clip-rule="evenodd" d="M612.072 476.141H552.963V481.79H612.072V476.141Z" fill="#04080D"/>
<path fill-rule="evenodd" clip-rule="evenodd" d="M612.072 437.401H552.963V443.051H612.072V437.401Z" fill="#04080D"/>
<path fill-rule="evenodd" clip-rule="evenodd" d="M563.093 443.05H557.506V588.257H563.093V443.05Z" fill="#04080D"/>
<path fill-rule="evenodd" clip-rule="evenodd" d="M608.073 443.05H602.482V588.257H608.073V443.05Z" fill="#04080D"/>
<path fill-rule="evenodd" clip-rule="evenodd" d="M782.515 517.575H723.405V523.228H782.515V517.575Z" fill="#04080D"/>
<path fill-rule="evenodd" clip-rule="evenodd" d="M772.343 521.98L728.727 561.878L732.545 566.047L776.158 526.152L772.343 521.98Z" fill="#04080D"/>
<path fill-rule="evenodd" clip-rule="evenodd" d="M777.191 560.496L732.839 521.415L729.104 525.655L773.454 564.737L777.191 560.496Z" fill="#04080D"/>
<path fill-rule="evenodd" clip-rule="evenodd" d="M782.515 476.141H723.405V481.79H782.515V476.141Z" fill="#04080D"/>
<path fill-rule="evenodd" clip-rule="evenodd" d="M782.515 437.401H723.405V443.051H782.515V437.401Z" fill="#04080D"/>
<path fill-rule="evenodd" clip-rule="evenodd" d="M733.537 443.05H727.949V588.257H733.537V443.05Z" fill="#04080D"/>
<path fill-rule="evenodd" clip-rule="evenodd" d="M778.516 443.05H772.929V588.257H778.516V443.05Z" fill="#04080D"/>
<path fill-rule="evenodd" clip-rule="evenodd" d="M895.711 517.575H836.602V523.228H895.711V517.575Z" fill="#04080D"/>
<path fill-rule="evenodd" clip-rule="evenodd" d="M885.544 521.98L841.925 561.878L845.74 566.047L889.356 526.152L885.544 521.98Z" fill="#04080D"/>
<path fill-rule="evenodd" clip-rule="evenodd" d="M890.39 560.496L846.041 521.415L842.304 525.655L886.653 564.737L890.39 560.496Z" fill="#04080D"/>
<path fill-rule="evenodd" clip-rule="evenodd" d="M895.711 476.141H836.602V481.79H895.711V476.141Z" fill="#04080D"/>
<path fill-rule="evenodd" clip-rule="evenodd" d="M895.711 437.401H836.602V443.051H895.711V437.401Z" fill="#04080D"/>
<path fill-rule="evenodd" clip-rule="evenodd" d="M846.734 443.05H841.146V588.257H846.734V443.05Z" fill="#04080D"/>
<path fill-rule="evenodd" clip-rule="evenodd" d="M891.713 443.05H886.126V588.257H891.713V443.05Z" fill="#04080D"/>
<path fill-rule="evenodd" clip-rule="evenodd" d="M939.952 517.498H880.843V523.15H939.952V517.498Z" fill="#04080D"/>
<path fill-rule="evenodd" clip-rule="evenodd" d="M929.782 521.905L886.165 561.8L889.977 565.972L933.597 526.074L929.782 521.905Z" fill="#04080D"/>
<path fill-rule="evenodd" clip-rule="evenodd" d="M934.627 560.419L890.278 521.337L886.544 525.578L930.89 564.659L934.627 560.419Z" fill="#04080D"/>
<path fill-rule="evenodd" clip-rule="evenodd" d="M939.952 476.063H880.843V481.713H939.952V476.063Z" fill="#04080D"/>
<path fill-rule="evenodd" clip-rule="evenodd" d="M935.954 476.063H930.366V588.179H935.954V476.063Z" fill="#04080D"/>
<path fill-rule="evenodd" clip-rule="evenodd" d="M579.25 395.861L568.109 394.306L561.172 402.501L555.224 395.846L554.746 398.071L560.334 407.104L566.772 403.895L565.17 418.168L564.385 436.895L569.286 437.004L572.114 419.872L575.37 437.401L581.541 437.004L580.604 418.168L577.462 402.504L582.755 407.558L581.771 415.802L584.295 417.177L586.052 407.018L579.25 395.861Z" fill="#04080D"/>
<path fill-rule="evenodd" clip-rule="evenodd" d="M523.407 413.577L512.263 412.018L503.603 426.98L504.528 437.876L506.61 437.718L506.943 428.023L510.928 421.607L507.843 437.081L513.626 440.93L514.001 455.43L515.982 456.324L519.192 457.693L521.669 457.019L519.927 453.726L535.743 437.022L522.932 430.86L521.619 420.216L523.736 427.086L526.145 432.406L531.99 435.219L527.238 427.067L523.407 413.577Z" fill="#04080D"/>
<path fill-rule="evenodd" clip-rule="evenodd" d="M861.171 398.416L850.03 396.861L845.408 391.863L840.78 384.084L838.424 387.014L841.904 393.328L848.695 406.446L847.091 420.722L846.305 439.447L851.207 439.558L854.035 422.423L857.291 439.953L863.465 439.558L862.524 420.722L861.978 415.489L864.167 411.879L864.769 405.943L861.171 398.416Z" fill="#04080D"/>
<path fill-rule="evenodd" clip-rule="evenodd" d="M1000.28 549.145L989.137 547.593L984.515 542.592L979.883 534.816L977.527 537.74L981.007 544.057L987.799 557.178L986.197 571.454L985.412 590.175L990.313 590.287L993.141 573.152L996.398 590.681L1002.57 590.284L1001.63 571.454L1001.08 566.217L1003.27 562.61L1003.88 556.672L1000.28 549.145Z" fill="#04080D"/>
<path fill-rule="evenodd" clip-rule="evenodd" d="M700.087 473.139L711.228 471.584L718.166 479.776L724.114 473.124L724.588 475.349L719.004 484.382L712.563 481.17L714.168 495.446L714.953 514.17L710.052 514.279L707.224 497.147L703.968 514.676L697.793 514.279L698.734 495.446L701.878 479.782L696.577 484.832L697.567 493.077L695.043 494.455L693.286 484.292L700.087 473.139Z" fill="#04080D"/>
<path fill-rule="evenodd" clip-rule="evenodd" d="M572.286 381.678C575.666 381.678 578.41 384.509 578.41 387.992C578.41 391.475 575.666 394.306 572.286 394.306C568.906 394.306 566.155 391.478 566.155 387.992C566.155 384.506 568.899 381.678 572.286 381.678Z" fill="#04080D"/>
<path fill-rule="evenodd" clip-rule="evenodd" d="M517.608 399.391C520.989 399.391 523.733 402.218 523.733 405.704C523.733 409.19 520.989 412.024 517.608 412.024C514.228 412.024 511.48 409.194 511.48 405.711C511.48 402.228 514.225 399.397 517.608 399.397V399.391Z" fill="#04080D"/>
<path fill-rule="evenodd" clip-rule="evenodd" d="M854.354 382.035C857.735 382.035 860.482 384.863 860.482 388.352C860.482 391.841 857.735 394.663 854.354 394.663C850.974 394.663 848.227 391.835 848.227 388.352C848.227 384.869 850.971 382.035 854.354 382.035V382.035Z" fill="#04080D"/>
<path fill-rule="evenodd" clip-rule="evenodd" d="M996.836 534.816C1000.22 534.816 1002.96 537.647 1002.96 541.13C1002.96 544.613 1000.22 547.444 996.836 547.444C993.455 547.444 990.708 544.616 990.708 541.13C990.708 537.644 993.452 534.816 996.836 534.816Z" fill="#04080D"/>
<path fill-rule="evenodd" clip-rule="evenodd" d="M702.81 457.693C699.43 457.693 696.683 460.524 696.683 464.01C696.683 467.496 699.43 470.327 702.81 470.327C706.191 470.327 708.941 467.496 708.941 464.01C708.941 460.524 706.191 457.693 702.81 457.693Z" fill="#04080D"/>
<path fill-rule="evenodd" clip-rule="evenodd" d="M734.218 431.9H597.203V437.401H734.218V431.9Z" fill="#04080D"/>
<path fill-rule="evenodd" clip-rule="evenodd" d="M734.218 512.829H597.203V518.326H734.218V512.829Z" fill="#04080D"/>
<g filter="url(#filter0_d)">
<path fill-rule="evenodd" clip-rule="evenodd" d="M1321.44 278.848C1374.81 254.353 1397.83 190.219 1372.82 135.72C1347.8 81.2211 1284.16 56.8555 1230.79 81.3502C1265.03 85.5639 1304.4 114.203 1324.46 157.913C1344.52 201.622 1340.57 250.155 1321.44 278.848Z" fill="white"/>
</g>
<g opacity="0.2">
<path fill-rule="evenodd" clip-rule="evenodd" d="M169.517 18.941C169.517 18.941 170.565 18.7494 172.126 18.4733C176.068 17.7568 179.698 15.8539 182.53 13.019C185.362 10.1842 187.261 6.55244 187.973 2.60929L188.446 4.7735e-05L188.925 2.60929C189.639 6.55289 191.539 10.1848 194.372 13.0196C197.204 15.8544 200.835 17.7571 204.778 18.4733C206.333 18.7494 207.387 18.941 207.387 18.941C207.387 18.941 206.333 19.1269 204.778 19.4143C200.836 20.1257 197.205 22.0246 194.371 24.8568C191.538 27.689 189.638 31.3193 188.925 35.2614L188.446 37.8706L187.973 35.2614C187.262 31.3194 185.363 27.6889 182.531 24.8565C179.698 22.0241 176.068 20.1252 172.126 19.4143C170.565 19.1269 169.517 18.941 169.517 18.941Z" fill="#FFCE00"/>
<path fill-rule="evenodd" clip-rule="evenodd" d="M298.456 41.4774C298.456 41.4774 299.498 41.2858 301.071 41.0098C305.012 40.2928 308.641 38.3902 311.472 35.5563C314.303 32.7225 316.202 29.0922 316.915 25.1505L317.389 22.5421L317.867 25.1505C318.58 29.0925 320.478 32.7231 323.31 35.5572C326.141 38.3912 329.77 40.2935 333.712 41.0098C335.273 41.2858 336.327 41.4774 336.327 41.4774L333.712 41.9506C329.77 42.665 326.141 44.566 323.309 47.3991C320.478 50.2323 318.579 53.8626 317.867 57.8042L317.389 60.4127L316.915 57.8042C316.203 53.8629 314.304 50.2331 311.472 47.4C308.641 44.567 305.012 42.6657 301.071 41.9506C299.498 41.6689 298.456 41.4774 298.456 41.4774Z" fill="#FF00AE"/>
<path fill-rule="evenodd" clip-rule="evenodd" d="M0 191.151C0 191.151 1.01762 190.965 2.54126 190.683C6.39065 189.972 9.93594 188.072 12.7023 185.239C15.4686 182.406 17.324 178.774 18.0197 174.83L18.4817 172.221L18.9382 174.83C19.6362 178.773 21.4922 182.403 24.2582 185.236C27.0242 188.069 30.5682 189.969 34.4167 190.683C35.9403 190.965 36.9689 191.151 36.9689 191.151L34.4167 191.624C30.57 192.344 27.0285 194.247 24.2635 197.08C21.4985 199.913 19.641 203.541 18.9382 207.482L18.4817 210.092L18.0197 207.482C17.3235 203.538 15.4682 199.906 12.702 197.072C9.93582 194.238 6.39078 192.337 2.54126 191.624C1.01762 191.342 0 191.151 0 191.151V191.151Z" fill="white"/>
<path fill-rule="evenodd" clip-rule="evenodd" d="M161.401 239.396C161.401 238.415 161.666 237.456 162.162 236.64C162.657 235.825 163.362 235.189 164.186 234.814C165.01 234.439 165.917 234.341 166.791 234.533C167.666 234.725 168.469 235.197 169.1 235.892C169.73 236.586 170.159 237.47 170.332 238.432C170.506 239.395 170.416 240.392 170.073 241.298C169.731 242.204 169.153 242.978 168.411 243.523C167.668 244.067 166.796 244.357 165.904 244.355C164.71 244.354 163.564 243.831 162.72 242.901C161.876 241.971 161.401 240.71 161.401 239.396V239.396Z" fill="white"/>
<path fill-rule="evenodd" clip-rule="evenodd" d="M352.558 167.262C352.558 166.281 352.822 165.322 353.317 164.507C353.813 163.691 354.517 163.055 355.341 162.68C356.165 162.305 357.071 162.206 357.946 162.398C358.82 162.589 359.623 163.061 360.254 163.755C360.884 164.449 361.314 165.332 361.488 166.294C361.662 167.256 361.572 168.253 361.231 169.16C360.89 170.066 360.312 170.84 359.571 171.385C358.829 171.93 357.958 172.221 357.066 172.221C355.871 172.219 354.725 171.697 353.88 170.767C353.034 169.837 352.559 168.577 352.558 167.262V167.262Z" fill="white"/>
<path fill-rule="evenodd" clip-rule="evenodd" d="M685.277 18.941C685.277 18.941 686.326 18.7494 687.887 18.4733C691.829 17.7568 695.459 15.8539 698.291 13.019C701.122 10.1842 703.021 6.55244 703.734 2.60929L704.207 4.7735e-05L704.686 2.60929C705.399 6.55289 707.299 10.1848 710.132 13.0196C712.965 15.8544 716.596 17.7571 720.539 18.4733C722.094 18.7494 723.148 18.941 723.148 18.941C723.148 18.941 722.094 19.1269 720.539 19.4143C716.596 20.1257 712.965 22.0246 710.132 24.8568C707.299 27.689 705.399 31.3193 704.686 35.2614L704.207 37.8706L703.734 35.2614C703.023 31.3194 701.124 27.6889 698.291 24.8565C695.459 22.0241 691.829 20.1252 687.887 19.4143C686.326 19.1269 685.277 18.941 685.277 18.941Z" fill="#FFCE00"/>
<path fill-rule="evenodd" clip-rule="evenodd" d="M814.217 41.4772C814.217 41.4772 815.259 41.2857 816.831 41.0097C820.773 40.2927 824.402 38.3901 827.233 35.5562C830.064 32.7223 831.963 29.0921 832.676 25.1504L833.149 22.5419L833.628 25.1504C834.34 29.0924 836.239 32.723 839.07 35.557C841.902 38.3911 845.531 40.2934 849.473 41.0097C851.034 41.2857 852.087 41.4772 852.087 41.4772L849.473 41.9505C845.531 42.6649 841.902 44.5658 839.07 47.399C836.239 50.2322 834.34 53.8625 833.628 57.8041L833.149 60.4125L832.676 57.8041C831.964 53.8628 830.065 50.233 827.233 47.3999C824.402 44.5669 820.773 42.6656 816.831 41.9505C815.259 41.6688 814.217 41.4772 814.217 41.4772Z" fill="#FF00AE"/>
<path fill-rule="evenodd" clip-rule="evenodd" d="M515.761 191.151C515.761 191.151 516.778 190.965 518.302 190.683C522.151 189.972 525.697 188.072 528.463 185.239C531.229 182.406 533.085 178.774 533.78 174.83L534.242 172.221L534.699 174.83C535.397 178.773 537.253 182.403 540.019 185.236C542.785 188.069 546.329 189.969 550.177 190.683C551.701 190.965 552.73 191.151 552.73 191.151L550.177 191.624C546.331 192.344 542.789 194.247 540.024 197.08C537.259 199.913 535.402 203.541 534.699 207.482L534.242 210.092L533.78 207.482C533.084 203.538 531.229 199.906 528.463 197.072C525.697 194.238 522.152 192.337 518.302 191.624C516.778 191.342 515.761 191.151 515.761 191.151V191.151Z" fill="white"/>
<path fill-rule="evenodd" clip-rule="evenodd" d="M677.162 239.396C677.162 238.415 677.427 237.456 677.922 236.64C678.418 235.825 679.122 235.189 679.946 234.814C680.771 234.439 681.677 234.341 682.552 234.533C683.427 234.725 684.23 235.197 684.86 235.892C685.491 236.586 685.92 237.47 686.093 238.432C686.266 239.395 686.176 240.392 685.834 241.298C685.492 242.204 684.913 242.978 684.171 243.523C683.429 244.067 682.557 244.357 681.665 244.355C680.47 244.354 679.325 243.831 678.481 242.901C677.636 241.971 677.162 240.71 677.162 239.396V239.396Z" fill="white"/>
<path fill-rule="evenodd" clip-rule="evenodd" d="M868.318 167.262C868.318 166.281 868.583 165.322 869.078 164.507C869.574 163.691 870.278 163.055 871.102 162.68C871.925 162.305 872.832 162.206 873.706 162.398C874.581 162.589 875.384 163.061 876.015 163.755C876.645 164.449 877.075 165.332 877.249 166.294C877.422 167.256 877.333 168.253 876.992 169.16C876.651 170.066 876.073 170.84 875.331 171.385C874.59 171.93 873.718 172.221 872.827 172.221C871.631 172.219 870.486 171.697 869.64 170.767C868.795 169.837 868.32 168.577 868.318 167.262V167.262Z" fill="white"/>
<path fill-rule="evenodd" clip-rule="evenodd" d="M1201.04 18.941C1201.04 18.941 1202.09 18.7494 1203.65 18.4732C1207.59 17.7568 1211.22 15.8539 1214.05 13.019C1216.88 10.1841 1218.78 6.55241 1219.5 2.60926L1219.97 1.72174e-05L1220.45 2.60926C1221.16 6.55286 1223.06 10.1847 1225.89 13.0195C1228.73 15.8544 1232.36 17.7571 1236.3 18.4732C1237.86 18.7494 1238.91 18.941 1238.91 18.941C1238.91 18.941 1237.86 19.1269 1236.3 19.4143C1232.36 20.1257 1228.73 22.0246 1225.89 24.8568C1223.06 27.689 1221.16 31.3192 1220.45 35.2614L1219.97 37.8706L1219.5 35.2614C1218.78 31.3194 1216.89 27.6888 1214.05 24.8564C1211.22 22.0241 1207.59 20.1252 1203.65 19.4143C1202.09 19.1269 1201.04 18.941 1201.04 18.941Z" fill="#FFCE00"/>
<path fill-rule="evenodd" clip-rule="evenodd" d="M1329.98 41.4774C1329.98 41.4774 1331.02 41.2858 1332.59 41.0098C1336.53 40.2928 1340.16 38.3902 1342.99 35.5563C1345.83 32.7225 1347.72 29.0922 1348.44 25.1505L1348.91 22.5421L1349.39 25.1505C1350.1 29.0925 1352 32.7231 1354.83 35.5572C1357.66 38.3912 1361.29 40.2935 1365.23 41.0098C1366.8 41.2858 1367.85 41.4774 1367.85 41.4774L1365.23 41.9506C1361.29 42.665 1357.66 44.566 1354.83 47.3991C1352 50.2323 1350.1 53.8626 1349.39 57.8042L1348.91 60.4127L1348.44 57.8042C1347.73 53.8629 1345.83 50.2331 1342.99 47.4C1340.16 44.567 1336.53 42.6657 1332.59 41.9506C1331.02 41.6689 1329.98 41.4774 1329.98 41.4774Z" fill="#FF00AE"/>
<path fill-rule="evenodd" clip-rule="evenodd" d="M1031.52 191.151C1031.52 191.151 1032.54 190.965 1034.06 190.683C1037.91 189.972 1041.46 188.072 1044.22 185.239C1046.99 182.406 1048.85 178.774 1049.54 174.83L1050 172.221L1050.46 174.83C1051.16 178.773 1053.01 182.403 1055.78 185.236C1058.55 188.069 1062.09 189.969 1065.94 190.683C1067.46 190.965 1068.49 191.151 1068.49 191.151L1065.94 191.624C1062.09 192.344 1058.55 194.247 1055.79 197.08C1053.02 199.913 1051.16 203.541 1050.46 207.482L1050 210.092L1049.54 207.482C1048.85 203.538 1046.99 199.906 1044.22 197.072C1041.46 194.238 1037.91 192.337 1034.06 191.624C1032.54 191.342 1031.52 191.151 1031.52 191.151V191.151Z" fill="white"/>
<path fill-rule="evenodd" clip-rule="evenodd" d="M1192.92 239.396C1192.92 238.415 1193.19 237.456 1193.68 236.64C1194.18 235.825 1194.88 235.189 1195.71 234.814C1196.53 234.439 1197.44 234.341 1198.31 234.533C1199.19 234.725 1199.99 235.197 1200.62 235.892C1201.25 236.586 1201.68 237.47 1201.85 238.432C1202.03 239.395 1201.94 240.392 1201.6 241.298C1201.25 242.204 1200.68 242.978 1199.93 243.523C1199.19 244.067 1198.32 244.357 1197.43 244.355C1196.23 244.354 1195.09 243.831 1194.24 242.901C1193.4 241.971 1192.92 240.71 1192.92 239.396V239.396Z" fill="white"/>
<path fill-rule="evenodd" clip-rule="evenodd" d="M1384.08 167.262C1384.08 166.281 1384.34 165.322 1384.84 164.507C1385.34 163.691 1386.04 163.055 1386.86 162.68C1387.69 162.305 1388.59 162.206 1389.47 162.398C1390.34 162.589 1391.15 163.061 1391.78 163.755C1392.41 164.449 1392.84 165.332 1393.01 166.294C1393.18 167.256 1393.09 168.253 1392.75 169.16C1392.41 170.066 1391.83 170.84 1391.09 171.385C1390.35 171.93 1389.48 172.221 1388.59 172.221C1387.39 172.219 1386.25 171.697 1385.4 170.767C1384.56 169.837 1384.08 168.577 1384.08 167.262V167.262Z" fill="white"/>
<path fill-rule="evenodd" clip-rule="evenodd" d="M238.946 136.159C238.946 136.159 239.994 135.968 241.556 135.692C245.498 134.975 249.128 133.072 251.959 130.237C254.791 127.403 256.69 123.771 257.403 119.828L257.876 117.218L258.355 119.828C259.068 123.771 260.968 127.403 263.801 130.238C266.634 133.073 270.265 134.975 274.208 135.692C275.763 135.968 276.817 136.159 276.817 136.159C276.817 136.159 275.763 136.345 274.208 136.633C270.265 137.344 266.634 139.243 263.801 142.075C260.968 144.907 259.068 148.538 258.355 152.48L257.876 155.089L257.403 152.48C256.692 148.538 254.793 144.907 251.96 142.075C249.128 139.243 245.498 137.344 241.556 136.633C239.994 136.345 238.946 136.159 238.946 136.159Z" fill="#FFCE00"/>
<path fill-rule="evenodd" clip-rule="evenodd" d="M367.886 158.696C367.886 158.696 368.928 158.504 370.5 158.228C374.442 157.511 378.07 155.609 380.902 152.775C383.733 149.941 385.632 146.311 386.345 142.369L386.818 139.761L387.297 142.369C388.009 146.311 389.908 149.942 392.739 152.776C395.571 155.61 399.2 157.512 403.142 158.228C404.703 158.504 405.756 158.696 405.756 158.696L403.142 159.169C399.2 159.883 395.571 161.784 392.739 164.618C389.908 167.451 388.009 171.081 387.297 175.023L386.818 177.631L386.345 175.023C385.632 171.081 383.734 167.452 380.902 164.618C378.071 161.785 374.442 159.884 370.5 159.169C368.928 158.887 367.886 158.696 367.886 158.696Z" fill="#FF00AE"/>
<path fill-rule="evenodd" clip-rule="evenodd" d="M69.4297 308.369C69.4297 308.369 70.4473 308.183 71.971 307.901C75.8203 307.19 79.3656 305.29 82.132 302.457C84.8983 299.624 86.7536 295.992 87.4494 292.049L87.9114 289.439L88.3679 292.049C89.0659 295.991 90.9219 299.622 93.6879 302.455C96.4538 305.287 99.9979 307.188 103.846 307.901C105.37 308.183 106.399 308.369 106.399 308.369L103.846 308.843C99.9997 309.563 96.4582 311.466 93.6932 314.298C90.9282 317.131 89.0707 320.76 88.3679 324.701L87.9114 327.31L87.4494 324.701C86.7532 320.757 84.8979 317.125 82.1317 314.291C79.3655 311.457 75.8205 309.556 71.971 308.843C70.4473 308.561 69.4297 308.369 69.4297 308.369V308.369Z" fill="white"/>
<path fill-rule="evenodd" clip-rule="evenodd" d="M230.831 356.615C230.831 355.634 231.096 354.675 231.591 353.859C232.087 353.043 232.791 352.408 233.615 352.032C234.44 351.657 235.346 351.559 236.221 351.751C237.096 351.943 237.899 352.416 238.529 353.11C239.16 353.804 239.589 354.688 239.762 355.651C239.935 356.613 239.845 357.611 239.503 358.517C239.161 359.423 238.582 360.197 237.84 360.741C237.098 361.285 236.226 361.575 235.334 361.574C234.139 361.572 232.994 361.049 232.15 360.119C231.305 359.189 230.831 357.929 230.831 356.615V356.615Z" fill="white"/>
<path fill-rule="evenodd" clip-rule="evenodd" d="M421.987 284.48C421.987 283.499 422.252 282.541 422.747 281.725C423.242 280.909 423.947 280.274 424.77 279.898C425.594 279.523 426.501 279.425 427.375 279.616C428.25 279.808 429.053 280.28 429.684 280.973C430.314 281.667 430.744 282.551 430.917 283.513C431.091 284.475 431.002 285.472 430.661 286.378C430.32 287.284 429.742 288.059 429 288.604C428.259 289.149 427.387 289.439 426.496 289.439C425.3 289.438 424.155 288.915 423.309 287.985C422.464 287.056 421.989 285.795 421.987 284.48V284.48Z" fill="white"/>
<path fill-rule="evenodd" clip-rule="evenodd" d="M754.708 136.159C754.708 136.159 755.756 135.968 757.317 135.692C761.26 134.975 764.889 133.072 767.721 130.237C770.553 127.403 772.452 123.771 773.164 119.828L773.638 117.218L774.117 119.828C774.83 123.771 776.73 127.403 779.563 130.238C782.396 133.073 786.026 134.975 789.969 135.692C791.525 135.968 792.579 136.159 792.579 136.159C792.579 136.159 791.525 136.345 789.969 136.633C786.027 137.344 782.396 139.243 779.563 142.075C776.73 144.907 774.829 148.538 774.117 152.48L773.638 155.089L773.164 152.48C772.453 148.538 770.554 144.907 767.722 142.075C764.89 139.243 761.259 137.344 757.317 136.633C755.756 136.345 754.708 136.159 754.708 136.159Z" fill="#FFCE00"/>
<path fill-rule="evenodd" clip-rule="evenodd" d="M883.647 158.696C883.647 158.696 884.69 158.504 886.262 158.228C890.203 157.511 893.832 155.609 896.663 152.775C899.495 149.941 901.394 146.311 902.107 142.369L902.58 139.761L903.059 142.369C903.771 146.311 905.67 149.942 908.501 152.776C911.333 155.61 914.962 157.512 918.904 158.228C920.464 158.504 921.518 158.696 921.518 158.696L918.904 159.169C914.962 159.883 911.332 161.784 908.501 164.618C905.669 167.451 903.771 171.081 903.059 175.023L902.58 177.631L902.107 175.023C901.394 171.081 899.495 167.452 896.664 164.618C893.832 161.785 890.203 159.884 886.262 159.169C884.69 158.887 883.647 158.696 883.647 158.696Z" fill="#FF00AE"/>
<path fill-rule="evenodd" clip-rule="evenodd" d="M585.191 308.369C585.191 308.369 586.209 308.183 587.733 307.901C591.582 307.19 595.127 305.29 597.894 302.457C600.66 299.624 602.515 295.992 603.211 292.049L603.673 289.439L604.13 292.049C604.828 295.991 606.684 299.622 609.45 302.455C612.216 305.287 615.76 307.188 619.608 307.901C621.132 308.183 622.16 308.369 622.16 308.369L619.608 308.843C615.761 309.563 612.22 311.466 609.455 314.298C606.69 317.131 604.832 320.76 604.13 324.701L603.673 327.31L603.211 324.701C602.515 320.757 600.66 317.125 597.893 314.291C595.127 311.457 591.582 309.556 587.733 308.843C586.209 308.561 585.191 308.369 585.191 308.369V308.369Z" fill="white"/>
<path fill-rule="evenodd" clip-rule="evenodd" d="M746.593 356.615C746.593 355.634 746.857 354.675 747.353 353.859C747.849 353.043 748.553 352.408 749.377 352.032C750.201 351.657 751.108 351.559 751.983 351.751C752.857 351.943 753.661 352.416 754.291 353.11C754.921 353.804 755.35 354.688 755.524 355.651C755.697 356.613 755.607 357.611 755.265 358.517C754.923 359.423 754.344 360.197 753.602 360.741C752.86 361.285 751.988 361.575 751.096 361.574C749.901 361.572 748.756 361.049 747.911 360.119C747.067 359.189 746.593 357.929 746.593 356.615V356.615Z" fill="white"/>
<path fill-rule="evenodd" clip-rule="evenodd" d="M937.749 284.48C937.749 283.499 938.013 282.541 938.509 281.725C939.004 280.909 939.708 280.274 940.532 279.898C941.356 279.523 942.262 279.425 943.137 279.616C944.012 279.808 944.815 280.28 945.445 280.973C946.076 281.667 946.505 282.551 946.679 283.513C946.853 284.475 946.764 285.472 946.423 286.378C946.081 287.284 945.504 288.059 944.762 288.604C944.021 289.149 943.149 289.439 942.257 289.439C941.062 289.438 939.916 288.915 939.071 287.985C938.226 287.056 937.75 285.795 937.749 284.48V284.48Z" fill="white"/>
<path fill-rule="evenodd" clip-rule="evenodd" d="M1270.47 136.159C1270.47 136.159 1271.52 135.968 1273.08 135.692C1277.02 134.975 1280.65 133.072 1283.48 130.237C1286.31 127.403 1288.21 123.771 1288.93 119.828L1289.4 117.218L1289.88 119.828C1290.59 123.771 1292.49 127.403 1295.32 130.238C1298.16 133.073 1301.79 134.975 1305.73 135.692C1307.29 135.968 1308.34 136.159 1308.34 136.159C1308.34 136.159 1307.29 136.345 1305.73 136.633C1301.79 137.344 1298.16 139.243 1295.32 142.075C1292.49 144.907 1290.59 148.538 1289.88 152.48L1289.4 155.089L1288.93 152.48C1288.21 148.538 1286.32 144.907 1283.48 142.075C1280.65 139.243 1277.02 137.344 1273.08 136.633C1271.52 136.345 1270.47 136.159 1270.47 136.159Z" fill="#FFCE00"/>
<path fill-rule="evenodd" clip-rule="evenodd" d="M1399.41 158.696C1399.41 158.696 1400.45 158.504 1402.02 158.228C1405.96 157.511 1409.59 155.609 1412.42 152.775C1415.26 149.941 1417.15 146.311 1417.87 142.369L1418.34 139.761L1418.82 142.369C1419.53 146.311 1421.43 149.942 1424.26 152.776C1427.09 155.61 1430.72 157.512 1434.66 158.228C1436.23 158.504 1437.28 158.696 1437.28 158.696L1434.66 159.169C1430.72 159.883 1427.09 161.784 1424.26 164.618C1421.43 167.451 1419.53 171.081 1418.82 175.023L1418.34 177.631L1417.87 175.023C1417.15 171.081 1415.26 167.452 1412.42 164.618C1409.59 161.785 1405.96 159.884 1402.02 159.169C1400.45 158.887 1399.41 158.696 1399.41 158.696Z" fill="#FF00AE"/>
<path fill-rule="evenodd" clip-rule="evenodd" d="M1100.95 308.369C1100.95 308.369 1101.97 308.183 1103.49 307.901C1107.34 307.19 1110.89 305.29 1113.65 302.457C1116.42 299.624 1118.28 295.992 1118.97 292.049L1119.43 289.439L1119.89 292.049C1120.59 295.991 1122.44 299.622 1125.21 302.455C1127.98 305.287 1131.52 307.188 1135.37 307.901C1136.89 308.183 1137.92 308.369 1137.92 308.369L1135.37 308.843C1131.52 309.563 1127.98 311.466 1125.22 314.298C1122.45 317.131 1120.59 320.76 1119.89 324.701L1119.43 327.31L1118.97 324.701C1118.28 320.757 1116.42 317.125 1113.65 314.291C1110.89 311.457 1107.34 309.556 1103.49 308.843C1101.97 308.561 1100.95 308.369 1100.95 308.369V308.369Z" fill="white"/>
<path fill-rule="evenodd" clip-rule="evenodd" d="M1262.35 356.615C1262.35 355.634 1262.62 354.675 1263.11 353.859C1263.61 353.043 1264.31 352.408 1265.14 352.032C1265.96 351.657 1266.87 351.559 1267.74 351.751C1268.62 351.943 1269.42 352.416 1270.05 353.11C1270.68 353.804 1271.11 354.688 1271.28 355.651C1271.46 356.613 1271.37 357.611 1271.03 358.517C1270.68 359.423 1270.1 360.197 1269.36 360.741C1268.62 361.285 1267.75 361.575 1266.86 361.574C1265.66 361.572 1264.52 361.049 1263.67 360.119C1262.83 359.189 1262.35 357.929 1262.35 356.615V356.615Z" fill="white"/>
<path fill-rule="evenodd" clip-rule="evenodd" d="M1453.51 284.48C1453.51 283.499 1453.77 282.541 1454.27 281.725C1454.76 280.909 1455.47 280.274 1456.29 279.898C1457.12 279.523 1458.02 279.425 1458.9 279.616C1459.77 279.808 1460.58 280.28 1461.21 280.973C1461.84 281.667 1462.27 282.551 1462.44 283.513C1462.61 284.475 1462.52 285.472 1462.18 286.378C1461.84 287.284 1461.26 288.059 1460.52 288.604C1459.78 289.149 1458.91 289.439 1458.02 289.439C1456.82 289.438 1455.68 288.915 1454.83 287.985C1453.99 287.056 1453.51 285.795 1453.51 284.48V284.48Z" fill="white"/>
</g>
<defs>
<filter id="filter0_d" x="1196.79" y="6.96896" width="255.343" height="309.879" filterUnits="userSpaceOnUse" color-interpolation-filters="sRGB">
<feFlood flood-opacity="0" result="BackgroundImageFix"/>
<feColorMatrix in="SourceAlpha" type="matrix" values="0 0 0 0 0 0 0 0 0 0 0 0 0 0 0 0 0 0 127 0" result="hardAlpha"/>
<feOffset dy="4"/>
<feGaussianBlur stdDeviation="17"/>
<feComposite in2="hardAlpha" operator="out"/>
<feColorMatrix type="matrix" values="0 0 0 0 1 0 0 0 0 1 0 0 0 0 1 0 0 0 1 0"/>
<feBlend mode="normal" in2="BackgroundImageFix" result="effect1_dropShadow"/>
<feBlend mode="normal" in="SourceGraphic" in2="effect1_dropShadow" result="shape"/>
</filter>
</defs>
</svg>
