<svg width="75" height="68" viewBox="0 0 75 68" fill="none" xmlns="http://www.w3.org/2000/svg">
<g clip-path="url(#clip0)">
<path d="M73.5382 66.192H1.46191L4.46191 51.5098L5.3581 47.1051L10.7034 20.925H64.2967L64.6653 22.7365L65.784 28.2089L73.5382 66.192Z" fill="#6BDA59"/>
<path d="M65.7839 28.2089L56.7649 43.9526C56.7601 43.9622 56.7537 43.9708 56.7458 43.978C56.7345 44 56.7218 44.0213 56.7077 44.0416C56.6513 44.1315 56.5876 44.2166 56.517 44.2958C56.4979 44.3212 56.4725 44.3467 56.4534 44.3721C56.3642 44.4634 56.2686 44.5484 56.1674 44.6263C56.1674 44.6327 56.1611 44.6327 56.1547 44.639C56.0525 44.7086 55.9464 44.7723 55.8369 44.8297C55.8081 44.842 55.7804 44.8569 55.7543 44.8742C55.6327 44.926 55.5073 44.9685 55.3793 45.0013C55.3729 45.0077 55.3729 45.0077 55.3666 45.0077L33.0128 50.5437L47.0721 64.6221C47.5316 65.0778 48.2797 65.8132 48.656 66.192H42.356L27.7373 51.5543H4.90683C4.75734 51.5558 4.60813 51.5409 4.46191 51.5098L5.3581 47.1051H26.4344V20.925H30.8835V46.4886L53.3772 40.9208L63.178 23.8043C63.5085 23.2259 64.0634 22.1479 64.425 21.5556L65.7839 28.2089Z" fill="#81A1B1"/>
<path d="M47.2309 1.18225C45.66 1.18217 44.1045 1.49151 42.6532 2.09262C41.2019 2.69373 39.8832 3.57484 38.7724 4.68561C37.6616 5.79639 36.7805 7.11509 36.1794 8.56641C35.5783 10.0177 35.269 11.5732 35.269 13.1441C35.269 23.2183 47.2309 39.4386 47.2309 39.4386C47.2309 39.4386 59.1928 23.2183 59.1928 13.1441C59.1929 11.5732 58.8835 10.0177 58.2824 8.56641C57.6813 7.11509 56.8002 5.79639 55.6894 4.68561C54.5786 3.57484 53.2599 2.69373 51.8086 2.09262C50.3573 1.49151 48.8018 1.18217 47.2309 1.18225ZM47.2309 14.7776C46.4471 14.777 45.6811 14.5439 45.0298 14.108C44.3784 13.672 43.871 13.0526 43.5716 12.3283C43.2722 11.6039 43.1944 10.807 43.3479 10.0384C43.5015 9.26981 43.8795 8.56399 44.4341 8.01021C44.9888 7.45643 45.6952 7.07957 46.4641 6.92727C47.2329 6.77498 48.0297 6.8541 48.7536 7.15462C49.4775 7.45515 50.096 7.96358 50.5309 8.61563C50.9658 9.26768 51.1976 10.0341 51.197 10.8178C51.1969 11.3384 51.0942 11.8538 50.8948 12.3345C50.6954 12.8153 50.4031 13.2521 50.0348 13.6199C49.6664 13.9876 49.2292 14.2792 48.7481 14.4778C48.267 14.6765 47.7514 14.7783 47.2309 14.7776Z" fill="#FF1200"/>
<path d="M26.3138 65.0784H15.9536C15.6586 65.0784 15.3757 65.1956 15.1671 65.4042C14.9585 65.6127 14.8413 65.8957 14.8413 66.1907C14.8413 66.4857 14.9585 66.7686 15.1671 66.9772C15.3757 67.1858 15.6586 67.3029 15.9536 67.3029H26.3138C26.6088 67.3029 26.8917 67.1858 27.1003 66.9772C27.3089 66.7686 27.4261 66.4857 27.4261 66.1907C27.4261 65.8957 27.3089 65.6127 27.1003 65.4042C26.8917 65.1956 26.6088 65.0784 26.3138 65.0784Z" fill="black"/>
<path d="M65.3868 20.7038C65.3356 20.4525 65.1991 20.2266 65.0005 20.0644C64.8018 19.9023 64.5532 19.8138 64.2967 19.8139H59.0925C59.8314 17.6638 60.2403 15.4141 60.3052 13.1415C60.3052 9.67434 58.9279 6.3492 56.4762 3.89756C54.0246 1.44592 50.6995 0.0686035 47.2323 0.0686035C43.7652 0.0686035 40.44 1.44592 37.9884 3.89756C35.5368 6.3492 34.1594 9.67434 34.1594 13.1415C34.2247 15.4132 34.6333 17.662 35.3715 19.8114H10.7035C10.4471 19.8113 10.1985 19.8999 9.9999 20.062C9.80126 20.2242 9.66475 20.45 9.61347 20.7012L0.37194 65.9675C0.339069 66.1292 0.342526 66.2961 0.382061 66.4562C0.421596 66.6163 0.496221 66.7656 0.600538 66.8933C0.704855 67.0211 0.836257 67.124 0.98524 67.1947C1.13422 67.2655 1.29706 67.3022 1.46198 67.3023H9.06368C9.35868 67.3023 9.64159 67.1851 9.85018 66.9765C10.0588 66.7679 10.176 66.485 10.176 66.19C10.176 65.895 10.0588 65.6121 9.85018 65.4035C9.64159 65.1949 9.35868 65.0777 9.06368 65.0777H2.82406L5.35817 52.6665H27.2766L39.6707 65.0783H33.1972C32.9022 65.0783 32.6192 65.1955 32.4106 65.4041C32.2021 65.6127 32.0849 65.8956 32.0849 66.1906C32.0849 66.4856 32.2021 66.7685 32.4106 66.9771C32.6192 67.1857 32.9022 67.3029 33.1972 67.3029H42.3433H42.3561H48.6561H48.6643H52.8942C53.1892 67.3029 53.4721 67.1857 53.6807 66.9771C53.8893 66.7685 54.0065 66.4856 54.0065 66.1906C54.0065 65.8956 53.8893 65.6127 53.6807 65.4041C53.4721 65.1955 53.1892 65.0783 52.8942 65.0783H49.115C48.8938 64.8584 48.6376 64.6048 48.3891 64.3601L35.1904 51.1506L55.6342 46.0875C56.0722 45.9784 56.4836 45.7821 56.844 45.5104C57.2044 45.2387 57.5063 44.8971 57.7317 44.5061L65.2844 31.322L72.1775 65.079H59.7777C59.4827 65.079 59.1997 65.1962 58.9912 65.4048C58.7826 65.6134 58.6654 65.8963 58.6654 66.1913C58.6654 66.4863 58.7826 66.7692 58.9912 66.9778C59.1997 67.1864 59.4827 67.3036 59.7777 67.3036H73.5383C73.7032 67.3035 73.866 67.2667 74.015 67.196C74.164 67.1253 74.2954 67.0223 74.3997 66.8946C74.504 66.7669 74.5786 66.6175 74.6182 66.4574C74.6577 66.2973 74.6612 66.1304 74.6283 65.9688C72.7952 56.9885 67.3762 30.4449 65.3868 20.7038ZM47.2317 2.29318C50.1079 2.29638 52.8654 3.44033 54.8993 5.47407C56.9332 7.50781 58.0773 10.2653 58.0806 13.1415C58.0806 20.4012 51.3821 31.5152 47.2317 37.5139C43.1105 31.5591 36.384 20.4235 36.384 13.1415C36.3872 10.2654 37.5311 7.50807 39.5647 5.47433C41.5983 3.44059 44.3556 2.29654 47.2317 2.29318ZM46.3349 40.1002C46.4383 40.2403 46.5732 40.3541 46.7287 40.4326C46.8842 40.511 47.0559 40.5519 47.2301 40.5519C47.4043 40.5519 47.576 40.511 47.7315 40.4326C47.887 40.3541 48.0219 40.2403 48.1253 40.1002C48.4921 39.6019 54.9491 30.7767 58.3075 22.036H62.8749C61.6241 24.3406 63.9726 20.119 52.6463 39.9553L31.9959 45.0667V22.036H36.1552C39.513 30.7767 45.97 39.6019 46.3349 40.1002ZM11.6118 22.036H25.3222V45.9928H6.72024L11.6118 22.036ZM55.8344 43.3411C55.7563 43.498 55.6426 43.6345 55.5023 43.7397C55.3621 43.8449 55.1992 43.9158 55.0266 43.9468L32.7452 49.4644C32.5541 49.5118 32.379 49.6091 32.2378 49.7464C32.0966 49.8836 31.9943 50.0559 31.9415 50.2456C31.8887 50.4354 31.8872 50.6357 31.9372 50.8262C31.9872 51.0167 32.0868 51.1905 32.226 51.3298L45.9535 65.0783H42.8137L28.5243 50.7686C28.421 50.6651 28.2984 50.5829 28.1634 50.5269C28.0284 50.4708 27.8836 50.4419 27.7374 50.4419H5.81389L6.26707 48.2173H26.4344C26.7294 48.2173 27.0124 48.1001 27.2209 47.8915C27.4295 47.683 27.5467 47.4 27.5467 47.105V22.0373H29.7713V46.4885C29.7713 46.6573 29.8097 46.8239 29.8836 46.9757C29.9575 47.1275 30.065 47.2604 30.1979 47.3645C30.3308 47.4686 30.4856 47.5411 30.6506 47.5766C30.8157 47.612 30.9866 47.6094 31.1505 47.569L53.6442 42.0012C53.7904 41.9652 53.9277 41.8999 54.0479 41.8092C54.1681 41.7185 54.2686 41.6044 54.3433 41.4737L63.9364 24.7207L64.6107 28.022L55.8344 43.3411Z" fill="black"/>
<path d="M47.2317 15.8898C48.2354 15.8899 49.2166 15.5924 50.0512 15.0348C50.8858 14.4772 51.5363 13.6847 51.9205 12.7574C52.3046 11.8301 52.4052 10.8098 52.2094 9.82534C52.0136 8.8409 51.5303 7.93664 50.8206 7.22691C50.1108 6.51718 49.2066 6.03386 48.2221 5.83808C47.2377 5.6423 46.2173 5.74284 45.29 6.127C44.3628 6.51116 43.5702 7.16169 43.0127 7.99629C42.4551 8.8309 42.1576 9.81211 42.1577 10.8158C42.1592 12.161 42.6943 13.4507 43.6455 14.402C44.5967 15.3532 45.8864 15.8882 47.2317 15.8898ZM47.2317 7.96518C47.7953 7.96505 48.3464 8.13208 48.8151 8.44514C49.2839 8.7582 49.6493 9.20322 49.8651 9.72394C50.0809 10.2447 50.1375 10.8177 50.0277 11.3706C49.9178 11.9234 49.6465 12.4313 49.248 12.83C48.8495 13.2287 48.3417 13.5002 47.7889 13.6103C47.2361 13.7204 46.663 13.6641 46.1422 13.4485C45.6214 13.2329 45.1762 12.8677 44.863 12.3991C44.5497 11.9305 44.3824 11.3795 44.3823 10.8158C44.3833 10.0604 44.6838 9.33627 45.218 8.80212C45.7521 8.26798 46.4763 7.96746 47.2317 7.96645V7.96518Z" fill="black"/>
</g>
<defs>
<clipPath id="clip0">
<rect width="75" height="67.3729" fill="white"/>
</clipPath>
</defs>
</svg>
