<svg width="63" height="47" viewBox="0 0 63 47" fill="none" xmlns="http://www.w3.org/2000/svg">
<path d="M52.6641 31.4864C52.6558 31.6886 52.6243 31.8891 52.5703 32.0841C52.4636 32.479 52.2753 32.8471 52.0177 33.1648C51.76 33.4825 51.4387 33.7427 51.0745 33.9287C50.7102 34.1147 50.311 34.2224 49.9026 34.2448C49.4941 34.2672 49.0856 34.2038 48.7031 34.0587L45.5273 32.8517C46.1055 33.0748 46.5978 33.4761 46.9327 33.9975C47.2677 34.519 47.4281 35.1335 47.3906 35.7521C47.3788 36.1499 47.2787 36.5402 47.0977 36.8947C46.7481 37.5512 46.1684 38.0555 45.4698 38.3107C44.7712 38.5659 44.0029 38.5541 43.3125 38.2775L40.7461 37.3048C41.3277 37.5266 41.8235 37.9279 42.1617 38.4504C42.4999 38.973 42.6628 39.5897 42.627 40.2111C42.6094 40.6069 42.5075 40.9945 42.3281 41.3478C41.9791 42.0049 41.3998 42.51 40.7012 42.7663C40.0027 43.0226 39.2341 43.0119 38.543 42.7365L34.1543 41.0665L28.6055 38.963L26.9414 38.3302C25.6547 37.8463 24.4001 37.2807 23.1855 36.6368C21.4485 35.7281 19.7989 34.6611 18.2578 33.4493C17.2369 32.6571 16.2681 31.7998 15.3574 30.8829C14.877 30.4025 14.3613 29.9044 13.8223 29.4064C11.6016 27.3615 8.91797 25.3107 6.18164 24.1857L11.1387 11.1368C16.7526 11.8161 22.431 11.7629 28.0312 10.9786C29.584 10.7677 31.207 10.504 32.8711 10.1583L35.0801 12.9298C37.0372 15.3972 39.4879 17.4288 42.2754 18.8947C43.0497 19.3072 43.848 19.6731 44.666 19.9904L44.8008 20.0431L47.9004 21.2208L48.5039 21.4493C48.6429 21.5023 48.778 21.5649 48.9082 21.6368C49.1227 21.7517 49.3215 21.8934 49.5 22.0587C49.8447 22.3632 50.1144 22.7432 50.2882 23.169C50.462 23.5949 50.5351 24.0551 50.502 24.5138C50.4846 24.6778 50.4552 24.8404 50.4141 25.0001C50.3083 25.3902 50.123 25.7543 49.8698 26.0693C49.6166 26.3843 49.3009 26.6435 48.9426 26.8306C48.5844 27.0178 48.1913 27.1287 47.788 27.1565C47.3848 27.1844 46.9802 27.1284 46.5996 26.9923L50.6602 28.5333C51.2604 28.7552 51.7763 29.1591 52.1356 29.6886C52.4949 30.2181 52.6797 30.8467 52.6641 31.4864Z" fill="#FFD18B"/>
<path d="M57.1997 16.139L53.1831 18.1681C51.6506 19.1447 50.4066 20.5127 49.5796 22.1308C49.3072 21.8562 48.9826 21.6388 48.6251 21.4915L41.4256 18.761C39.8148 18.1499 38.3989 17.115 37.3276 15.7657C37.0002 15.3533 36.5878 15.0162 36.1184 14.7775C35.649 14.5388 35.1337 14.404 34.6075 14.3823C34.0814 14.3606 33.5567 14.4525 33.0693 14.6518C32.5819 14.8511 32.1431 15.1531 31.7829 15.5372L30.0163 17.4204L25.8116 21.9005C25.2718 22.4309 24.5477 22.7318 23.791 22.7402C23.0343 22.7487 22.3037 22.464 21.7522 21.9458C21.2007 21.4276 20.8711 20.7162 20.8324 19.9604C20.7938 19.2047 21.049 18.4633 21.5448 17.8915L29.1145 9.81728C29.5762 9.32465 30.1311 8.92863 30.7471 8.65222C31.3631 8.37581 32.0279 8.22452 32.7028 8.20713L40.811 7.50986C44.1199 7.35441 47.3052 6.20566 49.9516 4.21338L57.1997 16.139Z" fill="#D4A66B"/>
<path d="M20.1506 30.1622L17.3673 34.9961L17.3615 35.002C17.0508 35.5422 16.5759 35.9693 16.0058 36.2212C15.4357 36.473 14.8002 36.5365 14.1916 36.4024C13.9078 36.3407 13.6351 36.236 13.383 36.0918C13.0463 35.9014 12.7506 35.6462 12.5131 35.341C12.2755 35.0357 12.1008 34.6864 11.9989 34.3133C11.8971 33.9401 11.8701 33.5505 11.9196 33.1669C11.9691 32.7833 12.094 32.4133 12.2873 32.0782L15.0705 27.2442C15.4647 26.5849 16.102 26.1069 16.8452 25.9129C17.5884 25.719 18.3781 25.8247 19.0442 26.2073C19.7102 26.5898 20.1994 27.2187 20.4063 27.9584C20.6132 28.6981 20.5214 29.4895 20.1506 30.1622Z" fill="#D4A66B"/>
<path d="M25.3243 32.9102L25.2833 32.9922L22.4239 37.9551L22.3419 38.0899C22.013 38.5797 21.5442 38.9591 20.9965 39.1786C20.4488 39.3981 19.8477 39.4475 19.2716 39.3204C18.9878 39.2587 18.7151 39.154 18.463 39.0098C18.1266 38.8199 17.8311 38.5653 17.5934 38.2607C17.3558 37.9562 17.1808 37.6076 17.0784 37.2351C16.976 36.8626 16.9483 36.4735 16.9969 36.0903C17.0455 35.707 17.1693 35.3372 17.3614 35.002L17.3673 34.9961L20.1505 30.1622L20.2559 29.9922C20.6664 29.3785 21.2941 28.943 22.0127 28.7734C22.7313 28.6038 23.4874 28.7127 24.129 29.0782C24.3975 29.2262 24.6391 29.4183 24.8438 29.6465C25.2435 30.0788 25.5032 30.6217 25.5889 31.2041C25.6747 31.7864 25.5824 32.3811 25.3243 32.9102Z" fill="#D4A66B"/>
<path d="M30.3343 35.9629L27.5042 40.879C27.187 41.4068 26.7122 41.8219 26.1467 42.0657C25.5812 42.3096 24.9535 42.37 24.3519 42.2383C24.0681 42.1767 23.7954 42.0719 23.5433 41.9278C22.8703 41.5473 22.3751 40.9161 22.1654 40.172C21.9558 39.4278 22.0488 38.631 22.4242 37.9551L25.2835 32.9922C25.6821 32.3509 26.3132 31.8885 27.0449 31.7017C27.7766 31.515 28.5521 31.6184 29.2093 31.9903C29.4952 32.1523 29.7525 32.3602 29.971 32.6055C30.3701 33.0596 30.6192 33.6258 30.6842 34.2267C30.7492 34.8277 30.627 35.4341 30.3343 35.9629Z" fill="#D4A66B"/>
<path d="M35.3968 38.9044L32.5843 43.797C32.267 44.3248 31.7923 44.7399 31.2268 44.9838C30.6613 45.2276 30.0335 45.288 29.4319 45.1563C29.1481 45.0947 28.8754 44.99 28.6233 44.8458C27.9533 44.464 27.4604 43.8339 27.251 43.0917C27.0416 42.3495 27.1325 41.5547 27.5042 40.879L30.3343 35.963C30.7245 35.3048 31.3572 34.8257 32.0966 34.6286C32.8359 34.4314 33.6231 34.5318 34.2893 34.9083C34.5578 35.0563 34.7995 35.2485 35.0042 35.4767C35.4239 35.933 35.688 36.5107 35.7586 37.1266C35.8291 37.7426 35.7024 38.365 35.3968 38.9044Z" fill="#D4A66B"/>
<path d="M11.1363 11.1363L6.1834 24.1845L1.87793 22.5931L6.7166 9.50208L11.1363 11.1363Z" fill="#ADD3D8"/>
<path d="M53.9762 1.76587L61.1223 13.7547L57.2 16.1389L49.9502 4.21333L53.9762 1.76587Z" fill="#ADD3D8"/>
<path d="M62.0028 13.2303L54.8544 1.24141C54.7851 1.12503 54.6935 1.02353 54.5848 0.942771C54.4761 0.862012 54.3524 0.803599 54.221 0.770909C54.0896 0.738218 53.953 0.731897 53.8191 0.752313C53.6853 0.772729 53.5568 0.819476 53.4411 0.889851C52.537 1.44063 49.3805 3.35372 49.312 3.40938C45.361 6.5418 40.537 6.47266 40.1508 6.53653C40.0152 6.54561 39.8828 6.58157 39.7612 6.6423C39.6396 6.70304 39.5313 6.78734 39.4426 6.89031C39.3538 6.99328 39.2865 7.11287 39.2444 7.24211C39.2023 7.37135 39.1863 7.50766 39.1974 7.64313C39.2084 7.7786 39.2463 7.91052 39.3088 8.03121C39.3714 8.15191 39.4572 8.25897 39.5615 8.34617C39.6658 8.43337 39.7863 8.49898 39.9162 8.53917C40.046 8.57936 40.1825 8.59333 40.3178 8.58028C43.6321 8.4833 46.8575 7.48681 49.6489 5.69747C50.2735 6.72403 47.3901 1.98087 55.7426 15.7264C54.5292 16.5467 51.6469 16.9914 49.251 20.6482C49.0753 20.5598 49.7133 20.8094 41.7844 17.8024C40.3457 17.2591 39.0816 16.3349 38.1276 15.1287C37.7087 14.6004 37.1807 14.1686 36.5798 13.8627C35.9789 13.5569 35.3191 13.3842 34.6454 13.3563C33.9717 13.3285 33.2999 13.4463 32.6758 13.7016C32.0517 13.9569 31.49 14.3437 31.029 14.8357L25.063 21.1984C24.7157 21.5577 24.2409 21.7659 23.7413 21.7778C23.2417 21.7898 22.7576 21.6046 22.3935 21.2623C22.0294 20.92 21.8147 20.4482 21.7958 19.9488C21.777 19.4494 21.9554 18.9627 22.2926 18.594L29.8641 10.5191C31.2897 8.99571 32.9696 9.30626 33.9985 9.12286C34.1328 9.11108 34.2635 9.07291 34.383 9.01054C34.5025 8.94818 34.6086 8.86284 34.6951 8.75942C34.7815 8.656 34.8468 8.53654 34.887 8.40787C34.9273 8.27919 34.9417 8.14385 34.9296 8.00958C34.9193 7.8747 34.8821 7.74324 34.8203 7.62296C34.7584 7.50267 34.6731 7.39599 34.5693 7.30921C34.4656 7.22244 34.3455 7.15732 34.2161 7.1177C34.0868 7.07807 33.9508 7.06475 33.8163 7.07852C32.9872 7.242 30.4548 6.87989 28.3635 9.117L27.5368 10.0018C26.1751 10.1775 24.828 10.3117 23.5301 10.399C23.3951 10.4071 23.2629 10.4418 23.1413 10.5012C23.0197 10.5605 22.9111 10.6434 22.8217 10.7449C22.7322 10.8465 22.6638 10.9647 22.6203 11.0928C22.5768 11.221 22.559 11.3564 22.5681 11.4915C22.5772 11.6265 22.6129 11.7583 22.6732 11.8795C22.7335 12.0006 22.8172 12.1086 22.9194 12.1973C23.0216 12.2859 23.1404 12.3535 23.2689 12.396C23.3973 12.4385 23.5329 12.4552 23.6678 12.4451C24.2274 12.4076 24.8016 12.3549 25.3758 12.3016L20.7979 17.1895C20.089 17.9549 19.7115 18.9695 19.7477 20.0122C19.784 21.0548 20.231 22.0408 20.9913 22.7552C21.7516 23.4696 22.7635 23.8543 23.8064 23.8256C24.8493 23.7968 25.8385 23.3569 26.5583 22.6018L32.5319 16.2344C32.7769 15.97 33.0742 15.7595 33.405 15.6162C33.7358 15.473 34.0927 15.4001 34.4532 15.4024C34.8518 15.4014 35.2455 15.4909 35.6045 15.664C35.9636 15.8372 36.2787 16.0895 36.5262 16.402C37.7104 17.8979 39.2785 19.0444 41.0631 19.719L48.1436 22.4096C48.6044 22.5724 48.9895 22.8986 49.2258 23.3263C49.4621 23.7541 49.5332 24.2537 49.4257 24.7305C49.3561 24.9867 49.2339 25.2256 49.0668 25.4319C48.8997 25.6382 48.6914 25.8074 48.4553 25.9287C48.2191 26.05 47.9603 26.1208 47.6953 26.1364C47.4302 26.152 47.1649 26.1122 46.9161 26.0195H46.9102L34.3126 21.2307C34.1866 21.1828 34.0525 21.1601 33.9179 21.1641C33.7832 21.168 33.6506 21.1984 33.5277 21.2536C33.4048 21.3088 33.2939 21.3876 33.2015 21.4856C33.1091 21.5836 33.0368 21.6989 32.9889 21.8248C32.941 21.9507 32.9184 22.0849 32.9223 22.2195C32.9263 22.3542 32.9567 22.4868 33.0119 22.6097C33.067 22.7326 33.1459 22.8434 33.2439 22.9359C33.3419 23.0283 33.4572 23.1005 33.5831 23.1484C40.1948 25.6586 21.4008 18.5242 50.2952 29.493C50.7573 29.6545 51.1438 29.9805 51.381 30.4088C51.6181 30.837 51.6892 31.3377 51.5807 31.815C51.5122 32.0723 51.3904 32.3124 51.2233 32.5197C51.0561 32.7269 50.8474 32.8968 50.6104 33.0183C50.3735 33.1398 50.1137 33.2103 49.8478 33.225C49.582 33.2398 49.316 33.1986 49.0671 33.1041L32.2313 26.7092C32.1055 26.6614 31.9714 26.6389 31.8369 26.6429C31.7023 26.6469 31.5699 26.6774 31.4471 26.7326C31.3243 26.7878 31.2136 26.8666 31.1213 26.9646C31.029 27.0626 30.9569 27.1778 30.9091 27.3036C30.8614 27.4295 30.8388 27.5635 30.8428 27.698C30.8469 27.8326 30.8773 27.965 30.9325 28.0878C30.9877 28.2106 31.0666 28.3213 31.1646 28.4136C31.2625 28.5059 31.3777 28.578 31.5036 28.6258L45.1489 33.8061C45.3974 33.9011 45.6234 34.0471 45.8122 34.2346C46.0011 34.4221 46.1486 34.647 46.2455 34.8949C46.3423 35.1428 46.3862 35.4081 46.3745 35.674C46.3627 35.9398 46.2955 36.2003 46.1772 36.4387C45.9407 36.8671 45.5548 37.1935 45.093 37.3556C44.6312 37.5177 44.1259 37.5042 43.6735 37.3176L31.2007 32.582C30.7522 31.7917 30.0437 31.1812 29.1958 30.8543C28.348 30.5274 27.413 30.5044 26.5501 30.7891C26.4349 30.2485 26.2072 29.7382 25.8816 29.2916C25.5561 28.8449 25.1401 28.4718 24.6608 28.1966C24.1815 27.9214 23.6495 27.7503 23.0997 27.6944C22.5498 27.6385 21.9943 27.6991 21.4694 27.8723C21.3551 27.3261 21.125 26.8107 20.7947 26.3609C20.4644 25.9111 20.0415 25.5374 19.5546 25.2649C18.6456 24.7535 17.5717 24.6211 16.5657 24.8962C15.5597 25.1712 14.7027 25.8317 14.1803 26.7344L13.5663 27.8008C11.7308 26.1536 9.68598 24.7558 7.48483 23.6436C13.1801 8.64884 11.352 13.4606 11.8091 12.2576C12.8174 12.3748 14.7001 12.5506 17.2337 12.6063C17.5056 12.6122 17.7688 12.5098 17.9652 12.3217C18.1617 12.1335 18.2754 11.8751 18.2813 11.6031C18.2872 11.3312 18.1849 11.068 17.9967 10.8715C17.8086 10.6751 17.5501 10.5614 17.2782 10.5555C15.3105 10.5273 13.3458 10.3888 11.3936 10.1406L7.07233 8.54044C6.81745 8.44622 6.53561 8.45689 6.28859 8.57013C6.04157 8.68337 5.84953 8.88994 5.75456 9.14454L0.914131 22.2379C0.819887 22.493 0.830834 22.7751 0.944564 23.0221C1.05829 23.2691 1.26549 23.4608 1.52058 23.5551C4.1614 24.765 6.94636 24.6818 12.518 29.6178L11.3948 31.5678C11.1341 32.02 10.9656 32.5194 10.899 33.0371C10.8324 33.5549 10.8691 34.0806 11.0068 34.5841C11.1445 35.0876 11.3806 35.5588 11.7014 35.9706C12.0223 36.3823 12.4215 36.7264 12.876 36.983C13.3522 37.2537 13.8802 37.4209 14.4254 37.4736C14.9707 37.5263 15.5209 37.4634 16.0401 37.2889C16.1537 37.8302 16.3805 38.3414 16.7055 38.789C17.0305 39.2366 17.4465 39.6105 17.9261 39.8861C18.4056 40.1617 18.9381 40.3329 19.4884 40.3884C20.0388 40.4438 20.5947 40.3824 21.1196 40.208C21.2335 40.7493 21.4606 41.2604 21.7859 41.7078C22.1112 42.1552 22.5273 42.5289 23.0071 42.8042C23.4868 43.0795 24.0194 43.2504 24.5698 43.3055C25.1202 43.3607 25.676 43.2989 26.2008 43.1242C26.3146 43.6712 26.5444 44.1873 26.8748 44.6379C27.2051 45.0884 27.6283 45.4628 28.1157 45.7357C29.0251 46.2471 30.0994 46.3796 31.1058 46.1044C32.1121 45.8292 32.9696 45.1686 33.4923 44.2656L34.6055 42.3391L34.9987 42.4879C35.1246 42.5356 35.2587 42.558 35.3933 42.5539C35.5279 42.5498 35.6604 42.5192 35.7831 42.4639C35.9059 42.4086 36.0166 42.3297 36.1089 42.2316C36.2011 42.1335 36.2732 42.0182 36.3209 41.8923C36.3686 41.7664 36.391 41.6323 36.3869 41.4977C36.3828 41.3631 36.3522 41.2306 36.2969 41.1079C36.2416 40.9851 36.1626 40.8744 36.0646 40.7821C35.9665 40.6899 35.8512 40.6178 35.7253 40.5701L35.6421 40.5385L36.2784 39.434C36.7235 38.6645 36.8937 37.7665 36.7612 36.8875L40.3782 38.2609H40.3817C40.6296 38.3559 40.8549 38.5016 41.0434 38.6885C41.2318 38.8755 41.3792 39.0996 41.4762 39.3467C41.5732 39.5938 41.6176 39.8584 41.6066 40.1236C41.5956 40.3889 41.5295 40.6489 41.4124 40.8871C41.2868 41.1406 41.1026 41.3606 40.8751 41.5287C40.7665 41.6083 40.6747 41.7085 40.6048 41.8235C40.5349 41.9386 40.4884 42.0662 40.4679 42.1993C40.4474 42.3323 40.4533 42.4681 40.4852 42.5988C40.5172 42.7296 40.5746 42.8528 40.6542 42.9613C40.7337 43.0699 40.8339 43.1617 40.9489 43.2316C41.064 43.3015 41.1917 43.348 41.3247 43.3685C41.4578 43.389 41.5935 43.3831 41.7243 43.3512C41.855 43.3192 41.9782 43.2618 42.0868 43.1822C42.5802 42.8219 42.9796 42.348 43.251 41.8006C43.6123 41.0653 43.7382 40.2364 43.6114 39.427C44.4726 39.6072 45.3692 39.5015 46.1649 39.126C46.9606 38.7505 47.6122 38.1257 48.0206 37.3463C48.372 36.63 48.5007 35.8249 48.3903 35.0348C48.9047 35.2222 49.4524 35.3008 49.9987 35.2655C50.5451 35.2303 51.0781 35.082 51.5642 34.8301C52.0503 34.5782 52.4787 34.2281 52.8225 33.802C53.1662 33.3759 53.4178 32.883 53.5612 32.3547C53.7999 31.3855 53.6734 30.3624 53.2058 29.4806C52.7381 28.5988 51.9621 27.9201 51.0258 27.574L50.1516 27.243C50.7575 26.7258 51.1943 26.0388 51.4055 25.2707C51.5532 24.7186 51.5773 24.1406 51.476 23.5781C51.3747 23.0156 51.1506 22.4824 50.8196 22.0164C52.4122 19.4178 53.3239 19.3211 61.6594 14.6307C61.8896 14.4895 62.0548 14.2633 62.1191 14.0011C62.1833 13.7389 62.1416 13.4619 62.0028 13.2303ZM7.32312 10.8191L9.81042 11.7391L5.58464 22.8719L3.19519 21.9889L7.32312 10.8191ZM13.8856 35.1977C13.6669 35.074 13.4748 34.9083 13.3205 34.7101C13.1661 34.5118 13.0526 34.285 12.9863 34.0427C12.9201 33.8003 12.9025 33.5473 12.9346 33.2981C12.9666 33.0489 13.0477 32.8085 13.1731 32.5908L15.9563 27.7586C16.2082 27.321 16.6236 27.0014 17.1112 26.8701C17.5988 26.7388 18.1185 26.8065 18.5561 27.0584C18.9937 27.3103 19.3133 27.7257 19.4447 28.2133C19.576 28.7008 19.5082 29.2206 19.2563 29.6582C19.2229 29.7168 16.3887 34.6387 16.4766 34.4852V34.4887C16.2252 34.9238 15.8123 35.2422 15.3276 35.375C14.8429 35.5077 14.3254 35.444 13.8874 35.1977H13.8856ZM18.9669 38.1156C18.7488 37.9917 18.5574 37.8259 18.4037 37.6278C18.25 37.4296 18.1369 37.2031 18.071 36.9611C18.0051 36.7191 17.9877 36.4665 18.0198 36.2178C18.0519 35.969 18.1328 35.7291 18.2579 35.5117C18.2924 35.4531 21.2262 30.3555 21.0411 30.6789C21.2931 30.2431 21.7074 29.9249 22.1934 29.7938C22.6795 29.6627 23.1976 29.7295 23.6345 29.9795C24.0715 30.2295 24.3916 30.6424 24.5249 31.1278C24.6582 31.6132 24.5938 32.1317 24.3458 32.5697V32.5727L21.5626 37.4049L21.5555 37.4189C21.302 37.8513 20.8887 38.1667 20.4048 38.2971C19.9208 38.4274 19.405 38.3622 18.9686 38.1156H18.9669ZM24.0469 41.033C23.829 40.9101 23.6375 40.7455 23.4833 40.5484C23.3292 40.3514 23.2155 40.1258 23.1487 39.8847C23.0819 39.6436 23.0633 39.3917 23.0941 39.1434C23.1249 38.8952 23.2044 38.6554 23.328 38.4379L23.3321 38.4309C23.396 38.3201 26.1581 33.5242 26.1147 33.5986L26.1194 33.5899C26.3718 33.1525 26.7876 32.8333 27.2753 32.7025C27.763 32.5716 28.2827 32.6399 28.7201 32.8923C29.1575 33.1447 29.4767 33.5604 29.6075 34.0482C29.7383 34.5359 29.67 35.0556 29.4176 35.493L26.6368 40.3199V40.3234C26.3855 40.7585 25.9729 41.0769 25.4885 41.2097C25.004 41.3426 24.4867 41.2791 24.0487 41.033H24.0469ZM31.7157 43.2426C31.4597 43.6719 31.0452 43.9834 30.5616 44.1098C30.0779 44.2362 29.564 44.1674 29.1307 43.9182C28.6974 43.669 28.3794 43.2594 28.2454 42.7779C28.1114 42.2963 28.1722 41.7813 28.4145 41.3442L31.1977 36.5113C31.4496 36.0736 31.8651 35.7538 32.3528 35.6224C32.8404 35.491 33.3603 35.5587 33.7981 35.8106C34.2359 36.0625 34.5556 36.4779 34.6871 36.9656C34.8185 37.4533 34.7508 37.9732 34.4989 38.4109L31.7157 43.2426ZM57.5415 14.7303L51.3633 4.55548L53.628 3.17911L59.7217 13.4066L57.5415 14.7303Z" fill="black"/>
</svg>
