<svg width="32" height="26" viewBox="0 0 32 26" fill="none" xmlns="http://www.w3.org/2000/svg">
<g clip-path="url(#clip0)">
<path d="M24.3792 4.02663C24.2593 3.99739 24.1348 3.99222 24.0129 4.01143C23.8909 4.03064 23.774 4.07383 23.6689 4.13852C23.5638 4.20321 23.4726 4.2881 23.4005 4.38829C23.3284 4.48847 23.2769 4.60196 23.249 4.72218C23.221 4.8424 23.2172 4.96697 23.2378 5.08867C23.2583 5.21038 23.3028 5.3268 23.3686 5.4312C23.4344 5.5356 23.5203 5.62591 23.6213 5.6969C23.7222 5.76789 23.8363 5.81814 23.9568 5.84476C25.6475 6.23877 27.1552 7.19328 28.2345 8.55301C29.3137 9.91275 29.9012 11.5977 29.9012 13.3337C29.9012 15.0697 29.3137 16.7546 28.2345 18.1144C27.1552 19.4741 25.6475 20.4286 23.9568 20.8226C23.8363 20.8492 23.7222 20.8995 23.6213 20.9705C23.5203 21.0415 23.4344 21.1318 23.3686 21.2362C23.3028 21.3406 23.2583 21.457 23.2378 21.5787C23.2172 21.7004 23.221 21.825 23.249 21.9452C23.2769 22.0654 23.3284 22.1789 23.4005 22.2791C23.4726 22.3793 23.5638 22.4642 23.6689 22.5289C23.774 22.5936 23.8909 22.6368 24.0129 22.656C24.1348 22.6752 24.2593 22.67 24.3792 22.6408C26.4803 22.1512 28.3539 20.965 29.6952 19.2752C31.0365 17.5854 31.7665 15.4915 31.7665 13.3341C31.7665 11.1767 31.0365 9.08277 29.6952 7.39299C28.3539 5.70322 26.4803 4.51704 24.3792 4.02743V4.02663Z" fill="#E6E7E8"/>
<path d="M23.8715 8.65949C24.8511 8.9878 25.7029 9.61565 26.3064 10.4543C26.9098 11.293 27.2345 12.3001 27.2345 13.3334C27.2345 14.3666 26.9098 15.3737 26.3064 16.2124C25.7029 17.0511 24.8511 17.6789 23.8715 18.0072C23.7537 18.0449 23.6447 18.1056 23.5506 18.1858C23.4566 18.266 23.3794 18.3641 23.3236 18.4744C23.2677 18.5846 23.2343 18.7049 23.2253 18.8282C23.2163 18.9515 23.2319 19.0753 23.2712 19.1925C23.3104 19.3097 23.3726 19.4179 23.454 19.5109C23.5354 19.6039 23.6345 19.6798 23.7455 19.7342C23.8565 19.7886 23.9772 19.8204 24.1006 19.8277C24.224 19.8351 24.3476 19.8179 24.4643 19.7771C25.8149 19.3245 26.9892 18.4589 27.8212 17.3027C28.6532 16.1464 29.1008 14.758 29.1008 13.3335C29.1008 11.909 28.6532 10.5206 27.8212 9.36431C26.9892 8.20806 25.8149 7.34248 24.4643 6.88989C24.3475 6.84862 24.2237 6.83101 24.1 6.83807C23.9764 6.84512 23.8554 6.87672 23.7441 6.931C23.6328 6.98529 23.5334 7.06119 23.4517 7.15427C23.37 7.24735 23.3077 7.35576 23.2683 7.47318C23.229 7.59059 23.2133 7.71467 23.2224 7.83818C23.2315 7.96169 23.265 8.08216 23.3211 8.19257C23.3772 8.30298 23.4547 8.40113 23.5491 8.48129C23.6435 8.56146 23.7529 8.62203 23.8709 8.65949H23.8715Z" fill="#E6E7E8"/>
<path d="M23.6725 14.9435C23.5677 15.0081 23.4766 15.0928 23.4047 15.1927C23.3327 15.2927 23.2812 15.4059 23.2532 15.5258C23.2252 15.6457 23.2212 15.77 23.2414 15.8915C23.2617 16.0129 23.3058 16.1292 23.3711 16.2336C23.4365 16.338 23.5219 16.4283 23.6224 16.4996C23.7228 16.5708 23.8364 16.6214 23.9566 16.6485C24.0767 16.6756 24.201 16.6787 24.3223 16.6576C24.4436 16.6364 24.5596 16.5915 24.6635 16.5253C25.2054 16.1874 25.6523 15.7171 25.9622 15.1587C26.2721 14.6002 26.4347 13.9721 26.4347 13.3335C26.4347 12.6948 26.2721 12.0667 25.9622 11.5083C25.6523 10.9499 25.2054 10.4795 24.6635 10.1416C24.4538 10.0137 24.2022 9.97362 23.9632 10.03C23.7241 10.0864 23.517 10.2347 23.3865 10.4428C23.2561 10.6509 23.213 10.902 23.2665 11.1417C23.32 11.3813 23.4657 11.5903 23.6723 11.7232C23.9462 11.8933 24.1722 12.1304 24.3289 12.4121C24.4856 12.6939 24.5678 13.0109 24.5678 13.3333C24.5678 13.6557 24.4856 13.9728 24.3289 14.2546C24.1722 14.5363 23.9462 14.7734 23.6723 14.9435H23.6725Z" fill="#E6E7E8"/>
<path d="M20.2934 1.23865C19.8066 1.23928 19.34 1.43293 18.9959 1.77712C18.6518 2.1213 18.4582 2.58793 18.4576 3.07465V3.51811L8.71362 7.66478H4.23228C3.45458 7.66563 2.70896 7.97495 2.15904 8.52487C1.60912 9.07479 1.2998 9.82041 1.29895 10.5981V16.0685C1.2998 16.8462 1.60912 17.5918 2.15904 18.1418C2.70896 18.6917 3.45458 19.001 4.23228 19.0018H8.71388L18.4579 23.1482V23.592C18.4579 24.0789 18.6513 24.5459 18.9956 24.8902C19.34 25.2345 19.8069 25.428 20.2939 25.428C20.7808 25.428 21.2478 25.2345 21.5921 24.8902C21.9364 24.5459 22.1299 24.0789 22.1299 23.592V3.07465C22.1292 2.58781 21.9355 2.12111 21.5912 1.77691C21.2469 1.43272 20.7802 1.23914 20.2934 1.23865Z" fill="#E6E7E8"/>
<path d="M3.16532 6.86481C2.45808 6.86481 1.7798 7.14576 1.27971 7.64586C0.779609 8.14595 0.498657 8.82423 0.498657 9.53147V15.0019C0.498657 15.3521 0.567633 15.6988 0.701645 16.0224C0.835658 16.3459 1.03208 16.6399 1.27971 16.8875C1.52733 17.1351 1.8213 17.3315 2.14483 17.4656C2.46837 17.5996 2.81513 17.6685 3.16532 17.6685H7.70132V6.86481H3.16532Z" fill="#FAD37B"/>
<path d="M7.70134 6.86481H5.56534V17.6688H7.70134V6.86481Z" fill="#FF33AE"/>
<path d="M7.70132 6.86481V17.6685L17.6579 21.9053V2.62775L7.70132 6.86481Z" fill="#FAD37B"/>
<path d="M23.1008 21.3317C22.9368 21.3322 22.7784 21.2721 22.6559 21.1631C22.5334 21.0541 22.4554 20.9037 22.4367 20.7408C22.4181 20.5778 22.4602 20.4137 22.555 20.2799C22.6498 20.146 22.7905 20.0518 22.9504 20.0152C24.6998 19.6077 26.2599 18.6201 27.3767 17.2132C28.4935 15.8064 29.1014 14.063 29.1014 12.2667C29.1014 10.4704 28.4935 8.727 27.3767 7.32011C26.2599 5.91323 24.6998 4.92568 22.9504 4.51815C22.7781 4.47798 22.6289 4.37102 22.5355 4.22082C22.4421 4.07061 22.4122 3.88946 22.4524 3.71721C22.4926 3.54496 22.5995 3.39573 22.7497 3.30233C22.8999 3.20894 23.0811 3.17904 23.2533 3.21921C25.2961 3.69497 27.1178 4.84803 28.4219 6.49077C29.726 8.13351 30.4358 10.1692 30.4358 12.2667C30.4358 14.3641 29.726 16.3999 28.4219 18.0426C27.1178 19.6853 25.2961 20.8384 23.2533 21.3141C23.2033 21.3258 23.1521 21.3317 23.1008 21.3317Z" fill="#FF33AE"/>
<path d="M23.1013 18.4923C22.9431 18.4924 22.7899 18.4361 22.6693 18.3337C22.5487 18.2312 22.4685 18.0891 22.443 17.9329C22.4175 17.7767 22.4485 17.6165 22.5303 17.481C22.6121 17.3455 22.7395 17.2436 22.8896 17.1934C23.9224 16.8473 24.8202 16.1855 25.4564 15.3014C26.0926 14.4174 26.4348 13.3557 26.4348 12.2666C26.4348 11.1774 26.0926 10.1158 25.4564 9.23169C24.8202 8.34761 23.9224 7.6858 22.8896 7.33977C22.7254 7.28095 22.5908 7.16012 22.5146 7.0032C22.4385 6.84627 22.4268 6.66575 22.4823 6.50036C22.5377 6.33497 22.6557 6.19788 22.811 6.1185C22.9663 6.03913 23.1466 6.02378 23.3131 6.07577C24.6109 6.51051 25.7392 7.34211 26.5387 8.45303C27.3381 9.56396 27.7682 10.898 27.7682 12.2667C27.7682 13.6354 27.3381 14.9694 26.5387 16.0804C25.7392 17.1913 24.6109 18.0229 23.3131 18.4576C23.2448 18.4805 23.1733 18.4922 23.1013 18.4923Z" fill="#FF33AE"/>
<path d="M23.1019 15.3333C22.9574 15.3333 22.8168 15.2862 22.7013 15.1994C22.5858 15.1125 22.5017 14.9904 22.4616 14.8515C22.4215 14.7127 22.4277 14.5646 22.4791 14.4295C22.5305 14.2944 22.6244 14.1797 22.7467 14.1027C23.0588 13.9086 23.3163 13.6381 23.4949 13.3168C23.6734 12.9956 23.7671 12.6341 23.7671 12.2665C23.7671 11.899 23.6734 11.5375 23.4949 11.2162C23.3163 10.8949 23.0588 10.6245 22.7467 10.4304C22.6704 10.3849 22.6039 10.3247 22.5512 10.2532C22.4985 10.1817 22.4607 10.1004 22.4398 10.0141C22.419 9.92779 22.4156 9.83817 22.4299 9.75052C22.4441 9.66286 22.4758 9.57895 22.5229 9.50369C22.5701 9.42843 22.6318 9.36336 22.7044 9.31228C22.7771 9.2612 22.8592 9.22515 22.946 9.20625C23.0328 9.18735 23.1224 9.18598 23.2097 9.20221C23.297 9.21845 23.3802 9.25196 23.4544 9.30079C23.958 9.61473 24.3734 10.0517 24.6614 10.5706C24.9494 11.0895 25.1005 11.6732 25.1005 12.2667C25.1005 12.8601 24.9494 13.4438 24.6614 13.9627C24.3734 14.4816 23.958 14.9186 23.4544 15.2325C23.3487 15.2987 23.2265 15.3336 23.1019 15.3333Z" fill="#FF33AE"/>
<path d="M19.2267 0.438904C18.8105 0.438904 18.4113 0.604244 18.117 0.898551C17.8227 1.19286 17.6573 1.59202 17.6573 2.00824V22.525C17.6573 22.9412 17.8227 23.3404 18.117 23.6347C18.4113 23.929 18.8105 24.0944 19.2267 24.0944C19.6429 24.0944 20.0421 23.929 20.3364 23.6347C20.6307 23.3404 20.796 22.9412 20.796 22.525V2.00824C20.796 1.59202 20.6307 1.19286 20.3364 0.898551C20.0421 0.604244 19.6429 0.438904 19.2267 0.438904Z" fill="#091071"/>
<path d="M19.2267 0.438904C19.0916 0.439417 18.9571 0.457343 18.8267 0.492237C19.1615 0.58037 19.4579 0.776847 19.6694 1.05103C19.8809 1.32521 19.9957 1.66168 19.996 2.00797V22.525C19.9958 22.8714 19.881 23.2079 19.6695 23.4821C19.4579 23.7564 19.1616 23.9529 18.8267 24.041C19.0588 24.1033 19.3023 24.1112 19.538 24.0641C19.7737 24.0171 19.9954 23.9163 20.1859 23.7697C20.3764 23.623 20.5305 23.4345 20.6363 23.2186C20.7421 23.0028 20.7968 22.7654 20.796 22.525V2.00797C20.796 1.8019 20.7554 1.59784 20.6765 1.40745C20.5977 1.21707 20.4821 1.04408 20.3363 0.898378C20.1906 0.752674 20.0176 0.637102 19.8272 0.558265C19.6368 0.479428 19.4327 0.438869 19.2267 0.438904Z" fill="#1321E1"/>
<path d="M5.56534 12.1333C5.63607 12.1333 5.70389 12.1052 5.7539 12.0552C5.80391 12.0052 5.83201 11.9374 5.83201 11.8667V9.64454C5.83201 9.57381 5.80391 9.50598 5.7539 9.45597C5.70389 9.40596 5.63607 9.37787 5.56534 9.37787C5.49462 9.37787 5.42679 9.40596 5.37678 9.45597C5.32677 9.50598 5.29868 9.57381 5.29868 9.64454V11.8667C5.29868 11.9374 5.32677 12.0052 5.37678 12.0552C5.42679 12.1052 5.49462 12.1333 5.56534 12.1333Z" fill="#3A2C60"/>
<path d="M23.3126 2.95998C23.1926 2.93074 23.0681 2.92557 22.9462 2.94478C22.8243 2.96399 22.7074 3.00718 22.6023 3.07187C22.4972 3.13656 22.4059 3.22145 22.3338 3.32164C22.2618 3.42182 22.2103 3.53531 22.1823 3.65553C22.1544 3.77575 22.1506 3.90032 22.1711 4.02202C22.1917 4.14373 22.2361 4.26015 22.302 4.36455C22.3678 4.46895 22.4537 4.55926 22.5546 4.63025C22.6556 4.70124 22.7696 4.75149 22.8902 4.77811C24.5809 5.17212 26.0885 6.12663 27.1678 7.48636C28.2471 8.8461 28.8345 10.531 28.8345 12.267C28.8345 14.0031 28.2471 15.688 27.1678 17.0477C26.0885 18.4075 24.5809 19.362 22.8902 19.756C22.6668 19.8076 22.4703 19.9397 22.338 20.1269C22.2058 20.3142 22.1471 20.5436 22.1732 20.7713C22.1992 20.9991 22.3081 21.2093 22.4792 21.3619C22.6503 21.5145 22.8716 21.5987 23.1008 21.5986C23.1721 21.5987 23.2432 21.5904 23.3126 21.5741C25.4137 21.0845 27.2873 19.8983 28.6286 18.2085C29.9699 16.5188 30.6999 14.4249 30.6999 12.2674C30.6999 10.11 29.9699 8.01612 28.6286 6.32634C27.2873 4.63657 25.4137 3.45039 23.3126 2.96078V2.95998ZM23.1923 21.0546C23.1411 21.0666 23.0881 21.0683 23.0362 21.0597C22.9844 21.0511 22.9348 21.0324 22.8901 21.0046C22.8455 20.9768 22.8068 20.9405 22.7763 20.8978C22.7457 20.8551 22.7238 20.8068 22.7119 20.7556C22.7 20.7044 22.6983 20.6514 22.7069 20.5995C22.7154 20.5477 22.7342 20.498 22.7619 20.4534C22.7897 20.4088 22.826 20.3701 22.8687 20.3395C22.9114 20.309 22.9598 20.2871 23.011 20.2752C24.8189 19.8539 26.4311 18.8332 27.5853 17.3792C28.7394 15.9252 29.3676 14.1234 29.3676 12.267C29.3676 10.4107 28.7394 8.60888 27.5853 7.15488C26.4311 5.70087 24.8189 4.6802 23.011 4.25891C22.9148 4.23716 22.8301 4.18066 22.773 4.10027C22.716 4.01988 22.6906 3.92125 22.7018 3.82331C22.713 3.72536 22.76 3.63501 22.8337 3.56958C22.9075 3.50415 23.0028 3.46825 23.1014 3.46878C23.1318 3.46884 23.1621 3.47233 23.1918 3.47918C25.1759 3.94129 26.9452 5.06126 28.2119 6.65684C29.4785 8.25241 30.168 10.2297 30.168 12.2669C30.168 14.3041 29.4785 16.2814 28.2119 17.877C26.9452 19.4726 25.1759 20.5925 23.1918 21.0546H23.1923Z" fill="#3A2C60"/>
<path d="M22.8051 7.59281C23.7847 7.92112 24.6365 8.54898 25.24 9.38766C25.8434 10.2263 26.1681 11.2335 26.1681 12.2667C26.1681 13.2999 25.8434 14.307 25.24 15.1457C24.6365 15.9844 23.7847 16.6122 22.8051 16.9405C22.687 16.978 22.5776 17.0385 22.4831 17.1186C22.3887 17.1987 22.3112 17.2968 22.255 17.4072C22.1989 17.5176 22.1653 17.6381 22.1561 17.7616C22.147 17.8851 22.1626 18.0092 22.2019 18.1266C22.2412 18.244 22.3035 18.3525 22.3852 18.4456C22.4668 18.5387 22.5662 18.6147 22.6774 18.669C22.7887 18.7233 22.9097 18.755 23.0334 18.7621C23.157 18.7692 23.2808 18.7516 23.3976 18.7104C24.7483 18.2578 25.9226 17.3922 26.7545 16.236C27.5865 15.0797 28.0342 13.6913 28.0342 12.2668C28.0342 10.8423 27.5865 9.45388 26.7545 8.29763C25.9226 7.14138 24.7483 6.2758 23.3976 5.82322C23.2807 5.78159 23.1568 5.76368 23.0329 5.77053C22.9091 5.77737 22.7878 5.80884 22.6763 5.86309C22.5647 5.91733 22.4651 5.99327 22.3832 6.08647C22.3014 6.17966 22.2389 6.28824 22.1995 6.40585C22.1601 6.52347 22.1445 6.64776 22.1536 6.77146C22.1628 6.89517 22.1966 7.0158 22.2529 7.12632C22.3092 7.23683 22.387 7.33501 22.4817 7.4151C22.5765 7.4952 22.6862 7.55562 22.8045 7.59281H22.8051ZM22.7221 6.57948C22.7387 6.52948 22.765 6.48326 22.7995 6.44352C22.8341 6.40378 22.8762 6.37132 22.9235 6.34801C22.9782 6.32037 23.0387 6.30594 23.1 6.30588C23.1437 6.30602 23.1871 6.31323 23.2285 6.32721C24.4733 6.74425 25.5556 7.54192 26.3224 8.6075C27.0892 9.67308 27.5017 10.9527 27.5017 12.2655C27.5017 13.5783 27.0892 14.8579 26.3224 15.9235C25.5556 16.989 24.4733 17.7867 23.2285 18.2037C23.1278 18.2362 23.0184 18.2279 22.9236 18.1807C22.8289 18.1334 22.7565 18.051 22.7219 17.9509C22.7051 17.9011 22.6984 17.8485 22.702 17.7961C22.7056 17.7437 22.7195 17.6924 22.7429 17.6454C22.7663 17.5983 22.7987 17.5564 22.8384 17.5219C22.878 17.4873 22.924 17.461 22.9739 17.4443C24.0597 17.0805 25.0037 16.3848 25.6726 15.4553C26.3414 14.5258 26.7013 13.4097 26.7013 12.2645C26.7013 11.1194 26.3414 10.0033 25.6726 9.07381C25.0037 8.14434 24.0597 7.44857 22.9739 7.08481C22.924 7.06811 22.878 7.04175 22.8384 7.00724C22.7987 6.97273 22.7663 6.93075 22.7429 6.8837C22.7195 6.83664 22.7056 6.78544 22.702 6.73301C22.6984 6.68059 22.7051 6.62796 22.7219 6.57815L22.7221 6.57948Z" fill="#3A2C60"/>
<path d="M22.6061 13.8768C22.5004 13.9409 22.4084 14.0254 22.3356 14.1254C22.2628 14.2254 22.2106 14.3389 22.182 14.4593C22.1534 14.5796 22.1491 14.7044 22.1692 14.8265C22.1893 14.9485 22.2334 15.0654 22.2991 15.1702C22.3647 15.2751 22.4506 15.3658 22.5516 15.4372C22.6526 15.5085 22.7668 15.5591 22.8876 15.5859C23.0083 15.6128 23.1332 15.6153 23.255 15.5935C23.3767 15.5716 23.4929 15.5258 23.5968 15.4586C24.1387 15.1207 24.5857 14.6504 24.8955 14.092C25.2054 13.5335 25.368 12.9054 25.368 12.2668C25.368 11.6281 25.2054 11 24.8955 10.4416C24.5857 9.88317 24.1387 9.41283 23.5968 9.07491C23.4929 9.00731 23.3767 8.96108 23.2547 8.9389C23.1328 8.91672 23.0077 8.91904 22.8867 8.94573C22.7657 8.97242 22.6512 9.02294 22.5499 9.09434C22.4486 9.16575 22.3626 9.25661 22.2968 9.36162C22.231 9.46663 22.1868 9.5837 22.1667 9.70598C22.1466 9.82827 22.1511 9.95333 22.1799 10.0739C22.2086 10.1944 22.2611 10.308 22.3343 10.408C22.4074 10.5081 22.4997 10.5925 22.6059 10.6565C22.8797 10.8266 23.1057 11.0637 23.2623 11.3455C23.419 11.6272 23.5012 11.9443 23.5012 12.2666C23.5012 12.589 23.419 12.9061 23.2623 13.1878C23.1057 13.4695 22.8797 13.7067 22.6059 13.8768H22.6061ZM24.0347 12.2666C24.0352 11.8537 23.9301 11.4474 23.7294 11.0865C23.5287 10.7256 23.2391 10.422 22.888 10.2045C22.821 10.1625 22.7679 10.1015 22.7355 10.0293C22.7031 9.95713 22.6929 9.87696 22.7061 9.79895C22.7193 9.72093 22.7553 9.64858 22.8096 9.59104C22.8639 9.53351 22.9341 9.49337 23.0112 9.47571C23.0408 9.46905 23.071 9.46565 23.1013 9.46558C23.1762 9.46547 23.2496 9.48675 23.3128 9.52691C23.7782 9.81682 24.1621 10.2205 24.4282 10.6999C24.6944 11.1792 24.834 11.7185 24.834 12.2668C24.834 12.8151 24.6944 13.3543 24.4282 13.8337C24.1621 14.3131 23.7782 14.7167 23.3128 15.0066C23.2224 15.0606 23.1145 15.0776 23.0119 15.054C22.9092 15.0304 22.8197 14.968 22.7619 14.88C22.7056 14.7901 22.6873 14.6815 22.7111 14.5781C22.7348 14.4748 22.7987 14.3851 22.8885 14.3288C23.2395 14.1112 23.529 13.8076 23.7296 13.4467C23.9302 13.0858 24.0352 12.6796 24.0347 12.2666Z" fill="#3A2C60"/>
<path d="M19.2267 0.172241C18.7399 0.172735 18.2733 0.366293 17.9291 0.710445C17.5849 1.0546 17.3912 1.52124 17.3907 2.00797V2.45171L7.64719 6.59784H3.16533C2.38764 6.59876 1.64207 6.9081 1.09216 7.45801C0.542253 8.00792 0.232912 8.75349 0.231995 9.53117V15.0018C0.232912 15.7795 0.542253 16.5251 1.09216 17.075C1.64207 17.6249 2.38764 17.9343 3.16533 17.9352H7.64719L17.3912 22.0818V22.5253C17.3883 22.7683 17.4336 23.0094 17.5245 23.2347C17.6155 23.46 17.7502 23.665 17.921 23.8378C18.0918 24.0107 18.2952 24.1479 18.5193 24.2416C18.7435 24.3352 18.9841 24.3834 19.2271 24.3834C19.47 24.3834 19.7106 24.3352 19.9348 24.2416C20.159 24.1479 20.3623 24.0107 20.5331 23.8378C20.7039 23.665 20.8386 23.46 20.9296 23.2347C21.0205 23.0094 21.0659 22.7683 21.0629 22.5253V2.00797C21.0624 1.52119 20.8687 1.05451 20.5244 0.710351C20.1802 0.366191 19.7134 0.172665 19.2267 0.172241ZM0.765328 15.0018V9.53117C0.766034 8.89487 1.01912 8.28483 1.46905 7.8349C1.91899 7.38496 2.52902 7.13188 3.16533 7.13117H5.29866V8.57784C5.29866 8.64857 5.32676 8.71639 5.37677 8.7664C5.42678 8.81641 5.4946 8.84451 5.56533 8.84451C5.63605 8.84451 5.70388 8.81641 5.75389 8.7664C5.8039 8.71639 5.83199 8.64857 5.83199 8.57784V7.13117H7.43466V17.4018H5.83199V12.8445C5.83199 12.7738 5.8039 12.706 5.75389 12.6559C5.70388 12.6059 5.63605 12.5778 5.56533 12.5778C5.4946 12.5778 5.42678 12.6059 5.37677 12.6559C5.32676 12.706 5.29866 12.7738 5.29866 12.8445V17.4018H3.16533C2.52902 17.4011 1.91899 17.1481 1.46905 16.6981C1.01912 16.2482 0.766034 15.6381 0.765328 15.0018ZM7.96799 17.4933V7.03997L17.3912 3.03117V21.5021L7.96799 17.4933ZM20.5296 22.5253C20.5321 22.6979 20.5002 22.8693 20.4358 23.0295C20.3715 23.1897 20.2759 23.3355 20.1547 23.4585C20.0336 23.5814 19.8891 23.679 19.7299 23.7457C19.5706 23.8123 19.3997 23.8466 19.2271 23.8466C19.0544 23.8466 18.8835 23.8123 18.7242 23.7457C18.565 23.679 18.4206 23.5814 18.2994 23.4585C18.1782 23.3355 18.0826 23.1897 18.0183 23.0295C17.9539 22.8693 17.9221 22.6979 17.9245 22.5253V2.00797C17.9294 1.66575 18.0688 1.3392 18.3125 1.09892C18.5563 0.858644 18.8848 0.723946 19.2271 0.723946C19.5693 0.723946 19.8978 0.858644 20.1416 1.09892C20.3853 1.3392 20.5247 1.66575 20.5296 2.00797V22.5253Z" fill="#3A2C60"/>
</g>
<defs>
<clipPath id="clip0">
<rect width="32" height="25.6" fill="white"/>
</clipPath>
</defs>
</svg>
