<svg width="91" height="84" viewBox="0 0 91 84" fill="none" xmlns="http://www.w3.org/2000/svg">
<path fill-rule="evenodd" clip-rule="evenodd" d="M37.6968 41.9744V83.0306H0.0477295V38.5672C0.0477295 26.5286 2.5747 17.159 7.62865 10.4582C12.6826 3.75747 19.9796 0.407104 29.5196 0.407104C31.7911 0.407104 34.5168 0.691034 37.6968 1.25889L35.6525 17.1022C29.406 16.6479 24.8632 18.1811 22.0239 21.7018C19.1846 25.2225 17.7649 30.1629 17.7649 36.5229C17.7649 37.6587 17.8785 39.4758 18.1057 41.9744H37.6968ZM90.1669 41.9744V83.0307H52.5179V38.5673C52.5179 26.5287 55.0448 17.159 60.0988 10.4583C65.1527 3.75752 72.4497 0.407155 81.9898 0.407155C84.2612 0.407155 86.9869 0.691085 90.1669 1.25894L88.1226 17.1022C81.8762 16.6479 77.3333 18.1811 74.494 21.7019C71.6547 25.2226 70.2351 30.163 70.2351 36.523C70.2351 37.6587 70.3486 39.4759 70.5758 41.9744H90.1669Z" fill="#FFBE2C"/>
</svg>
