<svg width="2495" height="362" viewBox="0 0 2495 362" fill="none" xmlns="http://www.w3.org/2000/svg">
<g opacity="0.2">
<path fill-rule="evenodd" clip-rule="evenodd" d="M169.517 18.941C169.517 18.941 170.565 18.7494 172.126 18.4732C176.068 17.7568 179.698 15.8539 182.53 13.019C185.362 10.1841 187.261 6.55241 187.973 2.60926L188.446 1.72174e-05L188.925 2.60926C189.639 6.55286 191.539 10.1847 194.372 13.0195C197.204 15.8544 200.835 17.7571 204.778 18.4732C206.333 18.7494 207.387 18.941 207.387 18.941C207.387 18.941 206.333 19.1269 204.778 19.4143C200.836 20.1257 197.205 22.0246 194.371 24.8568C191.538 27.689 189.638 31.3192 188.925 35.2614L188.446 37.8706L187.973 35.2614C187.262 31.3194 185.363 27.6888 182.531 24.8564C179.698 22.0241 176.068 20.1252 172.126 19.4143C170.565 19.1269 169.517 18.941 169.517 18.941Z" fill="#FFCE00"/>
<path fill-rule="evenodd" clip-rule="evenodd" d="M298.456 41.4773C298.456 41.4773 299.498 41.2858 301.071 41.0097C305.012 40.2927 308.641 38.3902 311.472 35.5563C314.303 32.7224 316.202 29.0921 316.915 25.1505L317.389 22.542L317.867 25.1505C318.58 29.0924 320.478 32.7231 323.31 35.5571C326.141 38.3911 329.77 40.2935 333.712 41.0097C335.273 41.2858 336.327 41.4773 336.327 41.4773L333.712 41.9505C329.77 42.6649 326.141 44.5659 323.309 47.3991C320.478 50.2323 318.579 53.8625 317.867 57.8041L317.389 60.4126L316.915 57.8041C316.203 53.8629 314.304 50.233 311.472 47.4C308.641 44.5669 305.012 42.6657 301.071 41.9505C299.498 41.6688 298.456 41.4773 298.456 41.4773Z" fill="#FF00AE"/>
<path fill-rule="evenodd" clip-rule="evenodd" d="M0 191.151C0 191.151 1.01762 190.965 2.54126 190.683C6.39065 189.972 9.93594 188.072 12.7023 185.239C15.4686 182.406 17.324 178.774 18.0197 174.83L18.4817 172.221L18.9382 174.83C19.6362 178.773 21.4922 182.403 24.2582 185.236C27.0242 188.069 30.5682 189.969 34.4167 190.683C35.9403 190.965 36.9689 191.151 36.9689 191.151L34.4167 191.624C30.57 192.344 27.0285 194.247 24.2635 197.08C21.4985 199.913 19.641 203.541 18.9382 207.482L18.4817 210.092L18.0197 207.482C17.3235 203.538 15.4682 199.906 12.702 197.072C9.93582 194.238 6.39078 192.337 2.54126 191.624C1.01762 191.342 0 191.151 0 191.151V191.151Z" fill="white"/>
<path fill-rule="evenodd" clip-rule="evenodd" d="M161.401 239.396C161.401 238.415 161.666 237.456 162.162 236.64C162.657 235.825 163.362 235.189 164.186 234.814C165.01 234.439 165.917 234.341 166.791 234.533C167.666 234.725 168.469 235.197 169.1 235.892C169.73 236.586 170.159 237.47 170.332 238.432C170.506 239.395 170.416 240.392 170.073 241.298C169.731 242.204 169.153 242.978 168.411 243.523C167.668 244.067 166.796 244.357 165.904 244.355C164.71 244.354 163.564 243.831 162.72 242.901C161.876 241.971 161.401 240.71 161.401 239.396V239.396Z" fill="white"/>
<path fill-rule="evenodd" clip-rule="evenodd" d="M352.558 167.262C352.558 166.281 352.822 165.322 353.317 164.507C353.813 163.691 354.517 163.055 355.341 162.68C356.165 162.305 357.071 162.207 357.946 162.398C358.82 162.589 359.623 163.062 360.254 163.755C360.884 164.449 361.314 165.332 361.488 166.294C361.662 167.256 361.572 168.253 361.231 169.16C360.89 170.066 360.312 170.84 359.571 171.385C358.829 171.93 357.958 172.221 357.066 172.221C355.871 172.22 354.725 171.697 353.88 170.767C353.034 169.837 352.559 168.577 352.558 167.262V167.262Z" fill="white"/>
<path fill-rule="evenodd" clip-rule="evenodd" d="M685.277 18.941C685.277 18.941 686.326 18.7494 687.887 18.4732C691.829 17.7568 695.459 15.8539 698.291 13.019C701.122 10.1841 703.021 6.55241 703.734 2.60926L704.207 1.72174e-05L704.686 2.60926C705.399 6.55286 707.299 10.1847 710.132 13.0195C712.965 15.8544 716.596 17.7571 720.539 18.4732C722.094 18.7494 723.148 18.941 723.148 18.941C723.148 18.941 722.094 19.1269 720.539 19.4143C716.596 20.1257 712.965 22.0246 710.132 24.8568C707.299 27.689 705.399 31.3192 704.686 35.2614L704.207 37.8706L703.734 35.2614C703.023 31.3194 701.124 27.6888 698.291 24.8564C695.459 22.0241 691.829 20.1252 687.887 19.4143C686.326 19.1269 685.277 18.941 685.277 18.941Z" fill="#FFCE00"/>
<path fill-rule="evenodd" clip-rule="evenodd" d="M814.217 41.4773C814.217 41.4773 815.259 41.2858 816.831 41.0097C820.773 40.2927 824.402 38.3902 827.233 35.5563C830.064 32.7224 831.963 29.0921 832.676 25.1505L833.149 22.542L833.628 25.1505C834.34 29.0924 836.239 32.7231 839.07 35.5571C841.902 38.3911 845.531 40.2935 849.473 41.0097C851.034 41.2858 852.087 41.4773 852.087 41.4773L849.473 41.9505C845.531 42.6649 841.902 44.5659 839.07 47.3991C836.239 50.2323 834.34 53.8625 833.628 57.8041L833.149 60.4126L832.676 57.8041C831.964 53.8629 830.065 50.233 827.233 47.4C824.402 44.5669 820.773 42.6657 816.831 41.9505C815.259 41.6688 814.217 41.4773 814.217 41.4773Z" fill="#FF00AE"/>
<path fill-rule="evenodd" clip-rule="evenodd" d="M515.761 191.151C515.761 191.151 516.778 190.965 518.302 190.683C522.151 189.972 525.697 188.072 528.463 185.239C531.229 182.406 533.085 178.774 533.78 174.83L534.242 172.221L534.699 174.83C535.397 178.773 537.253 182.403 540.019 185.236C542.785 188.069 546.329 189.969 550.177 190.683C551.701 190.965 552.73 191.151 552.73 191.151L550.177 191.624C546.331 192.344 542.789 194.247 540.024 197.08C537.259 199.913 535.402 203.541 534.699 207.482L534.242 210.092L533.78 207.482C533.084 203.538 531.229 199.906 528.463 197.072C525.697 194.238 522.152 192.337 518.302 191.624C516.778 191.342 515.761 191.151 515.761 191.151V191.151Z" fill="white"/>
<path fill-rule="evenodd" clip-rule="evenodd" d="M677.162 239.396C677.162 238.415 677.427 237.456 677.922 236.64C678.418 235.825 679.122 235.189 679.946 234.814C680.771 234.439 681.677 234.341 682.552 234.533C683.427 234.725 684.23 235.197 684.86 235.892C685.491 236.586 685.92 237.47 686.093 238.432C686.266 239.395 686.176 240.392 685.834 241.298C685.492 242.204 684.913 242.978 684.171 243.523C683.429 244.067 682.557 244.357 681.665 244.355C680.47 244.354 679.325 243.831 678.481 242.901C677.636 241.971 677.162 240.71 677.162 239.396V239.396Z" fill="white"/>
<path fill-rule="evenodd" clip-rule="evenodd" d="M868.318 167.262C868.318 166.281 868.583 165.322 869.078 164.507C869.574 163.691 870.278 163.055 871.102 162.68C871.925 162.305 872.832 162.207 873.706 162.398C874.581 162.589 875.384 163.062 876.015 163.755C876.645 164.449 877.075 165.332 877.249 166.294C877.422 167.256 877.333 168.253 876.992 169.16C876.651 170.066 876.073 170.84 875.331 171.385C874.59 171.93 873.718 172.221 872.827 172.221C871.631 172.22 870.486 171.697 869.64 170.767C868.795 169.837 868.32 168.577 868.318 167.262V167.262Z" fill="white"/>
<path fill-rule="evenodd" clip-rule="evenodd" d="M1201.04 18.941C1201.04 18.941 1202.09 18.7494 1203.65 18.4732C1207.59 17.7568 1211.22 15.8539 1214.05 13.019C1216.88 10.1841 1218.78 6.55241 1219.5 2.60926L1219.97 1.72174e-05L1220.45 2.60926C1221.16 6.55286 1223.06 10.1847 1225.89 13.0195C1228.73 15.8544 1232.36 17.7571 1236.3 18.4732C1237.86 18.7494 1238.91 18.941 1238.91 18.941C1238.91 18.941 1237.86 19.1269 1236.3 19.4143C1232.36 20.1257 1228.73 22.0246 1225.89 24.8568C1223.06 27.689 1221.16 31.3192 1220.45 35.2614L1219.97 37.8706L1219.5 35.2614C1218.78 31.3194 1216.89 27.6888 1214.05 24.8564C1211.22 22.0241 1207.59 20.1252 1203.65 19.4143C1202.09 19.1269 1201.04 18.941 1201.04 18.941Z" fill="#FFCE00"/>
<path fill-rule="evenodd" clip-rule="evenodd" d="M1329.98 41.4773C1329.98 41.4773 1331.02 41.2858 1332.59 41.0097C1336.53 40.2927 1340.16 38.3902 1342.99 35.5563C1345.83 32.7224 1347.72 29.0921 1348.44 25.1505L1348.91 22.542L1349.39 25.1505C1350.1 29.0924 1352 32.7231 1354.83 35.5571C1357.66 38.3911 1361.29 40.2935 1365.23 41.0097C1366.8 41.2858 1367.85 41.4773 1367.85 41.4773L1365.23 41.9505C1361.29 42.6649 1357.66 44.5659 1354.83 47.3991C1352 50.2323 1350.1 53.8625 1349.39 57.8041L1348.91 60.4126L1348.44 57.8041C1347.73 53.8629 1345.83 50.233 1342.99 47.4C1340.16 44.5669 1336.53 42.6657 1332.59 41.9505C1331.02 41.6688 1329.98 41.4773 1329.98 41.4773Z" fill="#FF00AE"/>
<path fill-rule="evenodd" clip-rule="evenodd" d="M1031.52 191.151C1031.52 191.151 1032.54 190.965 1034.06 190.683C1037.91 189.972 1041.46 188.072 1044.22 185.239C1046.99 182.406 1048.85 178.774 1049.54 174.83L1050 172.221L1050.46 174.83C1051.16 178.773 1053.01 182.403 1055.78 185.236C1058.55 188.069 1062.09 189.969 1065.94 190.683C1067.46 190.965 1068.49 191.151 1068.49 191.151L1065.94 191.624C1062.09 192.344 1058.55 194.247 1055.79 197.08C1053.02 199.913 1051.16 203.541 1050.46 207.482L1050 210.092L1049.54 207.482C1048.85 203.538 1046.99 199.906 1044.22 197.072C1041.46 194.238 1037.91 192.337 1034.06 191.624C1032.54 191.342 1031.52 191.151 1031.52 191.151V191.151Z" fill="white"/>
<path fill-rule="evenodd" clip-rule="evenodd" d="M1192.92 239.396C1192.92 238.415 1193.19 237.456 1193.68 236.64C1194.18 235.825 1194.88 235.189 1195.71 234.814C1196.53 234.439 1197.44 234.341 1198.31 234.533C1199.19 234.725 1199.99 235.197 1200.62 235.892C1201.25 236.586 1201.68 237.47 1201.85 238.432C1202.03 239.395 1201.94 240.392 1201.6 241.298C1201.25 242.204 1200.68 242.978 1199.93 243.523C1199.19 244.067 1198.32 244.357 1197.43 244.355C1196.23 244.354 1195.09 243.831 1194.24 242.901C1193.4 241.971 1192.92 240.71 1192.92 239.396V239.396Z" fill="white"/>
<path fill-rule="evenodd" clip-rule="evenodd" d="M1384.08 167.262C1384.08 166.281 1384.34 165.322 1384.84 164.506C1385.34 163.691 1386.04 163.055 1386.86 162.68C1387.69 162.305 1388.59 162.206 1389.47 162.398C1390.34 162.589 1391.15 163.061 1391.78 163.755C1392.41 164.449 1392.84 165.332 1393.01 166.294C1393.18 167.256 1393.09 168.253 1392.75 169.16C1392.41 170.066 1391.83 170.84 1391.09 171.385C1390.35 171.93 1389.48 172.221 1388.59 172.221C1387.39 172.219 1386.25 171.696 1385.4 170.767C1384.56 169.837 1384.08 168.576 1384.08 167.262V167.262Z" fill="white"/>
<path fill-rule="evenodd" clip-rule="evenodd" d="M238.946 136.159C238.946 136.159 239.994 135.968 241.556 135.692C245.498 134.975 249.128 133.072 251.959 130.237C254.791 127.403 256.69 123.771 257.403 119.828L257.876 117.219L258.355 119.828C259.068 123.771 260.968 127.403 263.801 130.238C266.634 133.073 270.265 134.976 274.208 135.692C275.763 135.968 276.817 136.159 276.817 136.159C276.817 136.159 275.763 136.345 274.208 136.633C270.265 137.344 266.634 139.243 263.801 142.075C260.968 144.907 259.068 148.538 258.355 152.48L257.876 155.089L257.403 152.48C256.692 148.538 254.793 144.907 251.96 142.075C249.128 139.243 245.498 137.344 241.556 136.633C239.994 136.345 238.946 136.159 238.946 136.159Z" fill="#FFCE00"/>
<path fill-rule="evenodd" clip-rule="evenodd" d="M367.886 158.696C367.886 158.696 368.928 158.504 370.5 158.228C374.442 157.511 378.07 155.609 380.902 152.775C383.733 149.941 385.632 146.311 386.345 142.369L386.818 139.761L387.297 142.369C388.009 146.311 389.908 149.942 392.739 152.776C395.571 155.61 399.2 157.512 403.142 158.228C404.703 158.504 405.756 158.696 405.756 158.696L403.142 159.169C399.2 159.883 395.571 161.784 392.739 164.618C389.908 167.451 388.009 171.081 387.297 175.023L386.818 177.631L386.345 175.023C385.632 171.081 383.734 167.452 380.902 164.618C378.071 161.785 374.442 159.884 370.5 159.169C368.928 158.887 367.886 158.696 367.886 158.696Z" fill="#FF00AE"/>
<path fill-rule="evenodd" clip-rule="evenodd" d="M69.4297 308.369C69.4297 308.369 70.4473 308.183 71.971 307.901C75.8203 307.19 79.3656 305.29 82.132 302.457C84.8983 299.624 86.7536 295.992 87.4494 292.049L87.9114 289.439L88.3679 292.049C89.0659 295.991 90.9219 299.622 93.6879 302.455C96.4538 305.287 99.9979 307.188 103.846 307.901C105.37 308.183 106.399 308.369 106.399 308.369L103.846 308.842C99.9997 309.562 96.4582 311.466 93.6932 314.298C90.9282 317.131 89.0707 320.76 88.3679 324.701L87.9114 327.31L87.4494 324.701C86.7532 320.757 84.8979 317.125 82.1317 314.291C79.3655 311.457 75.8205 309.556 71.971 308.842C70.4473 308.561 69.4297 308.369 69.4297 308.369V308.369Z" fill="white"/>
<path fill-rule="evenodd" clip-rule="evenodd" d="M230.831 356.615C230.831 355.634 231.096 354.675 231.591 353.859C232.087 353.043 232.791 352.408 233.615 352.032C234.44 351.657 235.346 351.559 236.221 351.751C237.096 351.943 237.899 352.416 238.529 353.11C239.16 353.804 239.589 354.688 239.762 355.651C239.935 356.613 239.845 357.611 239.503 358.517C239.161 359.423 238.582 360.197 237.84 360.741C237.098 361.285 236.226 361.575 235.334 361.574C234.139 361.572 232.994 361.049 232.15 360.119C231.305 359.189 230.831 357.929 230.831 356.615V356.615Z" fill="white"/>
<path fill-rule="evenodd" clip-rule="evenodd" d="M421.987 284.48C421.987 283.499 422.252 282.541 422.747 281.725C423.242 280.909 423.947 280.274 424.77 279.898C425.594 279.523 426.501 279.425 427.375 279.616C428.25 279.808 429.053 280.28 429.684 280.973C430.314 281.667 430.744 282.551 430.917 283.513C431.091 284.475 431.002 285.472 430.661 286.378C430.32 287.284 429.742 288.059 429 288.604C428.259 289.149 427.387 289.439 426.496 289.439C425.3 289.438 424.155 288.915 423.309 287.985C422.464 287.056 421.989 285.795 421.987 284.48V284.48Z" fill="white"/>
<path fill-rule="evenodd" clip-rule="evenodd" d="M754.708 136.159C754.708 136.159 755.756 135.968 757.317 135.692C761.26 134.975 764.889 133.072 767.721 130.237C770.553 127.403 772.452 123.771 773.164 119.828L773.638 117.219L774.117 119.828C774.83 123.771 776.73 127.403 779.563 130.238C782.396 133.073 786.026 134.976 789.969 135.692C791.525 135.968 792.579 136.159 792.579 136.159C792.579 136.159 791.525 136.345 789.969 136.633C786.027 137.344 782.396 139.243 779.563 142.075C776.73 144.907 774.829 148.538 774.117 152.48L773.638 155.089L773.164 152.48C772.453 148.538 770.554 144.907 767.722 142.075C764.89 139.243 761.259 137.344 757.317 136.633C755.756 136.345 754.708 136.159 754.708 136.159Z" fill="#FFCE00"/>
<path fill-rule="evenodd" clip-rule="evenodd" d="M883.647 158.696C883.647 158.696 884.69 158.504 886.262 158.228C890.203 157.511 893.832 155.609 896.663 152.775C899.495 149.941 901.394 146.311 902.107 142.369L902.58 139.761L903.059 142.369C903.771 146.311 905.67 149.942 908.501 152.776C911.333 155.61 914.962 157.512 918.904 158.228C920.464 158.504 921.518 158.696 921.518 158.696L918.904 159.169C914.962 159.883 911.332 161.784 908.501 164.618C905.669 167.451 903.771 171.081 903.059 175.023L902.58 177.631L902.107 175.023C901.394 171.081 899.495 167.452 896.664 164.618C893.832 161.785 890.203 159.884 886.262 159.169C884.69 158.887 883.647 158.696 883.647 158.696Z" fill="#FF00AE"/>
<path fill-rule="evenodd" clip-rule="evenodd" d="M585.191 308.369C585.191 308.369 586.209 308.183 587.733 307.901C591.582 307.19 595.127 305.29 597.894 302.457C600.66 299.624 602.515 295.992 603.211 292.049L603.673 289.439L604.13 292.049C604.828 295.991 606.684 299.622 609.45 302.455C612.216 305.287 615.76 307.188 619.608 307.901C621.132 308.183 622.16 308.369 622.16 308.369L619.608 308.842C615.761 309.562 612.22 311.466 609.455 314.298C606.69 317.131 604.832 320.76 604.13 324.701L603.673 327.31L603.211 324.701C602.515 320.757 600.66 317.125 597.893 314.291C595.127 311.457 591.582 309.556 587.733 308.842C586.209 308.561 585.191 308.369 585.191 308.369V308.369Z" fill="white"/>
<path fill-rule="evenodd" clip-rule="evenodd" d="M746.593 356.615C746.593 355.634 746.857 354.675 747.353 353.859C747.849 353.043 748.553 352.408 749.377 352.032C750.201 351.657 751.108 351.559 751.983 351.751C752.857 351.943 753.661 352.416 754.291 353.11C754.921 353.804 755.35 354.688 755.524 355.651C755.697 356.613 755.607 357.611 755.265 358.517C754.923 359.423 754.344 360.197 753.602 360.741C752.86 361.285 751.988 361.575 751.096 361.574C749.901 361.572 748.756 361.049 747.911 360.119C747.067 359.189 746.593 357.929 746.593 356.615V356.615Z" fill="white"/>
<path fill-rule="evenodd" clip-rule="evenodd" d="M937.749 284.48C937.749 283.499 938.013 282.541 938.509 281.725C939.004 280.909 939.708 280.274 940.532 279.898C941.356 279.523 942.262 279.425 943.137 279.616C944.012 279.808 944.815 280.28 945.445 280.973C946.076 281.667 946.505 282.551 946.679 283.513C946.853 284.475 946.764 285.472 946.423 286.378C946.081 287.284 945.504 288.059 944.762 288.604C944.021 289.149 943.149 289.439 942.257 289.439C941.062 289.438 939.916 288.915 939.071 287.985C938.226 287.056 937.75 285.795 937.749 284.48V284.48Z" fill="white"/>
<path fill-rule="evenodd" clip-rule="evenodd" d="M1270.47 136.159C1270.47 136.159 1271.52 135.968 1273.08 135.692C1277.02 134.975 1280.65 133.072 1283.48 130.237C1286.31 127.403 1288.21 123.771 1288.93 119.828L1289.4 117.219L1289.88 119.828C1290.59 123.771 1292.49 127.403 1295.32 130.238C1298.16 133.073 1301.79 134.976 1305.73 135.692C1307.29 135.968 1308.34 136.159 1308.34 136.159C1308.34 136.159 1307.29 136.345 1305.73 136.633C1301.79 137.344 1298.16 139.243 1295.32 142.075C1292.49 144.907 1290.59 148.538 1289.88 152.48L1289.4 155.089L1288.93 152.48C1288.21 148.538 1286.32 144.907 1283.48 142.075C1280.65 139.243 1277.02 137.344 1273.08 136.633C1271.52 136.345 1270.47 136.159 1270.47 136.159Z" fill="#FFCE00"/>
<path fill-rule="evenodd" clip-rule="evenodd" d="M1399.41 158.696C1399.41 158.696 1400.45 158.504 1402.02 158.228C1405.96 157.511 1409.59 155.609 1412.42 152.775C1415.26 149.941 1417.15 146.311 1417.87 142.369L1418.34 139.761L1418.82 142.369C1419.53 146.311 1421.43 149.942 1424.26 152.776C1427.09 155.61 1430.72 157.512 1434.66 158.228C1436.23 158.504 1437.28 158.696 1437.28 158.696L1434.66 159.169C1430.72 159.883 1427.09 161.784 1424.26 164.618C1421.43 167.451 1419.53 171.081 1418.82 175.023L1418.34 177.631L1417.87 175.023C1417.15 171.081 1415.26 167.452 1412.42 164.618C1409.59 161.785 1405.96 159.884 1402.02 159.169C1400.45 158.887 1399.41 158.696 1399.41 158.696Z" fill="#FF00AE"/>
<path fill-rule="evenodd" clip-rule="evenodd" d="M1100.95 308.369C1100.95 308.369 1101.97 308.183 1103.49 307.901C1107.34 307.19 1110.89 305.29 1113.65 302.457C1116.42 299.624 1118.28 295.992 1118.97 292.049L1119.43 289.439L1119.89 292.049C1120.59 295.991 1122.44 299.622 1125.21 302.455C1127.98 305.287 1131.52 307.188 1135.37 307.901C1136.89 308.183 1137.92 308.369 1137.92 308.369L1135.37 308.842C1131.52 309.562 1127.98 311.466 1125.22 314.298C1122.45 317.131 1120.59 320.76 1119.89 324.701L1119.43 327.31L1118.97 324.701C1118.28 320.757 1116.42 317.125 1113.65 314.291C1110.89 311.457 1107.34 309.556 1103.49 308.842C1101.97 308.561 1100.95 308.369 1100.95 308.369V308.369Z" fill="white"/>
<path fill-rule="evenodd" clip-rule="evenodd" d="M1262.35 356.615C1262.35 355.634 1262.62 354.675 1263.11 353.859C1263.61 353.043 1264.31 352.408 1265.14 352.032C1265.96 351.657 1266.87 351.559 1267.74 351.751C1268.62 351.943 1269.42 352.416 1270.05 353.11C1270.68 353.804 1271.11 354.688 1271.28 355.651C1271.46 356.613 1271.37 357.611 1271.03 358.517C1270.68 359.423 1270.1 360.197 1269.36 360.741C1268.62 361.285 1267.75 361.575 1266.86 361.574C1265.66 361.572 1264.52 361.049 1263.67 360.119C1262.83 359.189 1262.35 357.929 1262.35 356.615V356.615Z" fill="white"/>
<path fill-rule="evenodd" clip-rule="evenodd" d="M1453.51 284.48C1453.51 283.499 1453.77 282.541 1454.27 281.725C1454.76 280.909 1455.47 280.274 1456.29 279.898C1457.12 279.523 1458.02 279.425 1458.9 279.616C1459.77 279.808 1460.58 280.28 1461.21 280.973C1461.84 281.667 1462.27 282.551 1462.44 283.513C1462.61 284.475 1462.52 285.472 1462.18 286.378C1461.84 287.284 1461.26 288.059 1460.52 288.604C1459.78 289.149 1458.91 289.439 1458.02 289.439C1456.82 289.438 1455.68 288.915 1454.83 287.985C1453.99 287.056 1453.51 285.795 1453.51 284.48V284.48Z" fill="white"/>
</g>
<g opacity="0.2">
<path fill-rule="evenodd" clip-rule="evenodd" d="M1201.52 18.941C1201.52 18.941 1202.56 18.7494 1204.13 18.4732C1208.07 17.7568 1211.7 15.8539 1214.53 13.019C1217.36 10.1841 1219.26 6.55241 1219.97 2.60926L1220.45 1.72174e-05L1220.93 2.60926C1221.64 6.55286 1223.54 10.1847 1226.37 13.0195C1229.2 15.8544 1232.83 17.7571 1236.78 18.4732C1238.33 18.7494 1239.39 18.941 1239.39 18.941C1239.39 18.941 1238.33 19.1269 1236.78 19.4143C1232.84 20.1257 1229.2 22.0246 1226.37 24.8568C1223.54 27.689 1221.64 31.3192 1220.93 35.2614L1220.45 37.8706L1219.97 35.2614C1219.26 31.3194 1217.36 27.6888 1214.53 24.8564C1211.7 22.0241 1208.07 20.1252 1204.13 19.4143C1202.56 19.1269 1201.52 18.941 1201.52 18.941Z" fill="#FFCE00"/>
<path fill-rule="evenodd" clip-rule="evenodd" d="M1330.46 41.4773C1330.46 41.4773 1331.5 41.2858 1333.07 41.0097C1337.01 40.2927 1340.64 38.3902 1343.47 35.5563C1346.3 32.7224 1348.2 29.0921 1348.92 25.1505L1349.39 22.542L1349.87 25.1505C1350.58 29.0924 1352.48 32.7231 1355.31 35.5571C1358.14 38.3911 1361.77 40.2935 1365.71 41.0097C1367.27 41.2858 1368.33 41.4773 1368.33 41.4773L1365.71 41.9505C1361.77 42.6649 1358.14 44.5659 1355.31 47.3991C1352.48 50.2323 1350.58 53.8625 1349.87 57.8041L1349.39 60.4126L1348.92 57.8041C1348.2 53.8629 1346.3 50.233 1343.47 47.4C1340.64 44.5669 1337.01 42.6657 1333.07 41.9505C1331.5 41.6688 1330.46 41.4773 1330.46 41.4773Z" fill="#FF00AE"/>
<path fill-rule="evenodd" clip-rule="evenodd" d="M1032 191.151C1032 191.151 1033.02 190.965 1034.54 190.683C1038.39 189.972 1041.94 188.072 1044.7 185.239C1047.47 182.406 1049.32 178.774 1050.02 174.83L1050.48 172.221L1050.94 174.83C1051.64 178.773 1053.49 182.403 1056.26 185.236C1059.02 188.069 1062.57 189.969 1066.42 190.683C1067.94 190.965 1068.97 191.151 1068.97 191.151L1066.42 191.624C1062.57 192.344 1059.03 194.247 1056.26 197.08C1053.5 199.913 1051.64 203.541 1050.94 207.482L1050.48 210.092L1050.02 207.482C1049.32 203.538 1047.47 199.906 1044.7 197.072C1041.94 194.238 1038.39 192.337 1034.54 191.624C1033.02 191.342 1032 191.151 1032 191.151V191.151Z" fill="white"/>
<path fill-rule="evenodd" clip-rule="evenodd" d="M1193.4 239.396C1193.4 238.415 1193.67 237.456 1194.16 236.64C1194.66 235.825 1195.36 235.189 1196.19 234.814C1197.01 234.439 1197.92 234.341 1198.79 234.533C1199.67 234.725 1200.47 235.197 1201.1 235.892C1201.73 236.586 1202.16 237.47 1202.33 238.432C1202.51 239.395 1202.42 240.392 1202.07 241.298C1201.73 242.204 1201.15 242.978 1200.41 243.523C1199.67 244.067 1198.8 244.357 1197.9 244.355C1196.71 244.354 1195.56 243.831 1194.72 242.901C1193.88 241.971 1193.4 240.71 1193.4 239.396V239.396Z" fill="white"/>
<path fill-rule="evenodd" clip-rule="evenodd" d="M1384.56 167.262C1384.56 166.281 1384.82 165.322 1385.32 164.507C1385.81 163.691 1386.52 163.055 1387.34 162.68C1388.16 162.305 1389.07 162.207 1389.95 162.398C1390.82 162.589 1391.62 163.062 1392.25 163.755C1392.88 164.449 1393.31 165.332 1393.49 166.294C1393.66 167.256 1393.57 168.253 1393.23 169.16C1392.89 170.066 1392.31 170.84 1391.57 171.385C1390.83 171.93 1389.96 172.221 1389.07 172.221C1387.87 172.22 1386.72 171.697 1385.88 170.767C1385.03 169.837 1384.56 168.577 1384.56 167.262V167.262Z" fill="white"/>
<path fill-rule="evenodd" clip-rule="evenodd" d="M1717.28 18.941C1717.28 18.941 1718.33 18.7494 1719.89 18.4732C1723.83 17.7568 1727.46 15.8539 1730.29 13.019C1733.12 10.1841 1735.02 6.55241 1735.73 2.60926L1736.21 1.72174e-05L1736.69 2.60926C1737.4 6.55286 1739.3 10.1847 1742.13 13.0195C1744.97 15.8544 1748.6 17.7571 1752.54 18.4732C1754.09 18.7494 1755.15 18.941 1755.15 18.941C1755.15 18.941 1754.09 19.1269 1752.54 19.4143C1748.6 20.1257 1744.97 22.0246 1742.13 24.8568C1739.3 27.689 1737.4 31.3192 1736.69 35.2614L1736.21 37.8706L1735.73 35.2614C1735.02 31.3194 1733.12 27.6888 1730.29 24.8564C1727.46 22.0241 1723.83 20.1252 1719.89 19.4143C1718.33 19.1269 1717.28 18.941 1717.28 18.941Z" fill="#FFCE00"/>
<path fill-rule="evenodd" clip-rule="evenodd" d="M1846.22 41.4773C1846.22 41.4773 1847.26 41.2858 1848.83 41.0097C1852.77 40.2927 1856.4 38.3902 1859.23 35.5563C1862.06 32.7224 1863.96 29.0921 1864.68 25.1505L1865.15 22.542L1865.63 25.1505C1866.34 29.0924 1868.24 32.7231 1871.07 35.5571C1873.9 38.3911 1877.53 40.2935 1881.47 41.0097C1883.03 41.2858 1884.09 41.4773 1884.09 41.4773L1881.47 41.9505C1877.53 42.6649 1873.9 44.5659 1871.07 47.3991C1868.24 50.2323 1866.34 53.8625 1865.63 57.8041L1865.15 60.4126L1864.68 57.8041C1863.96 53.8629 1862.06 50.233 1859.23 47.4C1856.4 44.5669 1852.77 42.6657 1848.83 41.9505C1847.26 41.6688 1846.22 41.4773 1846.22 41.4773Z" fill="#FF00AE"/>
<path fill-rule="evenodd" clip-rule="evenodd" d="M1547.76 191.151C1547.76 191.151 1548.78 190.965 1550.3 190.683C1554.15 189.972 1557.7 188.072 1560.46 185.239C1563.23 182.406 1565.08 178.774 1565.78 174.83L1566.24 172.221L1566.7 174.83C1567.4 178.773 1569.25 182.403 1572.02 185.236C1574.78 188.069 1578.33 189.969 1582.18 190.683C1583.7 190.965 1584.73 191.151 1584.73 191.151L1582.18 191.624C1578.33 192.344 1574.79 194.247 1572.02 197.08C1569.26 199.913 1567.4 203.541 1566.7 207.482L1566.24 210.092L1565.78 207.482C1565.08 203.538 1563.23 199.906 1560.46 197.072C1557.7 194.238 1554.15 192.337 1550.3 191.624C1548.78 191.342 1547.76 191.151 1547.76 191.151V191.151Z" fill="white"/>
<path fill-rule="evenodd" clip-rule="evenodd" d="M1709.16 239.396C1709.16 238.415 1709.43 237.456 1709.92 236.64C1710.42 235.825 1711.12 235.189 1711.95 234.814C1712.77 234.439 1713.68 234.341 1714.55 234.533C1715.43 234.725 1716.23 235.197 1716.86 235.892C1717.49 236.586 1717.92 237.47 1718.09 238.432C1718.27 239.395 1718.18 240.392 1717.83 241.298C1717.49 242.204 1716.91 242.978 1716.17 243.523C1715.43 244.067 1714.56 244.357 1713.67 244.355C1712.47 244.354 1711.33 243.831 1710.48 242.901C1709.64 241.971 1709.16 240.71 1709.16 239.396V239.396Z" fill="white"/>
<path fill-rule="evenodd" clip-rule="evenodd" d="M1900.32 167.262C1900.32 166.281 1900.58 165.322 1901.08 164.507C1901.57 163.691 1902.28 163.055 1903.1 162.68C1903.93 162.305 1904.83 162.207 1905.71 162.398C1906.58 162.589 1907.38 163.062 1908.01 163.755C1908.65 164.449 1909.07 165.332 1909.25 166.294C1909.42 167.256 1909.33 168.253 1908.99 169.16C1908.65 170.066 1908.07 170.84 1907.33 171.385C1906.59 171.93 1905.72 172.221 1904.83 172.221C1903.63 172.22 1902.49 171.697 1901.64 170.767C1900.8 169.837 1900.32 168.577 1900.32 167.262V167.262Z" fill="white"/>
<path fill-rule="evenodd" clip-rule="evenodd" d="M2233.04 18.941C2233.04 18.941 2234.09 18.7494 2235.65 18.4732C2239.59 17.7568 2243.22 15.8539 2246.05 13.019C2248.88 10.1841 2250.78 6.55241 2251.5 2.60926L2251.97 1.72174e-05L2252.45 2.60926C2253.16 6.55286 2255.06 10.1847 2257.89 13.0195C2260.73 15.8544 2264.36 17.7571 2268.3 18.4732C2269.86 18.7494 2270.91 18.941 2270.91 18.941C2270.91 18.941 2269.86 19.1269 2268.3 19.4143C2264.36 20.1257 2260.73 22.0246 2257.89 24.8568C2255.06 27.689 2253.16 31.3192 2252.45 35.2614L2251.97 37.8706L2251.5 35.2614C2250.78 31.3194 2248.89 27.6888 2246.05 24.8564C2243.22 22.0241 2239.59 20.1252 2235.65 19.4143C2234.09 19.1269 2233.04 18.941 2233.04 18.941Z" fill="#FFCE00"/>
<path fill-rule="evenodd" clip-rule="evenodd" d="M2361.98 41.4773C2361.98 41.4773 2363.02 41.2858 2364.59 41.0097C2368.53 40.2927 2372.16 38.3902 2374.99 35.5563C2377.83 32.7224 2379.72 29.0921 2380.44 25.1505L2380.91 22.542L2381.39 25.1505C2382.1 29.0924 2384 32.7231 2386.83 35.5571C2389.66 38.3911 2393.29 40.2935 2397.23 41.0097C2398.8 41.2858 2399.85 41.4773 2399.85 41.4773L2397.23 41.9505C2393.29 42.6649 2389.66 44.5659 2386.83 47.3991C2384 50.2323 2382.1 53.8625 2381.39 57.8041L2380.91 60.4126L2380.44 57.8041C2379.73 53.8629 2377.83 50.233 2374.99 47.4C2372.16 44.5669 2368.53 42.6657 2364.59 41.9505C2363.02 41.6688 2361.98 41.4773 2361.98 41.4773Z" fill="#FF00AE"/>
<path fill-rule="evenodd" clip-rule="evenodd" d="M2063.52 191.151C2063.52 191.151 2064.54 190.965 2066.06 190.683C2069.91 189.972 2073.46 188.072 2076.22 185.239C2078.99 182.406 2080.85 178.774 2081.54 174.83L2082 172.221L2082.46 174.83C2083.16 178.773 2085.01 182.403 2087.78 185.236C2090.55 188.069 2094.09 189.969 2097.94 190.683C2099.46 190.965 2100.49 191.151 2100.49 191.151L2097.94 191.624C2094.09 192.344 2090.55 194.247 2087.79 197.08C2085.02 199.913 2083.16 203.541 2082.46 207.482L2082 210.092L2081.54 207.482C2080.85 203.538 2078.99 199.906 2076.22 197.072C2073.46 194.238 2069.91 192.337 2066.06 191.624C2064.54 191.342 2063.52 191.151 2063.52 191.151V191.151Z" fill="white"/>
<path fill-rule="evenodd" clip-rule="evenodd" d="M2224.92 239.396C2224.92 238.415 2225.19 237.456 2225.68 236.64C2226.18 235.825 2226.88 235.189 2227.71 234.814C2228.53 234.439 2229.44 234.341 2230.31 234.533C2231.19 234.725 2231.99 235.197 2232.62 235.892C2233.25 236.586 2233.68 237.47 2233.85 238.432C2234.03 239.395 2233.94 240.392 2233.6 241.298C2233.25 242.204 2232.68 242.978 2231.93 243.523C2231.19 244.067 2230.32 244.357 2229.43 244.355C2228.23 244.354 2227.09 243.831 2226.24 242.901C2225.4 241.971 2224.92 240.71 2224.92 239.396V239.396Z" fill="white"/>
<path fill-rule="evenodd" clip-rule="evenodd" d="M2416.08 167.262C2416.08 166.281 2416.34 165.322 2416.84 164.506C2417.34 163.691 2418.04 163.055 2418.86 162.68C2419.69 162.305 2420.59 162.206 2421.47 162.398C2422.34 162.589 2423.15 163.061 2423.78 163.755C2424.41 164.449 2424.84 165.332 2425.01 166.294C2425.18 167.256 2425.09 168.253 2424.75 169.16C2424.41 170.066 2423.83 170.84 2423.09 171.385C2422.35 171.93 2421.48 172.221 2420.59 172.221C2419.39 172.219 2418.25 171.696 2417.4 170.767C2416.56 169.837 2416.08 168.576 2416.08 167.262V167.262Z" fill="white"/>
<path fill-rule="evenodd" clip-rule="evenodd" d="M1270.95 136.159C1270.95 136.159 1271.99 135.968 1273.56 135.692C1277.5 134.975 1281.13 133.072 1283.96 130.237C1286.79 127.403 1288.69 123.771 1289.4 119.828L1289.88 117.219L1290.35 119.828C1291.07 123.771 1292.97 127.403 1295.8 130.238C1298.63 133.073 1302.26 134.976 1306.21 135.692C1307.76 135.968 1308.82 136.159 1308.82 136.159C1308.82 136.159 1307.76 136.345 1306.21 136.633C1302.27 137.344 1298.63 139.243 1295.8 142.075C1292.97 144.907 1291.07 148.538 1290.35 152.48L1289.88 155.089L1289.4 152.48C1288.69 148.538 1286.79 144.907 1283.96 142.075C1281.13 139.243 1277.5 137.344 1273.56 136.633C1271.99 136.345 1270.95 136.159 1270.95 136.159Z" fill="#FFCE00"/>
<path fill-rule="evenodd" clip-rule="evenodd" d="M1399.89 158.696C1399.89 158.696 1400.93 158.504 1402.5 158.228C1406.44 157.511 1410.07 155.609 1412.9 152.775C1415.73 149.941 1417.63 146.311 1418.34 142.369L1418.82 139.761L1419.3 142.369C1420.01 146.311 1421.91 149.942 1424.74 152.776C1427.57 155.61 1431.2 157.512 1435.14 158.228C1436.7 158.504 1437.76 158.696 1437.76 158.696L1435.14 159.169C1431.2 159.883 1427.57 161.784 1424.74 164.618C1421.91 167.451 1420.01 171.081 1419.3 175.023L1418.82 177.631L1418.34 175.023C1417.63 171.081 1415.73 167.452 1412.9 164.618C1410.07 161.785 1406.44 159.884 1402.5 159.169C1400.93 158.887 1399.89 158.696 1399.89 158.696Z" fill="#FF00AE"/>
<path fill-rule="evenodd" clip-rule="evenodd" d="M1101.43 308.369C1101.43 308.369 1102.45 308.183 1103.97 307.901C1107.82 307.19 1111.37 305.29 1114.13 302.457C1116.9 299.624 1118.75 295.992 1119.45 292.049L1119.91 289.439L1120.37 292.049C1121.07 295.991 1122.92 299.622 1125.69 302.455C1128.45 305.287 1132 307.188 1135.85 307.901C1137.37 308.183 1138.4 308.369 1138.4 308.369L1135.85 308.842C1132 309.562 1128.46 311.466 1125.69 314.298C1122.93 317.131 1121.07 320.76 1120.37 324.701L1119.91 327.31L1119.45 324.701C1118.75 320.757 1116.9 317.125 1114.13 314.291C1111.37 311.457 1107.82 309.556 1103.97 308.842C1102.45 308.561 1101.43 308.369 1101.43 308.369V308.369Z" fill="white"/>
<path fill-rule="evenodd" clip-rule="evenodd" d="M1262.83 356.615C1262.83 355.634 1263.1 354.675 1263.59 353.859C1264.09 353.043 1264.79 352.408 1265.62 352.032C1266.44 351.657 1267.35 351.559 1268.22 351.751C1269.1 351.943 1269.9 352.416 1270.53 353.11C1271.16 353.804 1271.59 354.688 1271.76 355.651C1271.94 356.613 1271.85 357.611 1271.5 358.517C1271.16 359.423 1270.58 360.197 1269.84 360.741C1269.1 361.285 1268.23 361.575 1267.33 361.574C1266.14 361.572 1264.99 361.049 1264.15 360.119C1263.31 359.189 1262.83 357.929 1262.83 356.615V356.615Z" fill="white"/>
<path fill-rule="evenodd" clip-rule="evenodd" d="M1453.99 284.48C1453.99 283.499 1454.25 282.541 1454.75 281.725C1455.24 280.909 1455.95 280.274 1456.77 279.898C1457.59 279.523 1458.5 279.425 1459.38 279.616C1460.25 279.808 1461.05 280.28 1461.68 280.973C1462.31 281.667 1462.74 282.551 1462.92 283.513C1463.09 284.475 1463 285.472 1462.66 286.378C1462.32 287.284 1461.74 288.059 1461 288.604C1460.26 289.149 1459.39 289.439 1458.5 289.439C1457.3 289.438 1456.15 288.915 1455.31 287.985C1454.46 287.056 1453.99 285.795 1453.99 284.48V284.48Z" fill="white"/>
<path fill-rule="evenodd" clip-rule="evenodd" d="M1786.71 136.159C1786.71 136.159 1787.76 135.968 1789.32 135.692C1793.26 134.975 1796.89 133.072 1799.72 130.237C1802.55 127.403 1804.45 123.771 1805.16 119.828L1805.64 117.219L1806.12 119.828C1806.83 123.771 1808.73 127.403 1811.56 130.238C1814.4 133.073 1818.03 134.976 1821.97 135.692C1823.52 135.968 1824.58 136.159 1824.58 136.159C1824.58 136.159 1823.52 136.345 1821.97 136.633C1818.03 137.344 1814.4 139.243 1811.56 142.075C1808.73 144.907 1806.83 148.538 1806.12 152.48L1805.64 155.089L1805.16 152.48C1804.45 148.538 1802.55 144.907 1799.72 142.075C1796.89 139.243 1793.26 137.344 1789.32 136.633C1787.76 136.345 1786.71 136.159 1786.71 136.159Z" fill="#FFCE00"/>
<path fill-rule="evenodd" clip-rule="evenodd" d="M1915.65 158.696C1915.65 158.696 1916.69 158.504 1918.26 158.228C1922.2 157.511 1925.83 155.609 1928.66 152.775C1931.49 149.941 1933.39 146.311 1934.11 142.369L1934.58 139.761L1935.06 142.369C1935.77 146.311 1937.67 149.942 1940.5 152.776C1943.33 155.61 1946.96 157.512 1950.9 158.228C1952.46 158.504 1953.52 158.696 1953.52 158.696L1950.9 159.169C1946.96 159.883 1943.33 161.784 1940.5 164.618C1937.67 167.451 1935.77 171.081 1935.06 175.023L1934.58 177.631L1934.11 175.023C1933.39 171.081 1931.5 167.452 1928.66 164.618C1925.83 161.785 1922.2 159.884 1918.26 159.169C1916.69 158.887 1915.65 158.696 1915.65 158.696Z" fill="#FF00AE"/>
<path fill-rule="evenodd" clip-rule="evenodd" d="M1617.19 308.369C1617.19 308.369 1618.21 308.183 1619.73 307.901C1623.58 307.19 1627.13 305.29 1629.89 302.457C1632.66 299.624 1634.52 295.992 1635.21 292.049L1635.67 289.439L1636.13 292.049C1636.83 295.991 1638.68 299.622 1641.45 302.455C1644.22 305.287 1647.76 307.188 1651.61 307.901C1653.13 308.183 1654.16 308.369 1654.16 308.369L1651.61 308.842C1647.76 309.562 1644.22 311.466 1641.45 314.298C1638.69 317.131 1636.83 320.76 1636.13 324.701L1635.67 327.31L1635.21 324.701C1634.51 320.757 1632.66 317.125 1629.89 314.291C1627.13 311.457 1623.58 309.556 1619.73 308.842C1618.21 308.561 1617.19 308.369 1617.19 308.369V308.369Z" fill="white"/>
<path fill-rule="evenodd" clip-rule="evenodd" d="M1778.59 356.615C1778.59 355.634 1778.86 354.675 1779.35 353.859C1779.85 353.043 1780.55 352.408 1781.38 352.032C1782.2 351.657 1783.11 351.559 1783.98 351.751C1784.86 351.943 1785.66 352.416 1786.29 353.11C1786.92 353.804 1787.35 354.688 1787.52 355.651C1787.7 356.613 1787.61 357.611 1787.26 358.517C1786.92 359.423 1786.34 360.197 1785.6 360.741C1784.86 361.285 1783.99 361.575 1783.1 361.574C1781.9 361.572 1780.76 361.049 1779.91 360.119C1779.07 359.189 1778.59 357.929 1778.59 356.615V356.615Z" fill="white"/>
<path fill-rule="evenodd" clip-rule="evenodd" d="M1969.75 284.48C1969.75 283.499 1970.01 282.541 1970.51 281.725C1971 280.909 1971.71 280.274 1972.53 279.898C1973.36 279.523 1974.26 279.425 1975.14 279.616C1976.01 279.808 1976.81 280.28 1977.45 280.973C1978.08 281.667 1978.51 282.551 1978.68 283.513C1978.85 284.475 1978.76 285.472 1978.42 286.378C1978.08 287.284 1977.5 288.059 1976.76 288.604C1976.02 289.149 1975.15 289.439 1974.26 289.439C1973.06 289.438 1971.92 288.915 1971.07 287.985C1970.23 287.056 1969.75 285.795 1969.75 284.48V284.48Z" fill="white"/>
<path fill-rule="evenodd" clip-rule="evenodd" d="M2302.47 136.159C2302.47 136.159 2303.52 135.968 2305.08 135.692C2309.02 134.975 2312.65 133.072 2315.48 130.237C2318.31 127.403 2320.21 123.771 2320.93 119.828L2321.4 117.219L2321.88 119.828C2322.59 123.771 2324.49 127.403 2327.32 130.238C2330.16 133.073 2333.79 134.976 2337.73 135.692C2339.29 135.968 2340.34 136.159 2340.34 136.159C2340.34 136.159 2339.29 136.345 2337.73 136.633C2333.79 137.344 2330.16 139.243 2327.32 142.075C2324.49 144.907 2322.59 148.538 2321.88 152.48L2321.4 155.089L2320.93 152.48C2320.21 148.538 2318.32 144.907 2315.48 142.075C2312.65 139.243 2309.02 137.344 2305.08 136.633C2303.52 136.345 2302.47 136.159 2302.47 136.159Z" fill="#FFCE00"/>
<path fill-rule="evenodd" clip-rule="evenodd" d="M2431.41 158.696C2431.41 158.696 2432.45 158.504 2434.02 158.228C2437.96 157.511 2441.59 155.609 2444.42 152.775C2447.26 149.941 2449.15 146.311 2449.87 142.369L2450.34 139.761L2450.82 142.369C2451.53 146.311 2453.43 149.942 2456.26 152.776C2459.09 155.61 2462.72 157.512 2466.66 158.228C2468.23 158.504 2469.28 158.696 2469.28 158.696L2466.66 159.169C2462.72 159.883 2459.09 161.784 2456.26 164.618C2453.43 167.451 2451.53 171.081 2450.82 175.023L2450.34 177.631L2449.87 175.023C2449.15 171.081 2447.26 167.452 2444.42 164.618C2441.59 161.785 2437.96 159.884 2434.02 159.169C2432.45 158.887 2431.41 158.696 2431.41 158.696Z" fill="#FF00AE"/>
<path fill-rule="evenodd" clip-rule="evenodd" d="M2132.95 308.369C2132.95 308.369 2133.97 308.183 2135.49 307.901C2139.34 307.19 2142.89 305.29 2145.65 302.457C2148.42 299.624 2150.28 295.992 2150.97 292.049L2151.43 289.439L2151.89 292.049C2152.59 295.991 2154.44 299.622 2157.21 302.455C2159.98 305.287 2163.52 307.188 2167.37 307.901C2168.89 308.183 2169.92 308.369 2169.92 308.369L2167.37 308.842C2163.52 309.562 2159.98 311.466 2157.22 314.298C2154.45 317.131 2152.59 320.76 2151.89 324.701L2151.43 327.31L2150.97 324.701C2150.28 320.757 2148.42 317.125 2145.65 314.291C2142.89 311.457 2139.34 309.556 2135.49 308.842C2133.97 308.561 2132.95 308.369 2132.95 308.369V308.369Z" fill="white"/>
<path fill-rule="evenodd" clip-rule="evenodd" d="M2294.35 356.615C2294.35 355.634 2294.62 354.675 2295.11 353.859C2295.61 353.043 2296.31 352.408 2297.14 352.032C2297.96 351.657 2298.87 351.559 2299.74 351.751C2300.62 351.943 2301.42 352.416 2302.05 353.11C2302.68 353.804 2303.11 354.688 2303.28 355.651C2303.46 356.613 2303.37 357.611 2303.03 358.517C2302.68 359.423 2302.1 360.197 2301.36 360.741C2300.62 361.285 2299.75 361.575 2298.86 361.574C2297.66 361.572 2296.52 361.049 2295.67 360.119C2294.83 359.189 2294.35 357.929 2294.35 356.615V356.615Z" fill="white"/>
<path fill-rule="evenodd" clip-rule="evenodd" d="M2485.51 284.48C2485.51 283.499 2485.77 282.541 2486.27 281.725C2486.76 280.909 2487.47 280.274 2488.29 279.898C2489.12 279.523 2490.02 279.425 2490.9 279.616C2491.77 279.808 2492.58 280.28 2493.21 280.973C2493.84 281.667 2494.27 282.551 2494.44 283.513C2494.61 284.475 2494.52 285.472 2494.18 286.378C2493.84 287.284 2493.26 288.059 2492.52 288.604C2491.78 289.149 2490.91 289.439 2490.02 289.439C2488.82 289.438 2487.68 288.915 2486.83 287.985C2485.99 287.056 2485.51 285.795 2485.51 284.48V284.48Z" fill="white"/>
</g>
</svg>
